<?xml version="1.0" encoding="UTF-8" standalone="no"?><svg xmlns="http://www.w3.org/2000/svg" xmlns:xlink="http://www.w3.org/1999/xlink" clip-rule="evenodd" stroke-miterlimit="10" viewBox="0 0 420 315"><desc>SVG generated by Keynote</desc><defs></defs><g transform="matrix(1.00, 0.00, -0.00, -1.00, 0.0, 315.0)"><g><clipPath id="clip0x6180018bc0e0"><path d="M 0.5 314.5 L 418.5 314.5 L 418.5 1.5 L 0.5 1.5 Z M 0.5 314.5 "></path></clipPath><g clip-path="url(#clip0x6180018bc0e0)"><g><clipPath id="clip0x6180018aa200"><path d="M 1.0 314.0 L 105.2 314.0 L 105.2 251.6 L 1.0 251.6 Z M 1.0 314.0 "></path></clipPath><g clip-path="url(#clip0x6180018aa200)"><image xlink:href="../../FD143D00-F4AD-4582-B813-3101DA54A4D8/assets/931714CB8B7FE16B9B80A5EAB57E0513.png" width="383.00" height="383.00" transform="matrix(0.50, 0.00, -0.00, -0.50, 1.0, 314.0)"></image></g></g></g></g><g><clipPath id="clip0x6080018a1560"><path d="M 0.5 314.5 L 418.5 314.5 L 418.5 1.5 L 0.5 1.5 Z M 0.5 314.5 "></path></clipPath><g clip-path="url(#clip0x6080018a1560)"><g><clipPath id="clip0x608000caedc0"><path d="M 105.2 314.0 L 209.5 314.0 L 209.5 251.6 L 105.2 251.6 Z M 105.2 314.0 "></path></clipPath><g clip-path="url(#clip0x608000caedc0)"><image xlink:href="../../FD143D00-F4AD-4582-B813-3101DA54A4D8/assets/931714CB8B7FE16B9B80A5EAB57E0513.png" width="383.00" height="383.00" transform="matrix(0.50, 0.00, -0.00, -0.50, 105.2, 314.0)"></image></g></g></g></g><g><clipPath id="clip0x618001aab7c0"><path d="M 0.5 314.5 L 418.5 314.5 L 418.5 1.5 L 0.5 1.5 Z M 0.5 314.5 "></path></clipPath><g clip-path="url(#clip0x618001aab7c0)"><g><clipPath id="clip0x618001aa15c0"><path d="M 209.5 314.0 L 313.8 314.0 L 313.8 251.6 L 209.5 251.6 Z M 209.5 314.0 "></path></clipPath><g clip-path="url(#clip0x618001aa15c0)"><image xlink:href="../../FD143D00-F4AD-4582-B813-3101DA54A4D8/assets/931714CB8B7FE16B9B80A5EAB57E0513.png" width="383.00" height="383.00" transform="matrix(0.50, 0.00, -0.00, -0.50, 209.5, 314.0)"></image></g></g></g></g><g><clipPath id="clip0x6000020a7560"><path d="M 0.5 314.5 L 418.5 314.5 L 418.5 1.5 L 0.5 1.5 Z M 0.5 314.5 "></path></clipPath><g clip-path="url(#clip0x6000020a7560)"><g><clipPath id="clip0x6000024a2760"><path d="M 313.8 314.0 L 418.0 314.0 L 418.0 251.6 L 313.8 251.6 Z M 313.8 314.0 "></path></clipPath><g clip-path="url(#clip0x6000024a2760)"><image xlink:href="../../FD143D00-F4AD-4582-B813-3101DA54A4D8/assets/931714CB8B7FE16B9B80A5EAB57E0513.png" width="383.00" height="383.00" transform="matrix(0.50, 0.00, -0.00, -0.50, 313.8, 314.0)"></image></g></g></g></g><g><clipPath id="clip0x6080014a3d20"><path d="M 0.5 314.5 L 418.5 314.5 L 418.5 1.5 L 0.5 1.5 Z M 0.5 314.5 "></path></clipPath><g clip-path="url(#clip0x6080014a3d20)"><g><clipPath id="clip0x6080014bbd20"><path d="M 1.0 251.6 L 105.2 251.6 L 105.2 189.2 L 1.0 189.2 Z M 1.0 251.6 "></path></clipPath><g clip-path="url(#clip0x6080014bbd20)"><image xlink:href="../../D42D531E-7E55-4A9D-8AE7-8A88C2D5E127/assets/57EBE3511BFC34115D601AB0F6B89EDD.png" width="383.00" height="383.00" transform="matrix(0.50, 0.00, -0.00, -0.50, 1.0, 251.6)"></image></g></g></g></g><g><clipPath id="clip0x6100016b3620"><path d="M 0.5 314.5 L 418.5 314.5 L 418.5 1.5 L 0.5 1.5 Z M 0.5 314.5 "></path></clipPath><g clip-path="url(#clip0x6100016b3620)"><g><clipPath id="clip0x6100014a1860"><path d="M 1.0 189.2 L 105.2 189.2 L 105.2 126.8 L 1.0 126.8 Z M 1.0 189.2 "></path></clipPath><g clip-path="url(#clip0x6100014a1860)"><image xlink:href="../../D42D531E-7E55-4A9D-8AE7-8A88C2D5E127/assets/57EBE3511BFC34115D601AB0F6B89EDD.png" width="383.00" height="383.00" transform="matrix(0.50, 0.00, -0.00, -0.50, 1.0, 189.2)"></image></g></g></g></g><g><clipPath id="clip0x6000020b2300"><path d="M 0.5 314.5 L 418.5 314.5 L 418.5 1.5 L 0.5 1.5 Z M 0.5 314.5 "></path></clipPath><g clip-path="url(#clip0x6000020b2300)"><g><clipPath id="clip0x6000020ba460"><path d="M 1.0 126.8 L 105.2 126.8 L 105.2 64.4 L 1.0 64.4 Z M 1.0 126.8 "></path></clipPath><g clip-path="url(#clip0x6000020ba460)"><image xlink:href="../../D42D531E-7E55-4A9D-8AE7-8A88C2D5E127/assets/57EBE3511BFC34115D601AB0F6B89EDD.png" width="383.00" height="383.00" transform="matrix(0.50, 0.00, -0.00, -0.50, 1.0, 126.8)"></image></g></g></g></g><g><clipPath id="clip0x6080018a5a00"><path d="M 0.5 314.5 L 418.5 314.5 L 418.5 1.5 L 0.5 1.5 Z M 0.5 314.5 "></path></clipPath><g clip-path="url(#clip0x6080018a5a00)"><g><clipPath id="clip0x6080016b9560"><path d="M 1.0 64.4 L 105.2 64.4 L 105.2 2.0 L 1.0 2.0 Z M 1.0 64.4 "></path></clipPath><g clip-path="url(#clip0x6080016b9560)"><image xlink:href="../../D42D531E-7E55-4A9D-8AE7-8A88C2D5E127/assets/57EBE3511BFC34115D601AB0F6B89EDD.png" width="383.00" height="383.00" transform="matrix(0.50, 0.00, -0.00, -0.50, 1.0, 64.4)"></image></g></g></g></g><image xlink:href="../../D33D0E0A-14B7-49EC-8A2B-9C2ECE828410/assets/E15B16236FDF3C140129F18BC167A16D.png" width="96.00" height="30.00" transform="matrix(1.00, 0.00, -0.00, -1.00, 109.0, 293.0)"></image><g><clipPath id="clip0x6100016a1ce0"><path d="M 0.5 314.5 L 418.5 314.5 L 418.5 1.5 L 0.5 1.5 Z M 0.5 314.5 "></path></clipPath><g clip-path="url(#clip0x6100016a1ce0)"><g><clipPath id="clip0x6100014b26c0"><path d="M 105.2 252.1 L 209.5 252.1 L 209.5 313.5 L 105.2 313.5 Z M 105.2 252.1 "></path></clipPath><g clip-path="url(#clip0x6100014b26c0)"><text xml:space="preserve" font-family="Palatino-Roman,Palatino" font-size="30.0" fill="#F6F4EE" transform="matrix(1.00, 0.00, -0.00, -1.00, 110.1, 270.8)">s</text><text xml:space="preserve" font-family="Palatino-Roman,Palatino" font-size="30.0" fill="#F6F4EE" transform="matrix(1.00, 0.00, -0.00, -1.00, 122.8, 270.8)">t</text><text xml:space="preserve" font-family="Palatino-Roman,Palatino" font-size="30.0" fill="#F6F4EE" transform="matrix(1.00, 0.00, -0.00, -1.00, 132.6, 270.8)">o</text><text xml:space="preserve" font-family="Palatino-Roman,Palatino" font-size="30.0" fill="#F6F4EE" transform="matrix(1.00, 0.00, -0.00, -1.00, 149.0, 270.8)">r</text><text xml:space="preserve" font-family="Palatino-Roman,Palatino" font-size="30.0" fill="#F6F4EE" transform="matrix(1.00, 0.00, -0.00, -1.00, 160.3, 270.8)">e</text><text xml:space="preserve" font-family="Palatino-Roman,Palatino" font-size="30.0" fill="#F6F4EE" transform="matrix(1.00, 0.00, -0.00, -1.00, 174.7, 270.8)">_</text><text xml:space="preserve" font-family="Palatino-Roman,Palatino" font-size="30.0" fill="#F6F4EE" transform="matrix(1.00, 0.00, -0.00, -1.00, 189.7, 270.8)">1</text></g></g></g></g><image xlink:href="../../D33D0E0A-14B7-49EC-8A2B-9C2ECE828410/assets/7B49A895414E2865F20E360E28578BEA.png" width="97.00" height="30.00" transform="matrix(1.00, 0.00, -0.00, -1.00, 213.0, 293.0)"></image><g><clipPath id="clip0x610000ebd580"><path d="M 0.5 314.5 L 418.5 314.5 L 418.5 1.5 L 0.5 1.5 Z M 0.5 314.5 "></path></clipPath><g clip-path="url(#clip0x610000ebd580)"><g><clipPath id="clip0x6100012b9ec0"><path d="M 209.5 252.1 L 313.8 252.1 L 313.8 313.5 L 209.5 313.5 Z M 209.5 252.1 "></path></clipPath><g clip-path="url(#clip0x6100012b9ec0)"><text xml:space="preserve" font-family="Palatino-Roman,Palatino" font-size="30.0" fill="#F6F4EE" transform="matrix(1.00, 0.00, -0.00, -1.00, 214.3, 270.8)">s</text><text xml:space="preserve" font-family="Palatino-Roman,Palatino" font-size="30.0" fill="#F6F4EE" transform="matrix(1.00, 0.00, -0.00, -1.00, 227.0, 270.8)">t</text><text xml:space="preserve" font-family="Palatino-Roman,Palatino" font-size="30.0" fill="#F6F4EE" transform="matrix(1.00, 0.00, -0.00, -1.00, 236.8, 270.8)">o</text><text xml:space="preserve" font-family="Palatino-Roman,Palatino" font-size="30.0" fill="#F6F4EE" transform="matrix(1.00, 0.00, -0.00, -1.00, 253.2, 270.8)">r</text><text xml:space="preserve" font-family="Palatino-Roman,Palatino" font-size="30.0" fill="#F6F4EE" transform="matrix(1.00, 0.00, -0.00, -1.00, 264.5, 270.8)">e</text><text xml:space="preserve" font-family="Palatino-Roman,Palatino" font-size="30.0" fill="#F6F4EE" transform="matrix(1.00, 0.00, -0.00, -1.00, 278.9, 270.8)">_</text><text xml:space="preserve" font-family="Palatino-Roman,Palatino" font-size="30.0" fill="#F6F4EE" transform="matrix(1.00, 0.00, -0.00, -1.00, 293.9, 270.8)">2</text></g></g></g></g><image xlink:href="../../D33D0E0A-14B7-49EC-8A2B-9C2ECE828410/assets/41571D24D41B57B1FFC15D8BDD66242E.png" width="62.00" height="27.00" transform="matrix(1.00, 0.00, -0.00, -1.00, 334.0, 286.0)"></image><g><clipPath id="clip0x6100018b9260"><path d="M 0.5 314.5 L 418.5 314.5 L 418.5 1.5 L 0.5 1.5 Z M 0.5 314.5 "></path></clipPath><g clip-path="url(#clip0x6100018b9260)"><g><clipPath id="clip0x610000ca2520"><path d="M 313.8 252.1 L 417.5 252.1 L 417.5 313.5 L 313.8 313.5 Z M 313.8 252.1 "></path></clipPath><g clip-path="url(#clip0x610000ca2520)"><text xml:space="preserve" font-family="Palatino-Roman,Palatino" font-size="30.0" fill="#F6F4EE" transform="matrix(1.00, 0.00, -0.00, -1.00, 336.7, 270.8)">y</text><text xml:space="preserve" font-family="Palatino-Roman,Palatino" font-size="30.0" fill="#F6F4EE" transform="matrix(1.00, 0.00, -0.00, -1.00, 353.4, 270.8)">e</text><text xml:space="preserve" font-family="Palatino-Roman,Palatino" font-size="30.0" fill="#F6F4EE" transform="matrix(1.00, 0.00, -0.00, -1.00, 367.7, 270.8)">a</text><text xml:space="preserve" font-family="Palatino-Roman,Palatino" font-size="30.0" fill="#F6F4EE" transform="matrix(1.00, 0.00, -0.00, -1.00, 382.7, 270.8)">r</text></g></g></g></g><image xlink:href="../../D33D0E0A-14B7-49EC-8A2B-9C2ECE828410/assets/BD677D6E938ADFB63791F4ECDAF6E3E4.png" width="18.00" height="27.00" transform="matrix(1.00, 0.00, -0.00, -1.00, 44.0, 231.0)"></image><g><clipPath id="clip0x6100014ba7c0"><path d="M 0.5 314.5 L 418.5 314.5 L 418.5 1.5 L 0.5 1.5 Z M 0.5 314.5 "></path></clipPath><g clip-path="url(#clip0x6100014ba7c0)"><g><clipPath id="clip0x6100014b03e0"><path d="M 1.5 189.7 L 104.8 189.7 L 104.8 251.1 L 1.5 251.1 Z M 1.5 189.7 "></path></clipPath><g clip-path="url(#clip0x6100014b03e0)"><text xml:space="preserve" font-family="Palatino-Roman,Palatino" font-size="30.0" fill="#F6F4EE" transform="matrix(1.00, 0.00, -0.00, -1.00, 45.6, 208.4)">0</text></g></g></g></g><image xlink:href="../../D33D0E0A-14B7-49EC-8A2B-9C2ECE828410/assets/EE37FA12EF63EA1E094FF0BBA5971D8E.png" width="49.00" height="27.00" transform="matrix(1.00, 0.00, -0.00, -1.00, 133.0, 231.0)"></image><g><clipPath id="clip0x6100018b24e0"><path d="M 0.5 314.5 L 418.5 314.5 L 418.5 1.5 L 0.5 1.5 Z M 0.5 314.5 "></path></clipPath><g clip-path="url(#clip0x6100018b24e0)"><g><clipPath id="clip0x6100018b1e20"><path d="M 105.8 189.7 L 209.0 189.7 L 209.0 251.1 L 105.8 251.1 Z M 105.8 189.7 "></path></clipPath><g clip-path="url(#clip0x6100018b1e20)"><text xml:space="preserve" font-family="Palatino-Roman,Palatino" font-size="30.0" fill="#6C6A66" transform="matrix(1.00, 0.00, -0.00, -1.00, 134.9, 208.4)">5</text><text xml:space="preserve" font-family="Palatino-Roman,Palatino" font-size="30.0" fill="#6C6A66" transform="matrix(1.00, 0.00, -0.00, -1.00, 149.9, 208.4)">8</text><text xml:space="preserve" font-family="Palatino-Roman,Palatino" font-size="30.0" fill="#6C6A66" transform="matrix(1.00, 0.00, -0.00, -1.00, 164.9, 208.4)">4</text></g></g></g></g><image xlink:href="../../D33D0E0A-14B7-49EC-8A2B-9C2ECE828410/assets/7DBF524727248ABE2069A2528CDA9318.png" width="62.00" height="27.00" transform="matrix(1.00, 0.00, -0.00, -1.00, 231.0, 231.0)"></image><g><clipPath id="clip0x6100012b8420"><path d="M 0.5 314.5 L 418.5 314.5 L 418.5 1.5 L 0.5 1.5 Z M 0.5 314.5 "></path></clipPath><g clip-path="url(#clip0x6100012b8420)"><g><clipPath id="clip0x610000ea1bc0"><path d="M 210.0 189.7 L 313.2 189.7 L 313.2 251.1 L 210.0 251.1 Z M 210.0 189.7 "></path></clipPath><g clip-path="url(#clip0x610000ea1bc0)"><text xml:space="preserve" font-family="Palatino-Roman,Palatino" font-size="30.0" fill="#6C6A66" transform="matrix(1.00, 0.00, -0.00, -1.00, 231.6, 208.4)">1</text><text xml:space="preserve" font-family="Palatino-Roman,Palatino" font-size="30.0" fill="#6C6A66" transform="matrix(1.00, 0.00, -0.00, -1.00, 246.6, 208.4)">0</text><text xml:space="preserve" font-family="Palatino-Roman,Palatino" font-size="30.0" fill="#6C6A66" transform="matrix(1.00, 0.00, -0.00, -1.00, 261.6, 208.4)">3</text><text xml:space="preserve" font-family="Palatino-Roman,Palatino" font-size="30.0" fill="#6C6A66" transform="matrix(1.00, 0.00, -0.00, -1.00, 276.6, 208.4)">2</text></g></g></g></g><image xlink:href="../../D33D0E0A-14B7-49EC-8A2B-9C2ECE828410/assets/A0F8CDBE58042245B20B91E9A01F8C54.png" width="63.00" height="27.00" transform="matrix(1.00, 0.00, -0.00, -1.00, 334.0, 231.0)"></image><g><clipPath id="clip0x6100016b8840"><path d="M 0.5 314.5 L 418.5 314.5 L 418.5 1.5 L 0.5 1.5 Z M 0.5 314.5 "></path></clipPath><g clip-path="url(#clip0x6100016b8840)"><g><clipPath id="clip0x6100018b8e40"><path d="M 314.2 189.7 L 417.5 189.7 L 417.5 251.1 L 314.2 251.1 Z M 314.2 189.7 "></path></clipPath><g clip-path="url(#clip0x6100018b8e40)"><text xml:space="preserve" font-family="Palatino-Roman,Palatino" font-size="30.0" fill="#6C6A66" transform="matrix(1.00, 0.00, -0.00, -1.00, 335.9, 208.4)">2</text><text xml:space="preserve" font-family="Palatino-Roman,Palatino" font-size="30.0" fill="#6C6A66" transform="matrix(1.00, 0.00, -0.00, -1.00, 350.9, 208.4)">0</text><text xml:space="preserve" font-family="Palatino-Roman,Palatino" font-size="30.0" fill="#6C6A66" transform="matrix(1.00, 0.00, -0.00, -1.00, 365.9, 208.4)">1</text><text xml:space="preserve" font-family="Palatino-Roman,Palatino" font-size="30.0" fill="#6C6A66" transform="matrix(1.00, 0.00, -0.00, -1.00, 380.9, 208.4)">2</text></g></g></g></g><image xlink:href="../../D33D0E0A-14B7-49EC-8A2B-9C2ECE828410/assets/F95100B0F8446BFE286DF83C1D9C2573.png" width="16.00" height="25.00" transform="matrix(1.00, 0.00, -0.00, -1.00, 45.0, 168.0)"></image><g><clipPath id="clip0x6100010a0c00"><path d="M 0.5 314.5 L 418.5 314.5 L 418.5 1.5 L 0.5 1.5 Z M 0.5 314.5 "></path></clipPath><g clip-path="url(#clip0x6100010a0c00)"><g><clipPath id="clip0x6100016b5420"><path d="M 1.5 127.3 L 104.8 127.3 L 104.8 188.7 L 1.5 188.7 Z M 1.5 127.3 "></path></clipPath><g clip-path="url(#clip0x6100016b5420)"><text xml:space="preserve" font-family="Palatino-Roman,Palatino" font-size="30.0" fill="#F6F4EE" transform="matrix(1.00, 0.00, -0.00, -1.00, 45.6, 146.0)">1</text></g></g></g></g><image xlink:href="../../D33D0E0A-14B7-49EC-8A2B-9C2ECE828410/assets/11686EB1D13D48F8E0E80DF17B38F7C4.png" width="47.00" height="26.00" transform="matrix(1.00, 0.00, -0.00, -1.00, 133.0, 168.0)"></image><g><clipPath id="clip0x6100018a2e80"><path d="M 0.5 314.5 L 418.5 314.5 L 418.5 1.5 L 0.5 1.5 Z M 0.5 314.5 "></path></clipPath><g clip-path="url(#clip0x6100018a2e80)"><g><clipPath id="clip0x6100014accc0"><path d="M 105.8 127.3 L 209.0 127.3 L 209.0 188.7 L 105.8 188.7 Z M 105.8 127.3 "></path></clipPath><g clip-path="url(#clip0x6100014accc0)"><text xml:space="preserve" font-family="Palatino-Roman,Palatino" font-size="30.0" fill="#6C6A66" transform="matrix(1.00, 0.00, -0.00, -1.00, 134.9, 146.0)">6</text><text xml:space="preserve" font-family="Palatino-Roman,Palatino" font-size="30.0" fill="#6C6A66" transform="matrix(1.00, 0.00, -0.00, -1.00, 149.9, 146.0)">0</text><text xml:space="preserve" font-family="Palatino-Roman,Palatino" font-size="30.0" fill="#6C6A66" transform="matrix(1.00, 0.00, -0.00, -1.00, 164.9, 146.0)">1</text></g></g></g></g><image xlink:href="../../D33D0E0A-14B7-49EC-8A2B-9C2ECE828410/assets/190B08630545F517DAD9520023C30035.png" width="49.00" height="26.00" transform="matrix(1.00, 0.00, -0.00, -1.00, 237.0, 168.0)"></image><g><clipPath id="clip0x6100018a7500"><path d="M 0.5 314.5 L 418.5 314.5 L 418.5 1.5 L 0.5 1.5 Z M 0.5 314.5 "></path></clipPath><g clip-path="url(#clip0x6100018a7500)"><g><clipPath id="clip0x6100014acf60"><path d="M 210.0 127.3 L 313.2 127.3 L 313.2 188.7 L 210.0 188.7 Z M 210.0 127.3 "></path></clipPath><g clip-path="url(#clip0x6100014acf60)"><text xml:space="preserve" font-family="Palatino-Roman,Palatino" font-size="30.0" fill="#6C6A66" transform="matrix(1.00, 0.00, -0.00, -1.00, 239.1, 146.0)">9</text><text xml:space="preserve" font-family="Palatino-Roman,Palatino" font-size="30.0" fill="#6C6A66" transform="matrix(1.00, 0.00, -0.00, -1.00, 254.1, 146.0)">6</text><text xml:space="preserve" font-family="Palatino-Roman,Palatino" font-size="30.0" fill="#6C6A66" transform="matrix(1.00, 0.00, -0.00, -1.00, 269.1, 146.0)">0</text></g></g></g></g><image xlink:href="../../D33D0E0A-14B7-49EC-8A2B-9C2ECE828410/assets/C76CC4281D5565C84E2AA71BA584E37C.png" width="63.00" height="26.00" transform="matrix(1.00, 0.00, -0.00, -1.00, 334.0, 168.0)"></image><g><clipPath id="clip0x6100016b8a20"><path d="M 0.5 314.5 L 418.5 314.5 L 418.5 1.5 L 0.5 1.5 Z M 0.5 314.5 "></path></clipPath><g clip-path="url(#clip0x6100016b8a20)"><g><clipPath id="clip0x6100014b5720"><path d="M 314.2 127.3 L 417.5 127.3 L 417.5 188.7 L 314.2 188.7 Z M 314.2 127.3 "></path></clipPath><g clip-path="url(#clip0x6100014b5720)"><text xml:space="preserve" font-family="Palatino-Roman,Palatino" font-size="30.0" fill="#6C6A66" transform="matrix(1.00, 0.00, -0.00, -1.00, 335.9, 146.0)">2</text><text xml:space="preserve" font-family="Palatino-Roman,Palatino" font-size="30.0" fill="#6C6A66" transform="matrix(1.00, 0.00, -0.00, -1.00, 350.9, 146.0)">0</text><text xml:space="preserve" font-family="Palatino-Roman,Palatino" font-size="30.0" fill="#6C6A66" transform="matrix(1.00, 0.00, -0.00, -1.00, 365.9, 146.0)">1</text><text xml:space="preserve" font-family="Palatino-Roman,Palatino" font-size="30.0" fill="#6C6A66" transform="matrix(1.00, 0.00, -0.00, -1.00, 380.9, 146.0)">3</text></g></g></g></g><image xlink:href="../../D33D0E0A-14B7-49EC-8A2B-9C2ECE828410/assets/51FEE3FCF3830CF4F883E6D91C91AE65.png" width="18.00" height="26.00" transform="matrix(1.00, 0.00, -0.00, -1.00, 44.0, 106.0)"></image><g><clipPath id="clip0x6100010acde0"><path d="M 0.5 314.5 L 418.5 314.5 L 418.5 1.5 L 0.5 1.5 Z M 0.5 314.5 "></path></clipPath><g clip-path="url(#clip0x6100010acde0)"><g><clipPath id="clip0x6100018b7e20"><path d="M 1.5 64.9 L 104.8 64.9 L 104.8 126.3 L 1.5 126.3 Z M 1.5 64.9 "></path></clipPath><g clip-path="url(#clip0x6100018b7e20)"><text xml:space="preserve" font-family="Palatino-Roman,Palatino" font-size="30.0" fill="#F6F4EE" transform="matrix(1.00, 0.00, -0.00, -1.00, 45.6, 83.6)">2</text></g></g></g></g><image xlink:href="../../D33D0E0A-14B7-49EC-8A2B-9C2ECE828410/assets/26A59619A78414849EEF2E091B0CC85E.png" width="48.00" height="26.00" transform="matrix(1.00, 0.00, -0.00, -1.00, 133.0, 106.0)"></image><g><clipPath id="clip0x6100018b8060"><path d="M 0.5 314.5 L 418.5 314.5 L 418.5 1.5 L 0.5 1.5 Z M 0.5 314.5 "></path></clipPath><g clip-path="url(#clip0x6100018b8060)"><g><clipPath id="clip0x6100018ab8e0"><path d="M 105.8 64.9 L 209.0 64.9 L 209.0 126.3 L 105.8 126.3 Z M 105.8 64.9 "></path></clipPath><g clip-path="url(#clip0x6100018ab8e0)"><text xml:space="preserve" font-family="Palatino-Roman,Palatino" font-size="30.0" fill="#6C6A66" transform="matrix(1.00, 0.00, -0.00, -1.00, 134.9, 83.6)">4</text><text xml:space="preserve" font-family="Palatino-Roman,Palatino" font-size="30.0" fill="#6C6A66" transform="matrix(1.00, 0.00, -0.00, -1.00, 149.9, 83.6)">0</text><text xml:space="preserve" font-family="Palatino-Roman,Palatino" font-size="30.0" fill="#6C6A66" transform="matrix(1.00, 0.00, -0.00, -1.00, 164.9, 83.6)">3</text></g></g></g></g><image xlink:href="../../D33D0E0A-14B7-49EC-8A2B-9C2ECE828410/assets/0BA59842AA7BAAF40019B7B6CCEF2397.png" width="62.00" height="26.00" transform="matrix(1.00, 0.00, -0.00, -1.00, 231.0, 106.0)"></image><g><clipPath id="clip0x6100018b9920"><path d="M 0.5 314.5 L 418.5 314.5 L 418.5 1.5 L 0.5 1.5 Z M 0.5 314.5 "></path></clipPath><g clip-path="url(#clip0x6100018b9920)"><g><clipPath id="clip0x6100016bb300"><path d="M 210.0 64.9 L 313.2 64.9 L 313.2 126.3 L 210.0 126.3 Z M 210.0 64.9 "></path></clipPath><g clip-path="url(#clip0x6100016bb300)"><text xml:space="preserve" font-family="Palatino-Roman,Palatino" font-size="30.0" fill="#6C6A66" transform="matrix(1.00, 0.00, -0.00, -1.00, 231.6, 83.6)">1</text><text xml:space="preserve" font-family="Palatino-Roman,Palatino" font-size="30.0" fill="#6C6A66" transform="matrix(1.00, 0.00, -0.00, -1.00, 246.6, 83.6)">4</text><text xml:space="preserve" font-family="Palatino-Roman,Palatino" font-size="30.0" fill="#6C6A66" transform="matrix(1.00, 0.00, -0.00, -1.00, 261.6, 83.6)">0</text><text xml:space="preserve" font-family="Palatino-Roman,Palatino" font-size="30.0" fill="#6C6A66" transform="matrix(1.00, 0.00, -0.00, -1.00, 276.6, 83.6)">0</text></g></g></g></g><image xlink:href="../../D33D0E0A-14B7-49EC-8A2B-9C2ECE828410/assets/913627B264EF6DBD8B811E88146DCE8C.png" width="64.00" height="26.00" transform="matrix(1.00, 0.00, -0.00, -1.00, 334.0, 106.0)"></image><g><clipPath id="clip0x6100016b37a0"><path d="M 0.5 314.5 L 418.5 314.5 L 418.5 1.5 L 0.5 1.5 Z M 0.5 314.5 "></path></clipPath><g clip-path="url(#clip0x6100016b37a0)"><g><clipPath id="clip0x6100016a1500"><path d="M 314.2 64.9 L 417.5 64.9 L 417.5 126.3 L 314.2 126.3 Z M 314.2 64.9 "></path></clipPath><g clip-path="url(#clip0x6100016a1500)"><text xml:space="preserve" font-family="Palatino-Roman,Palatino" font-size="30.0" fill="#6C6A66" transform="matrix(1.00, 0.00, -0.00, -1.00, 335.9, 83.6)">2</text><text xml:space="preserve" font-family="Palatino-Roman,Palatino" font-size="30.0" fill="#6C6A66" transform="matrix(1.00, 0.00, -0.00, -1.00, 350.9, 83.6)">0</text><text xml:space="preserve" font-family="Palatino-Roman,Palatino" font-size="30.0" fill="#6C6A66" transform="matrix(1.00, 0.00, -0.00, -1.00, 365.9, 83.6)">1</text><text xml:space="preserve" font-family="Palatino-Roman,Palatino" font-size="30.0" fill="#6C6A66" transform="matrix(1.00, 0.00, -0.00, -1.00, 380.9, 83.6)">4</text></g></g></g></g><image xlink:href="../../D33D0E0A-14B7-49EC-8A2B-9C2ECE828410/assets/9187DD498D7C369E2DBD33B8442E7193.png" width="18.00" height="27.00" transform="matrix(1.00, 0.00, -0.00, -1.00, 44.0, 44.0)"></image><g><clipPath id="clip0x610000ebafa0"><path d="M 0.5 314.5 L 418.5 314.5 L 418.5 1.5 L 0.5 1.5 Z M 0.5 314.5 "></path></clipPath><g clip-path="url(#clip0x610000ebafa0)"><g><clipPath id="clip0x6100018b1f40"><path d="M 1.5 2.5 L 104.8 2.5 L 104.8 63.9 L 1.5 63.9 Z M 1.5 2.5 "></path></clipPath><g clip-path="url(#clip0x6100018b1f40)"><text xml:space="preserve" font-family="Palatino-Roman,Palatino" font-size="30.0" fill="#F6F4EE" transform="matrix(1.00, 0.00, -0.00, -1.00, 45.6, 21.2)">3</text></g></g></g></g><image xlink:href="../../D33D0E0A-14B7-49EC-8A2B-9C2ECE828410/assets/F7B0A76DF0D94D3562F8B7140151C78B.png" width="48.00" height="27.00" transform="matrix(1.00, 0.00, -0.00, -1.00, 133.0, 44.0)"></image><g><clipPath id="clip0x6100016b5120"><path d="M 0.5 314.5 L 418.5 314.5 L 418.5 1.5 L 0.5 1.5 Z M 0.5 314.5 "></path></clipPath><g clip-path="url(#clip0x6100016b5120)"><g><clipPath id="clip0x6100016bd8e0"><path d="M 105.8 2.5 L 209.0 2.5 L 209.0 63.9 L 105.8 63.9 Z M 105.8 2.5 "></path></clipPath><g clip-path="url(#clip0x6100016bd8e0)"><text xml:space="preserve" font-family="Palatino-Roman,Palatino" font-size="30.0" fill="#6C6A66" transform="matrix(1.00, 0.00, -0.00, -1.00, 134.9, 21.2)">4</text><text xml:space="preserve" font-family="Palatino-Roman,Palatino" font-size="30.0" fill="#6C6A66" transform="matrix(1.00, 0.00, -0.00, -1.00, 149.9, 21.2)">8</text><text xml:space="preserve" font-family="Palatino-Roman,Palatino" font-size="30.0" fill="#6C6A66" transform="matrix(1.00, 0.00, -0.00, -1.00, 164.9, 21.2)">0</text></g></g></g></g><image xlink:href="../../D33D0E0A-14B7-49EC-8A2B-9C2ECE828410/assets/82E855CF33BD9B10EA254D21A2DE0862.png" width="62.00" height="27.00" transform="matrix(1.00, 0.00, -0.00, -1.00, 231.0, 44.0)"></image><g><clipPath id="clip0x6100016a5d60"><path d="M 0.5 314.5 L 418.5 314.5 L 418.5 1.5 L 0.5 1.5 Z M 0.5 314.5 "></path></clipPath><g clip-path="url(#clip0x6100016a5d60)"><g><clipPath id="clip0x6100018a6000"><path d="M 210.0 2.5 L 313.2 2.5 L 313.2 63.9 L 210.0 63.9 Z M 210.0 2.5 "></path></clipPath><g clip-path="url(#clip0x6100018a6000)"><text xml:space="preserve" font-family="Palatino-Roman,Palatino" font-size="30.0" fill="#6C6A66" transform="matrix(1.00, 0.00, -0.00, -1.00, 231.6, 21.2)">1</text><text xml:space="preserve" font-family="Palatino-Roman,Palatino" font-size="30.0" fill="#6C6A66" transform="matrix(1.00, 0.00, -0.00, -1.00, 246.6, 21.2)">3</text><text xml:space="preserve" font-family="Palatino-Roman,Palatino" font-size="30.0" fill="#6C6A66" transform="matrix(1.00, 0.00, -0.00, -1.00, 261.6, 21.2)">5</text><text xml:space="preserve" font-family="Palatino-Roman,Palatino" font-size="30.0" fill="#6C6A66" transform="matrix(1.00, 0.00, -0.00, -1.00, 276.6, 21.2)">5</text></g></g></g></g><image xlink:href="../../D33D0E0A-14B7-49EC-8A2B-9C2ECE828410/assets/53BF277A73B4366D6CD4D3B80B51BB35.png" width="63.00" height="27.00" transform="matrix(1.00, 0.00, -0.00, -1.00, 334.0, 44.0)"></image><g><clipPath id="clip0x6100018af240"><path d="M 0.5 314.5 L 418.5 314.5 L 418.5 1.5 L 0.5 1.5 Z M 0.5 314.5 "></path></clipPath><g clip-path="url(#clip0x6100018af240)"><g><clipPath id="clip0x6100012b4400"><path d="M 314.2 2.5 L 417.5 2.5 L 417.5 63.9 L 314.2 63.9 Z M 314.2 2.5 "></path></clipPath><g clip-path="url(#clip0x6100012b4400)"><text xml:space="preserve" font-family="Palatino-Roman,Palatino" font-size="30.0" fill="#6C6A66" transform="matrix(1.00, 0.00, -0.00, -1.00, 335.9, 21.2)">2</text><text xml:space="preserve" font-family="Palatino-Roman,Palatino" font-size="30.0" fill="#6C6A66" transform="matrix(1.00, 0.00, -0.00, -1.00, 350.9, 21.2)">0</text><text xml:space="preserve" font-family="Palatino-Roman,Palatino" font-size="30.0" fill="#6C6A66" transform="matrix(1.00, 0.00, -0.00, -1.00, 365.9, 21.2)">1</text><text xml:space="preserve" font-family="Palatino-Roman,Palatino" font-size="30.0" fill="#6C6A66" transform="matrix(1.00, 0.00, -0.00, -1.00, 380.9, 21.2)">5</text></g></g></g></g><g><clipPath id="clip0x610000eab820"><path d="M 0.5 314.5 L 418.5 314.5 L 418.5 1.5 L 0.5 1.5 Z M 0.5 314.5 "></path></clipPath><g clip-path="url(#clip0x610000eab820)"><path d="M 210.5 63.9 L 210.5 314.5 " fill="none" stroke="#7695B5" stroke-width="1.00" transform="matrix(1.00, 0.00, 0.00, -1.00, -1.0, 316.0)"></path><path d="M 314.8 63.9 L 314.8 314.5 " fill="none" stroke="#7695B5" stroke-width="1.00" transform="matrix(1.00, 0.00, 0.00, -1.00, -1.0, 316.0)"></path><path d="M 1.5 126.8 L 106.2 126.8 " fill="none" stroke="#D6D2CB" stroke-opacity="0.85" stroke-width="1.00" transform="matrix(1.00, 0.00, 0.00, -1.00, -1.0, 316.0)"></path><path d="M 106.2 126.8 L 419.5 126.8 " fill="none" stroke="#7695B5" stroke-width="1.00" transform="matrix(1.00, 0.00, 0.00, -1.00, -1.0, 316.0)"></path><path d="M 1.5 189.2 L 106.2 189.2 " fill="none" stroke="#D6D2CB" stroke-opacity="0.85" stroke-width="1.00" transform="matrix(1.00, 0.00, 0.00, -1.00, -1.0, 316.0)"></path><path d="M 106.2 189.2 L 419.5 189.2 " fill="none" stroke="#7695B5" stroke-width="1.00" transform="matrix(1.00, 0.00, 0.00, -1.00, -1.0, 316.0)"></path><path d="M 1.5 251.6 L 106.2 251.6 " fill="none" stroke="#D6D2CB" stroke-opacity="0.85" stroke-width="1.00" transform="matrix(1.00, 0.00, 0.00, -1.00, -1.0, 316.0)"></path><path d="M 106.2 251.6 L 419.5 251.6 " fill="none" stroke="#7695B5" stroke-width="1.00" transform="matrix(1.00, 0.00, 0.00, -1.00, -1.0, 316.0)"></path><path d="M 2.0 1.5 L 2.0 64.4 " fill="none" stroke="#7595B5" stroke-width="1.00" transform="matrix(1.00, 0.00, 0.00, -1.00, -1.0, 316.0)"></path><path d="M 2.0 64.4 L 2.0 314.5 " fill="none" stroke="#7595B5" stroke-width="1.00" transform="matrix(1.00, 0.00, 0.00, -1.00, -1.0, 316.0)"></path><path d="M 419.0 1.5 L 419.0 64.4 " fill="none" stroke="#7595B5" stroke-width="1.00" transform="matrix(1.00, 0.00, 0.00, -1.00, -1.0, 316.0)"></path><path d="M 419.0 64.4 L 419.0 314.5 " fill="none" stroke="#7595B5" stroke-width="1.00" transform="matrix(1.00, 0.00, 0.00, -1.00, -1.0, 316.0)"></path><path d="M 1.5 2.0 L 419.5 2.0 " fill="none" stroke="#7595B5" stroke-width="1.00" transform="matrix(1.00, 0.00, 0.00, -1.00, -1.0, 316.0)"></path><path d="M 1.5 314.0 L 106.2 314.0 " fill="none" stroke="#7595B5" stroke-width="1.00" transform="matrix(1.00, 0.00, 0.00, -1.00, -1.0, 316.0)"></path><path d="M 106.2 314.0 L 419.5 314.0 " fill="none" stroke="#7595B5" stroke-width="1.00" transform="matrix(1.00, 0.00, 0.00, -1.00, -1.0, 316.0)"></path></g></g></g></svg>