<?xml version="1.0" encoding="UTF-8" standalone="no"?><svg xmlns="http://www.w3.org/2000/svg" xmlns:xlink="http://www.w3.org/1999/xlink" clip-rule="evenodd" stroke-miterlimit="10" viewBox="0 0 1024 768"><desc>SVG generated by Keynote</desc><defs></defs><g transform="matrix(1.00, 0.00, -0.00, -1.00, 0.0, 768.0)"><g><clipPath id="clip0x6100014b72e0"><path d="M 0.0 768.0 L 1024.0 768.0 L 1024.0 0.0 L 0.0 0.0 Z M 0.0 768.0 "></path></clipPath><g clip-path="url(#clip0x6100014b72e0)"><image xlink:href="../../FD143D00-F4AD-4582-B813-3101DA54A4D8/assets/1A7A41F82ED837B88C3A4983518DB956.jpeg" width="2048.00" height="1536.00" transform="matrix(0.50, 0.00, -0.00, -0.50, 0.0, 768.0)"></image></g></g><path d="M 0.0 0.5 L 960.0 0.5 L 960.0 0.5 L 0.0 0.5 Z M 0.0 0.0 " fill="none" stroke="#7995B9" stroke-width="1.00" transform="matrix(1.00, 0.00, 0.00, -1.00, 32.0, 566.0)"></path><path d="M 0.0 0.5 L 960.0 0.5 L 960.0 0.5 L 0.0 0.5 Z M 0.0 0.0 " fill="none" stroke="#7995B9" stroke-width="1.00" transform="matrix(1.00, 0.00, 0.00, -1.00, 32.0, 562.0)"></path><text xml:space="preserve" font-family="Didot,Didot" font-size="64.0" fill="#304863" transform="matrix(1.00, 0.00, -0.00, -1.00, 32.0, 631.7)">S</text><text xml:space="preserve" font-family="Didot,Didot" font-size="64.0" fill="#304863" transform="matrix(1.00, 0.00, -0.00, -1.00, 73.4, 631.7)">e</text><text xml:space="preserve" font-family="Didot,Didot" font-size="64.0" fill="#304863" transform="matrix(1.00, 0.00, -0.00, -1.00, 104.1, 631.7)">l</text><text xml:space="preserve" font-family="Didot,Didot" font-size="64.0" fill="#304863" transform="matrix(1.00, 0.00, -0.00, -1.00, 121.8, 631.7)">e</text><text xml:space="preserve" font-family="Didot,Didot" font-size="64.0" fill="#304863" transform="matrix(1.00, 0.00, -0.00, -1.00, 152.5, 631.7)">c</text><text xml:space="preserve" font-family="Didot,Didot" font-size="64.0" fill="#304863" transform="matrix(1.00, 0.00, -0.00, -1.00, 182.0, 631.7)">t</text><text xml:space="preserve" font-family="Didot,Didot" font-size="64.0" fill="#304863" transform="matrix(1.00, 0.00, -0.00, -1.00, 202.0, 631.7)">i</text><text xml:space="preserve" font-family="Didot,Didot" font-size="64.0" fill="#304863" transform="matrix(1.00, 0.00, -0.00, -1.00, 219.7, 631.7)">n</text><text xml:space="preserve" font-family="Didot,Didot" font-size="64.0" fill="#304863" transform="matrix(1.00, 0.00, -0.00, -1.00, 257.5, 631.7)">g</text><g><clipPath id="clip0x610000cbede0"><path d="M 23.5 550.5 L 441.5 550.5 L 441.5 237.5 L 23.5 237.5 Z M 23.5 550.5 "></path></clipPath><g clip-path="url(#clip0x610000cbede0)"><g><clipPath id="clip0x6100016b3e00"><path d="M 24.0 550.0 L 128.2 550.0 L 128.2 487.6 L 24.0 487.6 Z M 24.0 550.0 "></path></clipPath><g clip-path="url(#clip0x6100016b3e00)"><image xlink:href="../../FD143D00-F4AD-4582-B813-3101DA54A4D8/assets/931714CB8B7FE16B9B80A5EAB57E0513.png" width="383.00" height="383.00" transform="matrix(0.50, 0.00, -0.00, -0.50, 24.0, 550.0)"></image></g></g></g></g><g><clipPath id="clip0x6080018a17a0"><path d="M 23.5 550.5 L 441.5 550.5 L 441.5 237.5 L 23.5 237.5 Z M 23.5 550.5 "></path></clipPath><g clip-path="url(#clip0x6080018a17a0)"><g><clipPath id="clip0x6080016b4040"><path d="M 128.2 550.0 L 232.5 550.0 L 232.5 487.6 L 128.2 487.6 Z M 128.2 550.0 "></path></clipPath><g clip-path="url(#clip0x6080016b4040)"><image xlink:href="../../FD143D00-F4AD-4582-B813-3101DA54A4D8/assets/931714CB8B7FE16B9B80A5EAB57E0513.png" width="383.00" height="383.00" transform="matrix(0.50, 0.00, -0.00, -0.50, 128.2, 550.0)"></image></g></g></g></g><g><clipPath id="clip0x6080016b2ba0"><path d="M 23.5 550.5 L 441.5 550.5 L 441.5 237.5 L 23.5 237.5 Z M 23.5 550.5 "></path></clipPath><g clip-path="url(#clip0x6080016b2ba0)"><g><clipPath id="clip0x6080016b2300"><path d="M 232.5 550.0 L 336.8 550.0 L 336.8 487.6 L 232.5 487.6 Z M 232.5 550.0 "></path></clipPath><g clip-path="url(#clip0x6080016b2300)"><image xlink:href="../../FD143D00-F4AD-4582-B813-3101DA54A4D8/assets/931714CB8B7FE16B9B80A5EAB57E0513.png" width="383.00" height="383.00" transform="matrix(0.50, 0.00, -0.00, -0.50, 232.5, 550.0)"></image></g></g></g></g><g><clipPath id="clip0x6000020a10e0"><path d="M 23.5 550.5 L 441.5 550.5 L 441.5 237.5 L 23.5 237.5 Z M 23.5 550.5 "></path></clipPath><g clip-path="url(#clip0x6000020a10e0)"><g><clipPath id="clip0x6000024b9aa0"><path d="M 336.8 550.0 L 441.0 550.0 L 441.0 487.6 L 336.8 487.6 Z M 336.8 550.0 "></path></clipPath><g clip-path="url(#clip0x6000024b9aa0)"><image xlink:href="../../FD143D00-F4AD-4582-B813-3101DA54A4D8/assets/931714CB8B7FE16B9B80A5EAB57E0513.png" width="383.00" height="383.00" transform="matrix(0.50, 0.00, -0.00, -0.50, 336.8, 550.0)"></image></g></g></g></g><g><clipPath id="clip0x6180010adaa0"><path d="M 23.5 550.5 L 441.5 550.5 L 441.5 237.5 L 23.5 237.5 Z M 23.5 550.5 "></path></clipPath><g clip-path="url(#clip0x6180010adaa0)"><g><clipPath id="clip0x6180016baa00"><path d="M 24.0 487.6 L 128.2 487.6 L 128.2 425.2 L 24.0 425.2 Z M 24.0 487.6 "></path></clipPath><g clip-path="url(#clip0x6180016baa00)"><image xlink:href="../../D42D531E-7E55-4A9D-8AE7-8A88C2D5E127/assets/57EBE3511BFC34115D601AB0F6B89EDD.png" width="383.00" height="383.00" transform="matrix(0.50, 0.00, -0.00, -0.50, 24.0, 487.6)"></image></g></g></g></g><g><clipPath id="clip0x600001cb9200"><path d="M 23.5 550.5 L 441.5 550.5 L 441.5 237.5 L 23.5 237.5 Z M 23.5 550.5 "></path></clipPath><g clip-path="url(#clip0x600001cb9200)"><g><clipPath id="clip0x6000022ab760"><path d="M 24.0 425.2 L 128.2 425.2 L 128.2 362.8 L 24.0 362.8 Z M 24.0 425.2 "></path></clipPath><g clip-path="url(#clip0x6000022ab760)"><image xlink:href="../../D42D531E-7E55-4A9D-8AE7-8A88C2D5E127/assets/57EBE3511BFC34115D601AB0F6B89EDD.png" width="383.00" height="383.00" transform="matrix(0.50, 0.00, -0.00, -0.50, 24.0, 425.2)"></image></g></g></g></g><g><clipPath id="clip0x6000022a9de0"><path d="M 23.5 550.5 L 441.5 550.5 L 441.5 237.5 L 23.5 237.5 Z M 23.5 550.5 "></path></clipPath><g clip-path="url(#clip0x6000022a9de0)"><g><clipPath id="clip0x6000020b2000"><path d="M 24.0 362.8 L 128.2 362.8 L 128.2 300.4 L 24.0 300.4 Z M 24.0 362.8 "></path></clipPath><g clip-path="url(#clip0x6000020b2000)"><image xlink:href="../../D42D531E-7E55-4A9D-8AE7-8A88C2D5E127/assets/57EBE3511BFC34115D601AB0F6B89EDD.png" width="383.00" height="383.00" transform="matrix(0.50, 0.00, -0.00, -0.50, 24.0, 362.8)"></image></g></g></g></g><g><clipPath id="clip0x600001ebb5a0"><path d="M 23.5 550.5 L 441.5 550.5 L 441.5 237.5 L 23.5 237.5 Z M 23.5 550.5 "></path></clipPath><g clip-path="url(#clip0x600001ebb5a0)"><g><clipPath id="clip0x6000020bb960"><path d="M 24.0 300.4 L 128.2 300.4 L 128.2 238.0 L 24.0 238.0 Z M 24.0 300.4 "></path></clipPath><g clip-path="url(#clip0x6000020bb960)"><image xlink:href="../../D42D531E-7E55-4A9D-8AE7-8A88C2D5E127/assets/57EBE3511BFC34115D601AB0F6B89EDD.png" width="383.00" height="383.00" transform="matrix(0.50, 0.00, -0.00, -0.50, 24.0, 300.4)"></image></g></g></g></g><image xlink:href="../../D33D0E0A-14B7-49EC-8A2B-9C2ECE828410/assets/E15B16236FDF3C140129F18BC167A16D.png" width="96.00" height="30.00" transform="matrix(1.00, 0.00, -0.00, -1.00, 132.0, 529.0)"></image><g><clipPath id="clip0x6080014af0c0"><path d="M 23.5 550.5 L 441.5 550.5 L 441.5 237.5 L 23.5 237.5 Z M 23.5 550.5 "></path></clipPath><g clip-path="url(#clip0x6080014af0c0)"><g><clipPath id="clip0x608000eaf660"><path d="M 128.2 488.1 L 232.5 488.1 L 232.5 549.5 L 128.2 549.5 Z M 128.2 488.1 "></path></clipPath><g clip-path="url(#clip0x608000eaf660)"><text xml:space="preserve" font-family="Palatino-Roman,Palatino" font-size="30.0" fill="#F6F4EE" transform="matrix(1.00, 0.00, -0.00, -1.00, 133.1, 506.8)">s</text><text xml:space="preserve" font-family="Palatino-Roman,Palatino" font-size="30.0" fill="#F6F4EE" transform="matrix(1.00, 0.00, -0.00, -1.00, 145.8, 506.8)">t</text><text xml:space="preserve" font-family="Palatino-Roman,Palatino" font-size="30.0" fill="#F6F4EE" transform="matrix(1.00, 0.00, -0.00, -1.00, 155.6, 506.8)">o</text><text xml:space="preserve" font-family="Palatino-Roman,Palatino" font-size="30.0" fill="#F6F4EE" transform="matrix(1.00, 0.00, -0.00, -1.00, 172.0, 506.8)">r</text><text xml:space="preserve" font-family="Palatino-Roman,Palatino" font-size="30.0" fill="#F6F4EE" transform="matrix(1.00, 0.00, -0.00, -1.00, 183.3, 506.8)">e</text><text xml:space="preserve" font-family="Palatino-Roman,Palatino" font-size="30.0" fill="#F6F4EE" transform="matrix(1.00, 0.00, -0.00, -1.00, 197.7, 506.8)">_</text><text xml:space="preserve" font-family="Palatino-Roman,Palatino" font-size="30.0" fill="#F6F4EE" transform="matrix(1.00, 0.00, -0.00, -1.00, 212.7, 506.8)">1</text></g></g></g></g><image xlink:href="../../D33D0E0A-14B7-49EC-8A2B-9C2ECE828410/assets/7B49A895414E2865F20E360E28578BEA.png" width="97.00" height="30.00" transform="matrix(1.00, 0.00, -0.00, -1.00, 236.0, 529.0)"></image><g><clipPath id="clip0x6080012a4c80"><path d="M 23.5 550.5 L 441.5 550.5 L 441.5 237.5 L 23.5 237.5 Z M 23.5 550.5 "></path></clipPath><g clip-path="url(#clip0x6080012a4c80)"><g><clipPath id="clip0x6080018a1f80"><path d="M 232.5 488.1 L 336.8 488.1 L 336.8 549.5 L 232.5 549.5 Z M 232.5 488.1 "></path></clipPath><g clip-path="url(#clip0x6080018a1f80)"><text xml:space="preserve" font-family="Palatino-Roman,Palatino" font-size="30.0" fill="#F6F4EE" transform="matrix(1.00, 0.00, -0.00, -1.00, 237.3, 506.8)">s</text><text xml:space="preserve" font-family="Palatino-Roman,Palatino" font-size="30.0" fill="#F6F4EE" transform="matrix(1.00, 0.00, -0.00, -1.00, 250.0, 506.8)">t</text><text xml:space="preserve" font-family="Palatino-Roman,Palatino" font-size="30.0" fill="#F6F4EE" transform="matrix(1.00, 0.00, -0.00, -1.00, 259.8, 506.8)">o</text><text xml:space="preserve" font-family="Palatino-Roman,Palatino" font-size="30.0" fill="#F6F4EE" transform="matrix(1.00, 0.00, -0.00, -1.00, 276.2, 506.8)">r</text><text xml:space="preserve" font-family="Palatino-Roman,Palatino" font-size="30.0" fill="#F6F4EE" transform="matrix(1.00, 0.00, -0.00, -1.00, 287.5, 506.8)">e</text><text xml:space="preserve" font-family="Palatino-Roman,Palatino" font-size="30.0" fill="#F6F4EE" transform="matrix(1.00, 0.00, -0.00, -1.00, 301.9, 506.8)">_</text><text xml:space="preserve" font-family="Palatino-Roman,Palatino" font-size="30.0" fill="#F6F4EE" transform="matrix(1.00, 0.00, -0.00, -1.00, 316.9, 506.8)">2</text></g></g></g></g><image xlink:href="../../D33D0E0A-14B7-49EC-8A2B-9C2ECE828410/assets/41571D24D41B57B1FFC15D8BDD66242E.png" width="62.00" height="27.00" transform="matrix(1.00, 0.00, -0.00, -1.00, 357.0, 522.0)"></image><g><clipPath id="clip0x6080016be660"><path d="M 23.5 550.5 L 441.5 550.5 L 441.5 237.5 L 23.5 237.5 Z M 23.5 550.5 "></path></clipPath><g clip-path="url(#clip0x6080016be660)"><g><clipPath id="clip0x6080016b1a60"><path d="M 336.8 488.1 L 440.5 488.1 L 440.5 549.5 L 336.8 549.5 Z M 336.8 488.1 "></path></clipPath><g clip-path="url(#clip0x6080016b1a60)"><text xml:space="preserve" font-family="Palatino-Roman,Palatino" font-size="30.0" fill="#F6F4EE" transform="matrix(1.00, 0.00, -0.00, -1.00, 359.7, 506.8)">y</text><text xml:space="preserve" font-family="Palatino-Roman,Palatino" font-size="30.0" fill="#F6F4EE" transform="matrix(1.00, 0.00, -0.00, -1.00, 376.4, 506.8)">e</text><text xml:space="preserve" font-family="Palatino-Roman,Palatino" font-size="30.0" fill="#F6F4EE" transform="matrix(1.00, 0.00, -0.00, -1.00, 390.7, 506.8)">a</text><text xml:space="preserve" font-family="Palatino-Roman,Palatino" font-size="30.0" fill="#F6F4EE" transform="matrix(1.00, 0.00, -0.00, -1.00, 405.7, 506.8)">r</text></g></g></g></g><image xlink:href="../../D33D0E0A-14B7-49EC-8A2B-9C2ECE828410/assets/BD677D6E938ADFB63791F4ECDAF6E3E4.png" width="18.00" height="27.00" transform="matrix(1.00, 0.00, -0.00, -1.00, 67.0, 467.0)"></image><g><clipPath id="clip0x6080016b24e0"><path d="M 23.5 550.5 L 441.5 550.5 L 441.5 237.5 L 23.5 237.5 Z M 23.5 550.5 "></path></clipPath><g clip-path="url(#clip0x6080016b24e0)"><g><clipPath id="clip0x6080016a01e0"><path d="M 24.5 425.7 L 127.8 425.7 L 127.8 487.1 L 24.5 487.1 Z M 24.5 425.7 "></path></clipPath><g clip-path="url(#clip0x6080016a01e0)"><text xml:space="preserve" font-family="Palatino-Roman,Palatino" font-size="30.0" fill="#F6F4EE" transform="matrix(1.00, 0.00, -0.00, -1.00, 68.6, 444.4)">0</text></g></g></g></g><image xlink:href="../../D33D0E0A-14B7-49EC-8A2B-9C2ECE828410/assets/EE37FA12EF63EA1E094FF0BBA5971D8E.png" width="49.00" height="27.00" transform="matrix(1.00, 0.00, -0.00, -1.00, 156.0, 467.0)"></image><g><clipPath id="clip0x6080016bf560"><path d="M 23.5 550.5 L 441.5 550.5 L 441.5 237.5 L 23.5 237.5 Z M 23.5 550.5 "></path></clipPath><g clip-path="url(#clip0x6080016bf560)"><g><clipPath id="clip0x6080016a43e0"><path d="M 128.8 425.7 L 232.0 425.7 L 232.0 487.1 L 128.8 487.1 Z M 128.8 425.7 "></path></clipPath><g clip-path="url(#clip0x6080016a43e0)"><text xml:space="preserve" font-family="Palatino-Roman,Palatino" font-size="30.0" fill="#6C6A66" transform="matrix(1.00, 0.00, -0.00, -1.00, 157.9, 444.4)">5</text><text xml:space="preserve" font-family="Palatino-Roman,Palatino" font-size="30.0" fill="#6C6A66" transform="matrix(1.00, 0.00, -0.00, -1.00, 172.9, 444.4)">8</text><text xml:space="preserve" font-family="Palatino-Roman,Palatino" font-size="30.0" fill="#6C6A66" transform="matrix(1.00, 0.00, -0.00, -1.00, 187.9, 444.4)">4</text></g></g></g></g><image xlink:href="../../D33D0E0A-14B7-49EC-8A2B-9C2ECE828410/assets/7DBF524727248ABE2069A2528CDA9318.png" width="62.00" height="27.00" transform="matrix(1.00, 0.00, -0.00, -1.00, 254.0, 467.0)"></image><g><clipPath id="clip0x6080016a9d80"><path d="M 23.5 550.5 L 441.5 550.5 L 441.5 237.5 L 23.5 237.5 Z M 23.5 550.5 "></path></clipPath><g clip-path="url(#clip0x6080016a9d80)"><g><clipPath id="clip0x6080016abac0"><path d="M 233.0 425.7 L 336.2 425.7 L 336.2 487.1 L 233.0 487.1 Z M 233.0 425.7 "></path></clipPath><g clip-path="url(#clip0x6080016abac0)"><text xml:space="preserve" font-family="Palatino-Roman,Palatino" font-size="30.0" fill="#6C6A66" transform="matrix(1.00, 0.00, -0.00, -1.00, 254.6, 444.4)">1</text><text xml:space="preserve" font-family="Palatino-Roman,Palatino" font-size="30.0" fill="#6C6A66" transform="matrix(1.00, 0.00, -0.00, -1.00, 269.6, 444.4)">0</text><text xml:space="preserve" font-family="Palatino-Roman,Palatino" font-size="30.0" fill="#6C6A66" transform="matrix(1.00, 0.00, -0.00, -1.00, 284.6, 444.4)">3</text><text xml:space="preserve" font-family="Palatino-Roman,Palatino" font-size="30.0" fill="#6C6A66" transform="matrix(1.00, 0.00, -0.00, -1.00, 299.6, 444.4)">2</text></g></g></g></g><image xlink:href="../../D33D0E0A-14B7-49EC-8A2B-9C2ECE828410/assets/A0F8CDBE58042245B20B91E9A01F8C54.png" width="63.00" height="27.00" transform="matrix(1.00, 0.00, -0.00, -1.00, 357.0, 467.0)"></image><g><clipPath id="clip0x6080014aff60"><path d="M 23.5 550.5 L 441.5 550.5 L 441.5 237.5 L 23.5 237.5 Z M 23.5 550.5 "></path></clipPath><g clip-path="url(#clip0x6080014aff60)"><g><clipPath id="clip0x6080016a8be0"><path d="M 337.2 425.7 L 440.5 425.7 L 440.5 487.1 L 337.2 487.1 Z M 337.2 425.7 "></path></clipPath><g clip-path="url(#clip0x6080016a8be0)"><text xml:space="preserve" font-family="Palatino-Roman,Palatino" font-size="30.0" fill="#6C6A66" transform="matrix(1.00, 0.00, -0.00, -1.00, 358.9, 444.4)">2</text><text xml:space="preserve" font-family="Palatino-Roman,Palatino" font-size="30.0" fill="#6C6A66" transform="matrix(1.00, 0.00, -0.00, -1.00, 373.9, 444.4)">0</text><text xml:space="preserve" font-family="Palatino-Roman,Palatino" font-size="30.0" fill="#6C6A66" transform="matrix(1.00, 0.00, -0.00, -1.00, 388.9, 444.4)">1</text><text xml:space="preserve" font-family="Palatino-Roman,Palatino" font-size="30.0" fill="#6C6A66" transform="matrix(1.00, 0.00, -0.00, -1.00, 403.9, 444.4)">2</text></g></g></g></g><image xlink:href="../../D33D0E0A-14B7-49EC-8A2B-9C2ECE828410/assets/F95100B0F8446BFE286DF83C1D9C2573.png" width="16.00" height="25.00" transform="matrix(1.00, 0.00, -0.00, -1.00, 68.0, 404.0)"></image><g><clipPath id="clip0x6080010ba0a0"><path d="M 23.5 550.5 L 441.5 550.5 L 441.5 237.5 L 23.5 237.5 Z M 23.5 550.5 "></path></clipPath><g clip-path="url(#clip0x6080010ba0a0)"><g><clipPath id="clip0x6080012a7b60"><path d="M 24.5 363.3 L 127.8 363.3 L 127.8 424.7 L 24.5 424.7 Z M 24.5 363.3 "></path></clipPath><g clip-path="url(#clip0x6080012a7b60)"><text xml:space="preserve" font-family="Palatino-Roman,Palatino" font-size="30.0" fill="#F6F4EE" transform="matrix(1.00, 0.00, -0.00, -1.00, 68.6, 382.0)">1</text></g></g></g></g><image xlink:href="../../D33D0E0A-14B7-49EC-8A2B-9C2ECE828410/assets/11686EB1D13D48F8E0E80DF17B38F7C4.png" width="47.00" height="26.00" transform="matrix(1.00, 0.00, -0.00, -1.00, 156.0, 404.0)"></image><g><clipPath id="clip0x6080012a4c20"><path d="M 23.5 550.5 L 441.5 550.5 L 441.5 237.5 L 23.5 237.5 Z M 23.5 550.5 "></path></clipPath><g clip-path="url(#clip0x6080012a4c20)"><g><clipPath id="clip0x6080004a1da0"><path d="M 128.8 363.3 L 232.0 363.3 L 232.0 424.7 L 128.8 424.7 Z M 128.8 363.3 "></path></clipPath><g clip-path="url(#clip0x6080004a1da0)"><text xml:space="preserve" font-family="Palatino-Roman,Palatino" font-size="30.0" fill="#6C6A66" transform="matrix(1.00, 0.00, -0.00, -1.00, 157.9, 382.0)">6</text><text xml:space="preserve" font-family="Palatino-Roman,Palatino" font-size="30.0" fill="#6C6A66" transform="matrix(1.00, 0.00, -0.00, -1.00, 172.9, 382.0)">0</text><text xml:space="preserve" font-family="Palatino-Roman,Palatino" font-size="30.0" fill="#6C6A66" transform="matrix(1.00, 0.00, -0.00, -1.00, 187.9, 382.0)">1</text></g></g></g></g><image xlink:href="../../D33D0E0A-14B7-49EC-8A2B-9C2ECE828410/assets/190B08630545F517DAD9520023C30035.png" width="49.00" height="26.00" transform="matrix(1.00, 0.00, -0.00, -1.00, 260.0, 404.0)"></image><g><clipPath id="clip0x6080006b23c0"><path d="M 23.5 550.5 L 441.5 550.5 L 441.5 237.5 L 23.5 237.5 Z M 23.5 550.5 "></path></clipPath><g clip-path="url(#clip0x6080006b23c0)"><g><clipPath id="clip0x6080014ac9c0"><path d="M 233.0 363.3 L 336.2 363.3 L 336.2 424.7 L 233.0 424.7 Z M 233.0 363.3 "></path></clipPath><g clip-path="url(#clip0x6080014ac9c0)"><text xml:space="preserve" font-family="Palatino-Roman,Palatino" font-size="30.0" fill="#6C6A66" transform="matrix(1.00, 0.00, -0.00, -1.00, 262.1, 382.0)">9</text><text xml:space="preserve" font-family="Palatino-Roman,Palatino" font-size="30.0" fill="#6C6A66" transform="matrix(1.00, 0.00, -0.00, -1.00, 277.1, 382.0)">6</text><text xml:space="preserve" font-family="Palatino-Roman,Palatino" font-size="30.0" fill="#6C6A66" transform="matrix(1.00, 0.00, -0.00, -1.00, 292.1, 382.0)">0</text></g></g></g></g><image xlink:href="../../D33D0E0A-14B7-49EC-8A2B-9C2ECE828410/assets/C76CC4281D5565C84E2AA71BA584E37C.png" width="63.00" height="26.00" transform="matrix(1.00, 0.00, -0.00, -1.00, 357.0, 404.0)"></image><g><clipPath id="clip0x6080018a18c0"><path d="M 23.5 550.5 L 441.5 550.5 L 441.5 237.5 L 23.5 237.5 Z M 23.5 550.5 "></path></clipPath><g clip-path="url(#clip0x6080018a18c0)"><g><clipPath id="clip0x6080014b2600"><path d="M 337.2 363.3 L 440.5 363.3 L 440.5 424.7 L 337.2 424.7 Z M 337.2 363.3 "></path></clipPath><g clip-path="url(#clip0x6080014b2600)"><text xml:space="preserve" font-family="Palatino-Roman,Palatino" font-size="30.0" fill="#6C6A66" transform="matrix(1.00, 0.00, -0.00, -1.00, 358.9, 382.0)">2</text><text xml:space="preserve" font-family="Palatino-Roman,Palatino" font-size="30.0" fill="#6C6A66" transform="matrix(1.00, 0.00, -0.00, -1.00, 373.9, 382.0)">0</text><text xml:space="preserve" font-family="Palatino-Roman,Palatino" font-size="30.0" fill="#6C6A66" transform="matrix(1.00, 0.00, -0.00, -1.00, 388.9, 382.0)">1</text><text xml:space="preserve" font-family="Palatino-Roman,Palatino" font-size="30.0" fill="#6C6A66" transform="matrix(1.00, 0.00, -0.00, -1.00, 403.9, 382.0)">3</text></g></g></g></g><image xlink:href="../../D33D0E0A-14B7-49EC-8A2B-9C2ECE828410/assets/51FEE3FCF3830CF4F883E6D91C91AE65.png" width="18.00" height="26.00" transform="matrix(1.00, 0.00, -0.00, -1.00, 67.0, 342.0)"></image><g><clipPath id="clip0x608000eb7a60"><path d="M 23.5 550.5 L 441.5 550.5 L 441.5 237.5 L 23.5 237.5 Z M 23.5 550.5 "></path></clipPath><g clip-path="url(#clip0x608000eb7a60)"><g><clipPath id="clip0x6080016acb40"><path d="M 24.5 300.9 L 127.8 300.9 L 127.8 362.3 L 24.5 362.3 Z M 24.5 300.9 "></path></clipPath><g clip-path="url(#clip0x6080016acb40)"><text xml:space="preserve" font-family="Palatino-Roman,Palatino" font-size="30.0" fill="#F6F4EE" transform="matrix(1.00, 0.00, -0.00, -1.00, 68.6, 319.6)">2</text></g></g></g></g><image xlink:href="../../D33D0E0A-14B7-49EC-8A2B-9C2ECE828410/assets/26A59619A78414849EEF2E091B0CC85E.png" width="48.00" height="26.00" transform="matrix(1.00, 0.00, -0.00, -1.00, 156.0, 342.0)"></image><g><clipPath id="clip0x608000eb8900"><path d="M 23.5 550.5 L 441.5 550.5 L 441.5 237.5 L 23.5 237.5 Z M 23.5 550.5 "></path></clipPath><g clip-path="url(#clip0x608000eb8900)"><g><clipPath id="clip0x6080012b6e00"><path d="M 128.8 300.9 L 232.0 300.9 L 232.0 362.3 L 128.8 362.3 Z M 128.8 300.9 "></path></clipPath><g clip-path="url(#clip0x6080012b6e00)"><text xml:space="preserve" font-family="Palatino-Roman,Palatino" font-size="30.0" fill="#6C6A66" transform="matrix(1.00, 0.00, -0.00, -1.00, 157.9, 319.6)">4</text><text xml:space="preserve" font-family="Palatino-Roman,Palatino" font-size="30.0" fill="#6C6A66" transform="matrix(1.00, 0.00, -0.00, -1.00, 172.9, 319.6)">0</text><text xml:space="preserve" font-family="Palatino-Roman,Palatino" font-size="30.0" fill="#6C6A66" transform="matrix(1.00, 0.00, -0.00, -1.00, 187.9, 319.6)">3</text></g></g></g></g><image xlink:href="../../D33D0E0A-14B7-49EC-8A2B-9C2ECE828410/assets/0BA59842AA7BAAF40019B7B6CCEF2397.png" width="62.00" height="26.00" transform="matrix(1.00, 0.00, -0.00, -1.00, 254.0, 342.0)"></image><g><clipPath id="clip0x6080016bcd40"><path d="M 23.5 550.5 L 441.5 550.5 L 441.5 237.5 L 23.5 237.5 Z M 23.5 550.5 "></path></clipPath><g clip-path="url(#clip0x6080016bcd40)"><g><clipPath id="clip0x6080010b4be0"><path d="M 233.0 300.9 L 336.2 300.9 L 336.2 362.3 L 233.0 362.3 Z M 233.0 300.9 "></path></clipPath><g clip-path="url(#clip0x6080010b4be0)"><text xml:space="preserve" font-family="Palatino-Roman,Palatino" font-size="30.0" fill="#6C6A66" transform="matrix(1.00, 0.00, -0.00, -1.00, 254.6, 319.6)">1</text><text xml:space="preserve" font-family="Palatino-Roman,Palatino" font-size="30.0" fill="#6C6A66" transform="matrix(1.00, 0.00, -0.00, -1.00, 269.6, 319.6)">4</text><text xml:space="preserve" font-family="Palatino-Roman,Palatino" font-size="30.0" fill="#6C6A66" transform="matrix(1.00, 0.00, -0.00, -1.00, 284.6, 319.6)">0</text><text xml:space="preserve" font-family="Palatino-Roman,Palatino" font-size="30.0" fill="#6C6A66" transform="matrix(1.00, 0.00, -0.00, -1.00, 299.6, 319.6)">0</text></g></g></g></g><image xlink:href="../../D33D0E0A-14B7-49EC-8A2B-9C2ECE828410/assets/913627B264EF6DBD8B811E88146DCE8C.png" width="64.00" height="26.00" transform="matrix(1.00, 0.00, -0.00, -1.00, 357.0, 342.0)"></image><g><clipPath id="clip0x6080016a5dc0"><path d="M 23.5 550.5 L 441.5 550.5 L 441.5 237.5 L 23.5 237.5 Z M 23.5 550.5 "></path></clipPath><g clip-path="url(#clip0x6080016a5dc0)"><g><clipPath id="clip0x6080016a31e0"><path d="M 337.2 300.9 L 440.5 300.9 L 440.5 362.3 L 337.2 362.3 Z M 337.2 300.9 "></path></clipPath><g clip-path="url(#clip0x6080016a31e0)"><text xml:space="preserve" font-family="Palatino-Roman,Palatino" font-size="30.0" fill="#6C6A66" transform="matrix(1.00, 0.00, -0.00, -1.00, 358.9, 319.6)">2</text><text xml:space="preserve" font-family="Palatino-Roman,Palatino" font-size="30.0" fill="#6C6A66" transform="matrix(1.00, 0.00, -0.00, -1.00, 373.9, 319.6)">0</text><text xml:space="preserve" font-family="Palatino-Roman,Palatino" font-size="30.0" fill="#6C6A66" transform="matrix(1.00, 0.00, -0.00, -1.00, 388.9, 319.6)">1</text><text xml:space="preserve" font-family="Palatino-Roman,Palatino" font-size="30.0" fill="#6C6A66" transform="matrix(1.00, 0.00, -0.00, -1.00, 403.9, 319.6)">4</text></g></g></g></g><image xlink:href="../../D33D0E0A-14B7-49EC-8A2B-9C2ECE828410/assets/9187DD498D7C369E2DBD33B8442E7193.png" width="18.00" height="27.00" transform="matrix(1.00, 0.00, -0.00, -1.00, 67.0, 280.0)"></image><g><clipPath id="clip0x6080012b58a0"><path d="M 23.5 550.5 L 441.5 550.5 L 441.5 237.5 L 23.5 237.5 Z M 23.5 550.5 "></path></clipPath><g clip-path="url(#clip0x6080012b58a0)"><g><clipPath id="clip0x608000cb8a80"><path d="M 24.5 238.5 L 127.8 238.5 L 127.8 299.9 L 24.5 299.9 Z M 24.5 238.5 "></path></clipPath><g clip-path="url(#clip0x608000cb8a80)"><text xml:space="preserve" font-family="Palatino-Roman,Palatino" font-size="30.0" fill="#F6F4EE" transform="matrix(1.00, 0.00, -0.00, -1.00, 68.6, 257.2)">3</text></g></g></g></g><image xlink:href="../../D33D0E0A-14B7-49EC-8A2B-9C2ECE828410/assets/F7B0A76DF0D94D3562F8B7140151C78B.png" width="48.00" height="27.00" transform="matrix(1.00, 0.00, -0.00, -1.00, 156.0, 280.0)"></image><g><clipPath id="clip0x608000eabd00"><path d="M 23.5 550.5 L 441.5 550.5 L 441.5 237.5 L 23.5 237.5 Z M 23.5 550.5 "></path></clipPath><g clip-path="url(#clip0x608000eabd00)"><g><clipPath id="clip0x6080016a82e0"><path d="M 128.8 238.5 L 232.0 238.5 L 232.0 299.9 L 128.8 299.9 Z M 128.8 238.5 "></path></clipPath><g clip-path="url(#clip0x6080016a82e0)"><text xml:space="preserve" font-family="Palatino-Roman,Palatino" font-size="30.0" fill="#6C6A66" transform="matrix(1.00, 0.00, -0.00, -1.00, 157.9, 257.2)">4</text><text xml:space="preserve" font-family="Palatino-Roman,Palatino" font-size="30.0" fill="#6C6A66" transform="matrix(1.00, 0.00, -0.00, -1.00, 172.9, 257.2)">8</text><text xml:space="preserve" font-family="Palatino-Roman,Palatino" font-size="30.0" fill="#6C6A66" transform="matrix(1.00, 0.00, -0.00, -1.00, 187.9, 257.2)">0</text></g></g></g></g><image xlink:href="../../D33D0E0A-14B7-49EC-8A2B-9C2ECE828410/assets/82E855CF33BD9B10EA254D21A2DE0862.png" width="62.00" height="27.00" transform="matrix(1.00, 0.00, -0.00, -1.00, 254.0, 280.0)"></image><g><clipPath id="clip0x6080012a0840"><path d="M 23.5 550.5 L 441.5 550.5 L 441.5 237.5 L 23.5 237.5 Z M 23.5 550.5 "></path></clipPath><g clip-path="url(#clip0x6080012a0840)"><g><clipPath id="clip0x608000ab66e0"><path d="M 233.0 238.5 L 336.2 238.5 L 336.2 299.9 L 233.0 299.9 Z M 233.0 238.5 "></path></clipPath><g clip-path="url(#clip0x608000ab66e0)"><text xml:space="preserve" font-family="Palatino-Roman,Palatino" font-size="30.0" fill="#6C6A66" transform="matrix(1.00, 0.00, -0.00, -1.00, 254.6, 257.2)">1</text><text xml:space="preserve" font-family="Palatino-Roman,Palatino" font-size="30.0" fill="#6C6A66" transform="matrix(1.00, 0.00, -0.00, -1.00, 269.6, 257.2)">3</text><text xml:space="preserve" font-family="Palatino-Roman,Palatino" font-size="30.0" fill="#6C6A66" transform="matrix(1.00, 0.00, -0.00, -1.00, 284.6, 257.2)">5</text><text xml:space="preserve" font-family="Palatino-Roman,Palatino" font-size="30.0" fill="#6C6A66" transform="matrix(1.00, 0.00, -0.00, -1.00, 299.6, 257.2)">5</text></g></g></g></g><image xlink:href="../../D33D0E0A-14B7-49EC-8A2B-9C2ECE828410/assets/53BF277A73B4366D6CD4D3B80B51BB35.png" width="63.00" height="27.00" transform="matrix(1.00, 0.00, -0.00, -1.00, 357.0, 280.0)"></image><g><clipPath id="clip0x6080006b57e0"><path d="M 23.5 550.5 L 441.5 550.5 L 441.5 237.5 L 23.5 237.5 Z M 23.5 550.5 "></path></clipPath><g clip-path="url(#clip0x6080006b57e0)"><g><clipPath id="clip0x6080016becc0"><path d="M 337.2 238.5 L 440.5 238.5 L 440.5 299.9 L 337.2 299.9 Z M 337.2 238.5 "></path></clipPath><g clip-path="url(#clip0x6080016becc0)"><text xml:space="preserve" font-family="Palatino-Roman,Palatino" font-size="30.0" fill="#6C6A66" transform="matrix(1.00, 0.00, -0.00, -1.00, 358.9, 257.2)">2</text><text xml:space="preserve" font-family="Palatino-Roman,Palatino" font-size="30.0" fill="#6C6A66" transform="matrix(1.00, 0.00, -0.00, -1.00, 373.9, 257.2)">0</text><text xml:space="preserve" font-family="Palatino-Roman,Palatino" font-size="30.0" fill="#6C6A66" transform="matrix(1.00, 0.00, -0.00, -1.00, 388.9, 257.2)">1</text><text xml:space="preserve" font-family="Palatino-Roman,Palatino" font-size="30.0" fill="#6C6A66" transform="matrix(1.00, 0.00, -0.00, -1.00, 403.9, 257.2)">5</text></g></g></g></g><g><clipPath id="clip0x6080016a2040"><path d="M 23.5 550.5 L 441.5 550.5 L 441.5 237.5 L 23.5 237.5 Z M 23.5 550.5 "></path></clipPath><g clip-path="url(#clip0x6080016a2040)"><path d="M 210.5 63.9 L 210.5 314.5 " fill="none" stroke="#7695B5" stroke-width="1.00" transform="matrix(1.00, 0.00, 0.00, -1.00, 22.0, 552.0)"></path><path d="M 314.8 63.9 L 314.8 314.5 " fill="none" stroke="#7695B5" stroke-width="1.00" transform="matrix(1.00, 0.00, 0.00, -1.00, 22.0, 552.0)"></path><path d="M 1.5 126.8 L 106.2 126.8 " fill="none" stroke="#D6D2CB" stroke-opacity="0.85" stroke-width="1.00" transform="matrix(1.00, 0.00, 0.00, -1.00, 22.0, 552.0)"></path><path d="M 106.2 126.8 L 419.5 126.8 " fill="none" stroke="#7695B5" stroke-width="1.00" transform="matrix(1.00, 0.00, 0.00, -1.00, 22.0, 552.0)"></path><path d="M 1.5 189.2 L 106.2 189.2 " fill="none" stroke="#D6D2CB" stroke-opacity="0.85" stroke-width="1.00" transform="matrix(1.00, 0.00, 0.00, -1.00, 22.0, 552.0)"></path><path d="M 106.2 189.2 L 419.5 189.2 " fill="none" stroke="#7695B5" stroke-width="1.00" transform="matrix(1.00, 0.00, 0.00, -1.00, 22.0, 552.0)"></path><path d="M 1.5 251.6 L 106.2 251.6 " fill="none" stroke="#D6D2CB" stroke-opacity="0.85" stroke-width="1.00" transform="matrix(1.00, 0.00, 0.00, -1.00, 22.0, 552.0)"></path><path d="M 106.2 251.6 L 419.5 251.6 " fill="none" stroke="#7695B5" stroke-width="1.00" transform="matrix(1.00, 0.00, 0.00, -1.00, 22.0, 552.0)"></path><path d="M 2.0 1.5 L 2.0 64.4 " fill="none" stroke="#7595B5" stroke-width="1.00" transform="matrix(1.00, 0.00, 0.00, -1.00, 22.0, 552.0)"></path><path d="M 2.0 64.4 L 2.0 314.5 " fill="none" stroke="#7595B5" stroke-width="1.00" transform="matrix(1.00, 0.00, 0.00, -1.00, 22.0, 552.0)"></path><path d="M 419.0 1.5 L 419.0 64.4 " fill="none" stroke="#7595B5" stroke-width="1.00" transform="matrix(1.00, 0.00, 0.00, -1.00, 22.0, 552.0)"></path><path d="M 419.0 64.4 L 419.0 314.5 " fill="none" stroke="#7595B5" stroke-width="1.00" transform="matrix(1.00, 0.00, 0.00, -1.00, 22.0, 552.0)"></path><path d="M 1.5 2.0 L 419.5 2.0 " fill="none" stroke="#7595B5" stroke-width="1.00" transform="matrix(1.00, 0.00, 0.00, -1.00, 22.0, 552.0)"></path><path d="M 1.5 314.0 L 106.2 314.0 " fill="none" stroke="#7595B5" stroke-width="1.00" transform="matrix(1.00, 0.00, 0.00, -1.00, 22.0, 552.0)"></path><path d="M 106.2 314.0 L 419.5 314.0 " fill="none" stroke="#7595B5" stroke-width="1.00" transform="matrix(1.00, 0.00, 0.00, -1.00, 22.0, 552.0)"></path></g></g></g></svg>