<?xml version="1.0" encoding="UTF-8" standalone="no"?><svg xmlns="http://www.w3.org/2000/svg" xmlns:xlink="http://www.w3.org/1999/xlink" clip-rule="evenodd" stroke-miterlimit="10" viewBox="0 0 1024 768"><desc>SVG generated by Keynote</desc><defs></defs><g transform="matrix(1.00, 0.00, -0.00, -1.00, 0.0, 768.0)"><g><clipPath id="clip0x6180018b2120"><path d="M 0.0 768.0 L 1024.0 768.0 L 1024.0 0.0 L 0.0 0.0 Z M 0.0 768.0 "></path></clipPath><g clip-path="url(#clip0x6180018b2120)"><image xlink:href="../../FD143D00-F4AD-4582-B813-3101DA54A4D8/assets/1A7A41F82ED837B88C3A4983518DB956.jpeg" width="2048.00" height="1536.00" transform="matrix(0.50, 0.00, -0.00, -0.50, 0.0, 768.0)"></image></g></g><path d="M 0.0 0.5 L 960.0 0.5 L 960.0 0.5 L 0.0 0.5 Z M 0.0 0.0 " fill="none" stroke="#7995B9" stroke-width="1.00" transform="matrix(1.00, 0.00, 0.00, -1.00, 32.0, 566.0)"></path><path d="M 0.0 0.5 L 960.0 0.5 L 960.0 0.5 L 0.0 0.5 Z M 0.0 0.0 " fill="none" stroke="#7995B9" stroke-width="1.00" transform="matrix(1.00, 0.00, 0.00, -1.00, 32.0, 562.0)"></path><text xml:space="preserve" font-family="Didot,Didot" font-size="64.0" fill="#304863" transform="matrix(1.00, 0.00, -0.00, -1.00, 32.0, 631.7)">C</text><text xml:space="preserve" font-family="Didot,Didot" font-size="64.0" fill="#304863" transform="matrix(1.00, 0.00, -0.00, -1.00, 76.9, 631.7)">r</text><text xml:space="preserve" font-family="Didot,Didot" font-size="64.0" fill="#304863" transform="matrix(1.00, 0.00, -0.00, -1.00, 101.7, 631.7)">e</text><text xml:space="preserve" font-family="Didot,Didot" font-size="64.0" fill="#304863" transform="matrix(1.00, 0.00, -0.00, -1.00, 132.4, 631.7)">a</text><text xml:space="preserve" font-family="Didot,Didot" font-size="64.0" fill="#304863" transform="matrix(1.00, 0.00, -0.00, -1.00, 161.9, 631.7)">t</text><text xml:space="preserve" font-family="Didot,Didot" font-size="64.0" fill="#304863" transform="matrix(1.00, 0.00, -0.00, -1.00, 182.0, 631.7)">i</text><text xml:space="preserve" font-family="Didot,Didot" font-size="64.0" fill="#304863" transform="matrix(1.00, 0.00, -0.00, -1.00, 199.6, 631.7)">n</text><text xml:space="preserve" font-family="Didot,Didot" font-size="64.0" fill="#304863" transform="matrix(1.00, 0.00, -0.00, -1.00, 237.4, 631.7)">g</text><text xml:space="preserve" font-family="Didot,Didot" font-size="64.0" fill="#304863" transform="matrix(1.00, 0.00, -0.00, -1.00, 269.4, 631.7)"> </text><text xml:space="preserve" font-family="Didot,Didot" font-size="64.0" fill="#304863" transform="matrix(1.00, 0.00, -0.00, -1.00, 285.9, 631.7)">d</text><text xml:space="preserve" font-family="Didot,Didot" font-size="64.0" fill="#304863" transform="matrix(1.00, 0.00, -0.00, -1.00, 322.6, 631.7)">a</text><text xml:space="preserve" font-family="Didot,Didot" font-size="64.0" fill="#304863" transform="matrix(1.00, 0.00, -0.00, -1.00, 352.1, 631.7)">t</text><text xml:space="preserve" font-family="Didot,Didot" font-size="64.0" fill="#304863" transform="matrix(1.00, 0.00, -0.00, -1.00, 372.1, 631.7)">a</text><path d="M 26.0 516.0 L 743.0 516.0 L 743.0 390.0 L 26.0 390.0 Z M 26.2 516.5 " fill="#FEFFFE"></path><path d="M -0.2 0.5 L 716.8 0.5 L 716.8 126.5 L -0.2 126.5 Z M 0.0 0.0 " fill="none" stroke="#A8A49C" stroke-width="2.00" transform="matrix(1.00, 0.00, 0.00, -1.00, 26.2, 516.5)"></path><g><clipPath id="clip0x6100014b2180"><path d="M 25.2 389.5 L 1440.4 389.5 L 1440.4 517.5 L 25.2 517.5 Z M 25.2 389.5 "></path></clipPath><g clip-path="url(#clip0x6100014b2180)"><text xml:space="preserve" font-family="Courier-Bold,Courier" font-weight="bold" font-size="24.0" fill="#008E00" transform="matrix(1.00, 0.00, -0.00, -1.00, 31.2, 488.4)">i</text><text xml:space="preserve" font-family="Courier-Bold,Courier" font-weight="bold" font-size="24.0" fill="#008E00" transform="matrix(1.00, 0.00, -0.00, -1.00, 45.6, 488.4)">m</text><text xml:space="preserve" font-family="Courier-Bold,Courier" font-weight="bold" font-size="24.0" fill="#008E00" transform="matrix(1.00, 0.00, -0.00, -1.00, 60.0, 488.4)">p</text><text xml:space="preserve" font-family="Courier-Bold,Courier" font-weight="bold" font-size="24.0" fill="#008E00" transform="matrix(1.00, 0.00, -0.00, -1.00, 74.4, 488.4)">o</text><text xml:space="preserve" font-family="Courier-Bold,Courier" font-weight="bold" font-size="24.0" fill="#008E00" transform="matrix(1.00, 0.00, -0.00, -1.00, 88.8, 488.4)">r</text><text xml:space="preserve" font-family="Courier-Bold,Courier" font-weight="bold" font-size="24.0" fill="#008E00" transform="matrix(1.00, 0.00, -0.00, -1.00, 103.2, 488.4)">t</text><text xml:space="preserve" font-family="Courier,Courier" font-size="24.0" fill="#000000" transform="matrix(1.00, 0.00, -0.00, -1.00, 117.6, 488.4)"> </text><text xml:space="preserve" font-family="Courier-Bold,Courier" font-weight="bold" font-size="24.0" fill="#0432FF" transform="matrix(1.00, 0.00, -0.00, -1.00, 132.0, 488.4)">p</text><text xml:space="preserve" font-family="Courier-Bold,Courier" font-weight="bold" font-size="24.0" fill="#0432FF" transform="matrix(1.00, 0.00, -0.00, -1.00, 146.4, 488.4)">a</text><text xml:space="preserve" font-family="Courier-Bold,Courier" font-weight="bold" font-size="24.0" fill="#0432FF" transform="matrix(1.00, 0.00, -0.00, -1.00, 160.8, 488.4)">n</text><text xml:space="preserve" font-family="Courier-Bold,Courier" font-weight="bold" font-size="24.0" fill="#0432FF" transform="matrix(1.00, 0.00, -0.00, -1.00, 175.3, 488.4)">d</text><text xml:space="preserve" font-family="Courier-Bold,Courier" font-weight="bold" font-size="24.0" fill="#0432FF" transform="matrix(1.00, 0.00, -0.00, -1.00, 189.7, 488.4)">a</text><text xml:space="preserve" font-family="Courier-Bold,Courier" font-weight="bold" font-size="24.0" fill="#0432FF" transform="matrix(1.00, 0.00, -0.00, -1.00, 204.1, 488.4)">s</text><text xml:space="preserve" font-family="Courier,Courier" font-size="24.0" fill="#000000" transform="matrix(1.00, 0.00, -0.00, -1.00, 218.5, 488.4)"> </text><text xml:space="preserve" font-family="Courier-Bold,Courier" font-weight="bold" font-size="24.0" fill="#008E00" transform="matrix(1.00, 0.00, -0.00, -1.00, 232.9, 488.4)">a</text><text xml:space="preserve" font-family="Courier-Bold,Courier" font-weight="bold" font-size="24.0" fill="#008E00" transform="matrix(1.00, 0.00, -0.00, -1.00, 247.3, 488.4)">s</text><text xml:space="preserve" font-family="Courier,Courier" font-size="24.0" fill="#000000" transform="matrix(1.00, 0.00, -0.00, -1.00, 261.7, 488.4)"> </text><text xml:space="preserve" font-family="Courier-Bold,Courier" font-weight="bold" font-size="24.0" fill="#0432FF" transform="matrix(1.00, 0.00, -0.00, -1.00, 276.1, 488.4)">p</text><text xml:space="preserve" font-family="Courier-Bold,Courier" font-weight="bold" font-size="24.0" fill="#0432FF" transform="matrix(1.00, 0.00, -0.00, -1.00, 290.5, 488.4)">d</text><text xml:space="preserve" font-family="Courier,Courier" font-size="24.0" fill="#000000" transform="matrix(1.00, 0.00, -0.00, -1.00, 31.2, 430.4)">y</text><text xml:space="preserve" font-family="Courier,Courier" font-size="24.0" fill="#000000" transform="matrix(1.00, 0.00, -0.00, -1.00, 45.6, 430.4)">e</text><text xml:space="preserve" font-family="Courier,Courier" font-size="24.0" fill="#000000" transform="matrix(1.00, 0.00, -0.00, -1.00, 60.0, 430.4)">a</text><text xml:space="preserve" font-family="Courier,Courier" font-size="24.0" fill="#000000" transform="matrix(1.00, 0.00, -0.00, -1.00, 74.4, 430.4)">r</text><text xml:space="preserve" font-family="Courier,Courier" font-size="24.0" fill="#000000" transform="matrix(1.00, 0.00, -0.00, -1.00, 88.8, 430.4)">s</text><text xml:space="preserve" font-family="Courier,Courier" font-size="24.0" fill="#000000" transform="matrix(1.00, 0.00, -0.00, -1.00, 103.2, 430.4)"> </text><text xml:space="preserve" font-family="Courier,Courier" font-size="24.0" fill="#797979" transform="matrix(1.00, 0.00, -0.00, -1.00, 117.6, 430.4)">=</text><text xml:space="preserve" font-family="Courier,Courier" font-size="24.0" fill="#000000" transform="matrix(1.00, 0.00, -0.00, -1.00, 132.0, 430.4)"> </text><text xml:space="preserve" font-family="Courier,Courier" font-size="24.0" fill="#000000" transform="matrix(1.00, 0.00, -0.00, -1.00, 146.4, 430.4)">p</text><text xml:space="preserve" font-family="Courier,Courier" font-size="24.0" fill="#000000" transform="matrix(1.00, 0.00, -0.00, -1.00, 160.8, 430.4)">d</text><text xml:space="preserve" font-family="Courier,Courier" font-size="24.0" fill="#797979" transform="matrix(1.00, 0.00, -0.00, -1.00, 175.2, 430.4)">.</text><text xml:space="preserve" font-family="Courier,Courier" font-size="24.0" fill="#000000" transform="matrix(1.00, 0.00, -0.00, -1.00, 189.6, 430.4)">S</text><text xml:space="preserve" font-family="Courier,Courier" font-size="24.0" fill="#000000" transform="matrix(1.00, 0.00, -0.00, -1.00, 204.1, 430.4)">e</text><text xml:space="preserve" font-family="Courier,Courier" font-size="24.0" fill="#000000" transform="matrix(1.00, 0.00, -0.00, -1.00, 218.5, 430.4)">r</text><text xml:space="preserve" font-family="Courier,Courier" font-size="24.0" fill="#000000" transform="matrix(1.00, 0.00, -0.00, -1.00, 232.9, 430.4)">i</text><text xml:space="preserve" font-family="Courier,Courier" font-size="24.0" fill="#000000" transform="matrix(1.00, 0.00, -0.00, -1.00, 247.3, 430.4)">e</text><text xml:space="preserve" font-family="Courier,Courier" font-size="24.0" fill="#000000" transform="matrix(1.00, 0.00, -0.00, -1.00, 261.7, 430.4)">s</text><text xml:space="preserve" font-family="Courier,Courier" font-size="24.0" fill="#000000" transform="matrix(1.00, 0.00, -0.00, -1.00, 276.1, 430.4)">(</text><text xml:space="preserve" font-family="Courier,Courier" font-size="24.0" fill="#000000" transform="matrix(1.00, 0.00, -0.00, -1.00, 290.5, 430.4)">[</text><text xml:space="preserve" font-family="Courier,Courier" font-size="24.0" fill="#797979" transform="matrix(1.00, 0.00, -0.00, -1.00, 304.9, 430.4)">1</text><text xml:space="preserve" font-family="Courier,Courier" font-size="24.0" fill="#797979" transform="matrix(1.00, 0.00, -0.00, -1.00, 319.3, 430.4)">9</text><text xml:space="preserve" font-family="Courier,Courier" font-size="24.0" fill="#797979" transform="matrix(1.00, 0.00, -0.00, -1.00, 333.7, 430.4)">9</text><text xml:space="preserve" font-family="Courier,Courier" font-size="24.0" fill="#797979" transform="matrix(1.00, 0.00, -0.00, -1.00, 348.1, 430.4)">0</text><text xml:space="preserve" font-family="Courier,Courier" font-size="24.0" fill="#000000" transform="matrix(1.00, 0.00, -0.00, -1.00, 362.5, 430.4)">,</text><text xml:space="preserve" font-family="Courier,Courier" font-size="24.0" fill="#000000" transform="matrix(1.00, 0.00, -0.00, -1.00, 376.9, 430.4)"> </text><text xml:space="preserve" font-family="Courier,Courier" font-size="24.0" fill="#797979" transform="matrix(1.00, 0.00, -0.00, -1.00, 391.3, 430.4)">1</text><text xml:space="preserve" font-family="Courier,Courier" font-size="24.0" fill="#797979" transform="matrix(1.00, 0.00, -0.00, -1.00, 405.7, 430.4)">9</text><text xml:space="preserve" font-family="Courier,Courier" font-size="24.0" fill="#797979" transform="matrix(1.00, 0.00, -0.00, -1.00, 420.1, 430.4)">9</text><text xml:space="preserve" font-family="Courier,Courier" font-size="24.0" fill="#797979" transform="matrix(1.00, 0.00, -0.00, -1.00, 434.5, 430.4)">1</text><text xml:space="preserve" font-family="Courier,Courier" font-size="24.0" fill="#000000" transform="matrix(1.00, 0.00, -0.00, -1.00, 448.9, 430.4)">,</text><text xml:space="preserve" font-family="Courier,Courier" font-size="24.0" fill="#000000" transform="matrix(1.00, 0.00, -0.00, -1.00, 463.3, 430.4)"> </text><text xml:space="preserve" font-family="Courier,Courier" font-size="24.0" fill="#797979" transform="matrix(1.00, 0.00, -0.00, -1.00, 477.7, 430.4)">1</text><text xml:space="preserve" font-family="Courier,Courier" font-size="24.0" fill="#797979" transform="matrix(1.00, 0.00, -0.00, -1.00, 492.1, 430.4)">9</text><text xml:space="preserve" font-family="Courier,Courier" font-size="24.0" fill="#797979" transform="matrix(1.00, 0.00, -0.00, -1.00, 506.5, 430.4)">9</text><text xml:space="preserve" font-family="Courier,Courier" font-size="24.0" fill="#797979" transform="matrix(1.00, 0.00, -0.00, -1.00, 520.9, 430.4)">2</text><text xml:space="preserve" font-family="Courier,Courier" font-size="24.0" fill="#000000" transform="matrix(1.00, 0.00, -0.00, -1.00, 535.3, 430.4)">,</text><text xml:space="preserve" font-family="Courier,Courier" font-size="24.0" fill="#000000" transform="matrix(1.00, 0.00, -0.00, -1.00, 549.7, 430.4)"> </text><text xml:space="preserve" font-family="Courier,Courier" font-size="24.0" fill="#797979" transform="matrix(1.00, 0.00, -0.00, -1.00, 564.1, 430.4)">1</text><text xml:space="preserve" font-family="Courier,Courier" font-size="24.0" fill="#797979" transform="matrix(1.00, 0.00, -0.00, -1.00, 578.5, 430.4)">9</text><text xml:space="preserve" font-family="Courier,Courier" font-size="24.0" fill="#797979" transform="matrix(1.00, 0.00, -0.00, -1.00, 592.9, 430.4)">9</text><text xml:space="preserve" font-family="Courier,Courier" font-size="24.0" fill="#797979" transform="matrix(1.00, 0.00, -0.00, -1.00, 607.3, 430.4)">3</text><text xml:space="preserve" font-family="Courier,Courier" font-size="24.0" fill="#000000" transform="matrix(1.00, 0.00, -0.00, -1.00, 621.7, 430.4)">,</text><text xml:space="preserve" font-family="Courier,Courier" font-size="24.0" fill="#000000" transform="matrix(1.00, 0.00, -0.00, -1.00, 636.1, 430.4)"> </text><text xml:space="preserve" font-family="Courier,Courier" font-size="24.0" fill="#797979" transform="matrix(1.00, 0.00, -0.00, -1.00, 650.5, 430.4)">1</text><text xml:space="preserve" font-family="Courier,Courier" font-size="24.0" fill="#797979" transform="matrix(1.00, 0.00, -0.00, -1.00, 664.9, 430.4)">9</text><text xml:space="preserve" font-family="Courier,Courier" font-size="24.0" fill="#797979" transform="matrix(1.00, 0.00, -0.00, -1.00, 679.3, 430.4)">9</text><text xml:space="preserve" font-family="Courier,Courier" font-size="24.0" fill="#797979" transform="matrix(1.00, 0.00, -0.00, -1.00, 693.7, 430.4)">4</text><text xml:space="preserve" font-family="Courier,Courier" font-size="24.0" fill="#000000" transform="matrix(1.00, 0.00, -0.00, -1.00, 708.1, 430.4)">,</text><text xml:space="preserve" font-family="Courier,Courier" font-size="24.0" fill="#000000" transform="matrix(1.00, 0.00, -0.00, -1.00, 175.2, 401.4)"> </text><text xml:space="preserve" font-family="Courier,Courier" font-size="24.0" fill="#000000" transform="matrix(1.00, 0.00, -0.00, -1.00, 189.6, 401.4)"> </text><text xml:space="preserve" font-family="Courier,Courier" font-size="24.0" fill="#000000" transform="matrix(1.00, 0.00, -0.00, -1.00, 204.0, 401.4)"> </text><text xml:space="preserve" font-family="Courier,Courier" font-size="24.0" fill="#000000" transform="matrix(1.00, 0.00, -0.00, -1.00, 218.4, 401.4)"> </text><text xml:space="preserve" font-family="Courier,Courier" font-size="24.0" fill="#000000" transform="matrix(1.00, 0.00, -0.00, -1.00, 232.8, 401.4)"> </text><text xml:space="preserve" font-family="Courier,Courier" font-size="24.0" fill="#000000" transform="matrix(1.00, 0.00, -0.00, -1.00, 247.2, 401.4)"> </text><text xml:space="preserve" font-family="Courier,Courier" font-size="24.0" fill="#000000" transform="matrix(1.00, 0.00, -0.00, -1.00, 261.7, 401.4)"> </text><text xml:space="preserve" font-family="Courier,Courier" font-size="24.0" fill="#000000" transform="matrix(1.00, 0.00, -0.00, -1.00, 276.1, 401.4)"> </text><text xml:space="preserve" font-family="Courier,Courier" font-size="24.0" fill="#000000" transform="matrix(1.00, 0.00, -0.00, -1.00, 290.5, 401.4)"> </text><text xml:space="preserve" font-family="Courier,Courier" font-size="24.0" fill="#797979" transform="matrix(1.00, 0.00, -0.00, -1.00, 304.8, 401.4)">1</text><text xml:space="preserve" font-family="Courier,Courier" font-size="24.0" fill="#797979" transform="matrix(1.00, 0.00, -0.00, -1.00, 319.2, 401.4)">9</text><text xml:space="preserve" font-family="Courier,Courier" font-size="24.0" fill="#797979" transform="matrix(1.00, 0.00, -0.00, -1.00, 333.7, 401.4)">9</text><text xml:space="preserve" font-family="Courier,Courier" font-size="24.0" fill="#797979" transform="matrix(1.00, 0.00, -0.00, -1.00, 348.1, 401.4)">5</text><text xml:space="preserve" font-family="Courier,Courier" font-size="24.0" fill="#000000" transform="matrix(1.00, 0.00, -0.00, -1.00, 362.5, 401.4)">,</text><text xml:space="preserve" font-family="Courier,Courier" font-size="24.0" fill="#000000" transform="matrix(1.00, 0.00, -0.00, -1.00, 376.9, 401.4)"> </text><text xml:space="preserve" font-family="Courier,Courier" font-size="24.0" fill="#797979" transform="matrix(1.00, 0.00, -0.00, -1.00, 391.3, 401.4)">1</text><text xml:space="preserve" font-family="Courier,Courier" font-size="24.0" fill="#797979" transform="matrix(1.00, 0.00, -0.00, -1.00, 405.7, 401.4)">9</text><text xml:space="preserve" font-family="Courier,Courier" font-size="24.0" fill="#797979" transform="matrix(1.00, 0.00, -0.00, -1.00, 420.1, 401.4)">9</text><text xml:space="preserve" font-family="Courier,Courier" font-size="24.0" fill="#797979" transform="matrix(1.00, 0.00, -0.00, -1.00, 434.5, 401.4)">6</text><text xml:space="preserve" font-family="Courier,Courier" font-size="24.0" fill="#000000" transform="matrix(1.00, 0.00, -0.00, -1.00, 448.9, 401.4)">,</text><text xml:space="preserve" font-family="Courier,Courier" font-size="24.0" fill="#000000" transform="matrix(1.00, 0.00, -0.00, -1.00, 463.3, 401.4)"> </text><text xml:space="preserve" font-family="Courier,Courier" font-size="24.0" fill="#797979" transform="matrix(1.00, 0.00, -0.00, -1.00, 477.7, 401.4)">1</text><text xml:space="preserve" font-family="Courier,Courier" font-size="24.0" fill="#797979" transform="matrix(1.00, 0.00, -0.00, -1.00, 492.1, 401.4)">9</text><text xml:space="preserve" font-family="Courier,Courier" font-size="24.0" fill="#797979" transform="matrix(1.00, 0.00, -0.00, -1.00, 506.5, 401.4)">9</text><text xml:space="preserve" font-family="Courier,Courier" font-size="24.0" fill="#797979" transform="matrix(1.00, 0.00, -0.00, -1.00, 520.9, 401.4)">7</text><text xml:space="preserve" font-family="Courier,Courier" font-size="24.0" fill="#000000" transform="matrix(1.00, 0.00, -0.00, -1.00, 535.3, 401.4)">,</text><text xml:space="preserve" font-family="Courier,Courier" font-size="24.0" fill="#000000" transform="matrix(1.00, 0.00, -0.00, -1.00, 549.7, 401.4)"> </text><text xml:space="preserve" font-family="Courier,Courier" font-size="24.0" fill="#797979" transform="matrix(1.00, 0.00, -0.00, -1.00, 564.1, 401.4)">1</text><text xml:space="preserve" font-family="Courier,Courier" font-size="24.0" fill="#797979" transform="matrix(1.00, 0.00, -0.00, -1.00, 578.5, 401.4)">9</text><text xml:space="preserve" font-family="Courier,Courier" font-size="24.0" fill="#797979" transform="matrix(1.00, 0.00, -0.00, -1.00, 592.9, 401.4)">9</text><text xml:space="preserve" font-family="Courier,Courier" font-size="24.0" fill="#797979" transform="matrix(1.00, 0.00, -0.00, -1.00, 607.3, 401.4)">8</text><text xml:space="preserve" font-family="Courier,Courier" font-size="24.0" fill="#000000" transform="matrix(1.00, 0.00, -0.00, -1.00, 621.7, 401.4)">,</text><text xml:space="preserve" font-family="Courier,Courier" font-size="24.0" fill="#000000" transform="matrix(1.00, 0.00, -0.00, -1.00, 636.1, 401.4)"> </text><text xml:space="preserve" font-family="Courier,Courier" font-size="24.0" fill="#797979" transform="matrix(1.00, 0.00, -0.00, -1.00, 650.5, 401.4)">1</text><text xml:space="preserve" font-family="Courier,Courier" font-size="24.0" fill="#797979" transform="matrix(1.00, 0.00, -0.00, -1.00, 664.9, 401.4)">9</text><text xml:space="preserve" font-family="Courier,Courier" font-size="24.0" fill="#797979" transform="matrix(1.00, 0.00, -0.00, -1.00, 679.3, 401.4)">9</text><text xml:space="preserve" font-family="Courier,Courier" font-size="24.0" fill="#797979" transform="matrix(1.00, 0.00, -0.00, -1.00, 693.7, 401.4)">9</text><text xml:space="preserve" font-family="Courier,Courier" font-size="24.0" fill="#000000" transform="matrix(1.00, 0.00, -0.00, -1.00, 708.1, 401.4)">]</text><text xml:space="preserve" font-family="Courier,Courier" font-size="24.0" fill="#000000" transform="matrix(1.00, 0.00, -0.00, -1.00, 722.5, 401.4)">)</text></g></g></g></svg>