<?xml version="1.0" encoding="UTF-8" standalone="no"?><svg xmlns="http://www.w3.org/2000/svg" xmlns:xlink="http://www.w3.org/1999/xlink" clip-rule="evenodd" stroke-miterlimit="10" viewBox="0 0 1024 768"><desc>SVG generated by Keynote</desc><defs></defs><g transform="matrix(1.00, 0.00, -0.00, -1.00, 0.0, 768.0)"><g><clipPath id="clip0x6000036a9300"><path d="M 0.0 768.0 L 1024.0 768.0 L 1024.0 0.0 L 0.0 0.0 Z M 0.0 768.0 "></path></clipPath><g clip-path="url(#clip0x6000036a9300)"><image xlink:href="../../FD143D00-F4AD-4582-B813-3101DA54A4D8/assets/1A7A41F82ED837B88C3A4983518DB956.jpeg" width="2048.00" height="1536.00" transform="matrix(0.50, 0.00, -0.00, -0.50, 0.0, 768.0)"></image></g></g><path d="M 0.0 0.5 L 960.0 0.5 L 960.0 0.5 L 0.0 0.5 Z M 0.0 0.0 " fill="none" stroke="#7995B9" stroke-width="1.00" transform="matrix(1.00, 0.00, 0.00, -1.00, 32.0, 566.0)"></path><path d="M 0.0 0.5 L 960.0 0.5 L 960.0 0.5 L 0.0 0.5 Z M 0.0 0.0 " fill="none" stroke="#7995B9" stroke-width="1.00" transform="matrix(1.00, 0.00, 0.00, -1.00, 32.0, 562.0)"></path><text xml:space="preserve" font-family="Didot,Didot" font-size="64.0" fill="#304863" transform="matrix(1.00, 0.00, -0.00, -1.00, 32.0, 631.7)">P</text><text xml:space="preserve" font-family="Didot,Didot" font-size="64.0" fill="#304863" transform="matrix(1.00, 0.00, -0.00, -1.00, 72.2, 631.7)">l</text><text xml:space="preserve" font-family="Didot,Didot" font-size="64.0" fill="#304863" transform="matrix(1.00, 0.00, -0.00, -1.00, 89.9, 631.7)">o</text><text xml:space="preserve" font-family="Didot,Didot" font-size="64.0" fill="#304863" transform="matrix(1.00, 0.00, -0.00, -1.00, 124.2, 631.7)">t</text><text xml:space="preserve" font-family="Didot,Didot" font-size="64.0" fill="#304863" transform="matrix(1.00, 0.00, -0.00, -1.00, 144.2, 631.7)">t</text><text xml:space="preserve" font-family="Didot,Didot" font-size="64.0" fill="#304863" transform="matrix(1.00, 0.00, -0.00, -1.00, 164.2, 631.7)">i</text><text xml:space="preserve" font-family="Didot,Didot" font-size="64.0" fill="#304863" transform="matrix(1.00, 0.00, -0.00, -1.00, 181.9, 631.7)">n</text><text xml:space="preserve" font-family="Didot,Didot" font-size="64.0" fill="#304863" transform="matrix(1.00, 0.00, -0.00, -1.00, 219.7, 631.7)">g</text><g><clipPath id="clip0x6080024ac780"><path d="M 33.5 359.5 L 451.2 359.5 L 451.2 46.5 L 33.5 46.5 Z M 33.5 359.5 "></path></clipPath><g clip-path="url(#clip0x6080024ac780)"><g><clipPath id="clip0x6080024ac900"><path d="M 34.0 359.0 L 172.9 359.0 L 172.9 314.4 L 34.0 314.4 Z M 34.0 359.0 "></path></clipPath><g clip-path="url(#clip0x6080024ac900)"><image xlink:href="../../FD143D00-F4AD-4582-B813-3101DA54A4D8/assets/931714CB8B7FE16B9B80A5EAB57E0513.png" width="383.00" height="383.00" transform="matrix(0.50, 0.00, -0.00, -0.50, 34.0, 359.0)"></image></g></g></g></g><g><clipPath id="clip0x6100024ac240"><path d="M 33.5 359.5 L 451.2 359.5 L 451.2 46.5 L 33.5 46.5 Z M 33.5 359.5 "></path></clipPath><g clip-path="url(#clip0x6100024ac240)"><g><clipPath id="clip0x6100024ac5a0"><path d="M 172.9 359.0 L 311.8 359.0 L 311.8 314.4 L 172.9 314.4 Z M 172.9 359.0 "></path></clipPath><g clip-path="url(#clip0x6100024ac5a0)"><image xlink:href="../../FD143D00-F4AD-4582-B813-3101DA54A4D8/assets/931714CB8B7FE16B9B80A5EAB57E0513.png" width="383.00" height="383.00" transform="matrix(0.50, 0.00, -0.00, -0.50, 172.9, 359.0)"></image></g></g></g></g><g><clipPath id="clip0x6080024ac960"><path d="M 33.5 359.5 L 451.2 359.5 L 451.2 46.5 L 33.5 46.5 Z M 33.5 359.5 "></path></clipPath><g clip-path="url(#clip0x6080024ac960)"><g><clipPath id="clip0x6080024accc0"><path d="M 311.8 359.0 L 450.7 359.0 L 450.7 314.4 L 311.8 314.4 Z M 311.8 359.0 "></path></clipPath><g clip-path="url(#clip0x6080024accc0)"><image xlink:href="../../FD143D00-F4AD-4582-B813-3101DA54A4D8/assets/931714CB8B7FE16B9B80A5EAB57E0513.png" width="383.00" height="383.00" transform="matrix(0.50, 0.00, -0.00, -0.50, 311.8, 359.0)"></image></g></g></g></g><g><clipPath id="clip0x6180026b32c0"><path d="M 33.5 359.5 L 451.2 359.5 L 451.2 46.5 L 33.5 46.5 Z M 33.5 359.5 "></path></clipPath><g clip-path="url(#clip0x6180026b32c0)"><g><clipPath id="clip0x6180026b3440"><path d="M 34.0 314.4 L 172.9 314.4 L 172.9 269.9 L 34.0 269.9 Z M 34.0 314.4 "></path></clipPath><g clip-path="url(#clip0x6180026b3440)"><image xlink:href="../../FD143D00-F4AD-4582-B813-3101DA54A4D8/assets/931714CB8B7FE16B9B80A5EAB57E0513.png" width="383.00" height="383.00" transform="matrix(0.50, 0.00, -0.00, -0.50, 34.0, 314.4)"></image></g></g></g></g><g><clipPath id="clip0x6100024ac600"><path d="M 33.5 359.5 L 451.2 359.5 L 451.2 46.5 L 33.5 46.5 Z M 33.5 359.5 "></path></clipPath><g clip-path="url(#clip0x6100024ac600)"><g><clipPath id="clip0x6100024ac960"><path d="M 172.9 314.4 L 311.8 314.4 L 311.8 269.9 L 172.9 269.9 Z M 172.9 314.4 "></path></clipPath><g clip-path="url(#clip0x6100024ac960)"><image xlink:href="../../FD143D00-F4AD-4582-B813-3101DA54A4D8/assets/931714CB8B7FE16B9B80A5EAB57E0513.png" width="383.00" height="383.00" transform="matrix(0.50, 0.00, -0.00, -0.50, 172.9, 314.4)"></image></g></g></g></g><g><clipPath id="clip0x6000036a92a0"><path d="M 33.5 359.5 L 451.2 359.5 L 451.2 46.5 L 33.5 46.5 Z M 33.5 359.5 "></path></clipPath><g clip-path="url(#clip0x6000036a92a0)"><g><clipPath id="clip0x6000036a9540"><path d="M 311.8 314.4 L 450.7 314.4 L 450.7 269.9 L 311.8 269.9 Z M 311.8 314.4 "></path></clipPath><g clip-path="url(#clip0x6000036a9540)"><image xlink:href="../../FD143D00-F4AD-4582-B813-3101DA54A4D8/assets/931714CB8B7FE16B9B80A5EAB57E0513.png" width="383.00" height="383.00" transform="matrix(0.50, 0.00, -0.00, -0.50, 311.8, 314.4)"></image></g></g></g></g><g><clipPath id="clip0x6100024ac9c0"><path d="M 33.5 359.5 L 451.2 359.5 L 451.2 46.5 L 33.5 46.5 Z M 33.5 359.5 "></path></clipPath><g clip-path="url(#clip0x6100024ac9c0)"><path d="M 34.0 269.9 L 172.9 269.9 L 172.9 225.3 L 34.0 225.3 Z M 34.0 269.9 " fill="#74A1C1"></path><path d="M 34.0 225.3 L 172.9 225.3 L 172.9 180.7 L 34.0 180.7 Z M 34.0 225.3 " fill="#74A1C1"></path><path d="M 34.0 180.7 L 172.9 180.7 L 172.9 136.1 L 34.0 136.1 Z M 34.0 180.7 " fill="#74A1C1"></path><path d="M 34.0 136.1 L 172.9 136.1 L 172.9 91.6 L 34.0 91.6 Z M 34.0 136.1 " fill="#74A1C1"></path><path d="M 34.0 91.6 L 172.9 91.6 L 172.9 47.0 L 34.0 47.0 Z M 34.0 91.6 " fill="#74A1C1"></path></g></g><image xlink:href="../../D088A28A-7976-4D8A-A262-07E8CD2B0B47/assets/C71FCB2118DB7D57955BDCABF569978D.png" width="96.00" height="30.00" transform="matrix(1.00, 0.00, -0.00, -1.00, 194.0, 345.0)"></image><g><clipPath id="clip0x6100024ace40"><path d="M 33.5 359.5 L 451.2 359.5 L 451.2 46.5 L 33.5 46.5 Z M 33.5 359.5 "></path></clipPath><g clip-path="url(#clip0x6100024ace40)"><g><clipPath id="clip0x6100024ad1a0"><path d="M 172.9 314.9 L 311.8 314.9 L 311.8 358.5 L 172.9 358.5 Z M 172.9 314.9 "></path></clipPath><g clip-path="url(#clip0x6100024ad1a0)"><text xml:space="preserve" font-family="Palatino-Roman,Palatino" font-size="30.0" fill="#F6F4EE" transform="matrix(1.00, 0.00, -0.00, -1.00, 195.0, 322.8)">s</text><text xml:space="preserve" font-family="Palatino-Roman,Palatino" font-size="30.0" fill="#F6F4EE" transform="matrix(1.00, 0.00, -0.00, -1.00, 207.8, 322.8)">t</text><text xml:space="preserve" font-family="Palatino-Roman,Palatino" font-size="30.0" fill="#F6F4EE" transform="matrix(1.00, 0.00, -0.00, -1.00, 217.5, 322.8)">o</text><text xml:space="preserve" font-family="Palatino-Roman,Palatino" font-size="30.0" fill="#F6F4EE" transform="matrix(1.00, 0.00, -0.00, -1.00, 233.9, 322.8)">r</text><text xml:space="preserve" font-family="Palatino-Roman,Palatino" font-size="30.0" fill="#F6F4EE" transform="matrix(1.00, 0.00, -0.00, -1.00, 245.2, 322.8)">e</text><text xml:space="preserve" font-family="Palatino-Roman,Palatino" font-size="30.0" fill="#F6F4EE" transform="matrix(1.00, 0.00, -0.00, -1.00, 259.6, 322.8)">_</text><text xml:space="preserve" font-family="Palatino-Roman,Palatino" font-size="30.0" fill="#F6F4EE" transform="matrix(1.00, 0.00, -0.00, -1.00, 274.6, 322.8)">1</text></g></g></g></g><image xlink:href="../../D088A28A-7976-4D8A-A262-07E8CD2B0B47/assets/44C84D862D957ACDE62BAB13ACC9A239.png" width="98.00" height="30.00" transform="matrix(1.00, 0.00, -0.00, -1.00, 332.0, 345.0)"></image><g><clipPath id="clip0x6100024ad500"><path d="M 33.5 359.5 L 451.2 359.5 L 451.2 46.5 L 33.5 46.5 Z M 33.5 359.5 "></path></clipPath><g clip-path="url(#clip0x6100024ad500)"><g><clipPath id="clip0x6100024ad860"><path d="M 311.8 314.9 L 450.2 314.9 L 450.2 358.5 L 311.8 358.5 Z M 311.8 314.9 "></path></clipPath><g clip-path="url(#clip0x6100024ad860)"><text xml:space="preserve" font-family="Palatino-Roman,Palatino" font-size="30.0" fill="#F6F4EE" transform="matrix(1.00, 0.00, -0.00, -1.00, 333.7, 322.8)">s</text><text xml:space="preserve" font-family="Palatino-Roman,Palatino" font-size="30.0" fill="#F6F4EE" transform="matrix(1.00, 0.00, -0.00, -1.00, 346.4, 322.8)">t</text><text xml:space="preserve" font-family="Palatino-Roman,Palatino" font-size="30.0" fill="#F6F4EE" transform="matrix(1.00, 0.00, -0.00, -1.00, 356.2, 322.8)">o</text><text xml:space="preserve" font-family="Palatino-Roman,Palatino" font-size="30.0" fill="#F6F4EE" transform="matrix(1.00, 0.00, -0.00, -1.00, 372.6, 322.8)">r</text><text xml:space="preserve" font-family="Palatino-Roman,Palatino" font-size="30.0" fill="#F6F4EE" transform="matrix(1.00, 0.00, -0.00, -1.00, 383.9, 322.8)">e</text><text xml:space="preserve" font-family="Palatino-Roman,Palatino" font-size="30.0" fill="#F6F4EE" transform="matrix(1.00, 0.00, -0.00, -1.00, 398.3, 322.8)">_</text><text xml:space="preserve" font-family="Palatino-Roman,Palatino" font-size="30.0" fill="#F6F4EE" transform="matrix(1.00, 0.00, -0.00, -1.00, 413.3, 322.8)">2</text></g></g></g></g><g><clipPath id="clip0x6100024adce0"><path d="M 33.5 359.5 L 451.2 359.5 L 451.2 46.5 L 33.5 46.5 Z M 33.5 359.5 "></path></clipPath><g clip-path="url(#clip0x6100024adce0)"><g><clipPath id="clip0x6100024ade60"><path d="M 34.5 270.4 L 172.4 270.4 L 172.4 313.9 L 34.5 313.9 Z M 34.5 270.4 "></path></clipPath><g clip-path="url(#clip0x6100024ade60)"><text xml:space="preserve" font-family="Palatino-Roman,Palatino" font-size="30.0" fill="#FEFFFE" transform="matrix(1.00, 0.00, -0.00, -1.00, 74.5, 278.2)">y</text><text xml:space="preserve" font-family="Palatino-Roman,Palatino" font-size="30.0" fill="#FEFFFE" transform="matrix(1.00, 0.00, -0.00, -1.00, 91.2, 278.2)">e</text><text xml:space="preserve" font-family="Palatino-Roman,Palatino" font-size="30.0" fill="#FEFFFE" transform="matrix(1.00, 0.00, -0.00, -1.00, 105.6, 278.2)">a</text><text xml:space="preserve" font-family="Palatino-Roman,Palatino" font-size="30.0" fill="#FEFFFE" transform="matrix(1.00, 0.00, -0.00, -1.00, 120.6, 278.2)">r</text></g></g></g></g><g><clipPath id="clip0x6100024ae1c0"><path d="M 33.5 359.5 L 451.2 359.5 L 451.2 46.5 L 33.5 46.5 Z M 33.5 359.5 "></path></clipPath><g clip-path="url(#clip0x6100024ae1c0)"><g><clipPath id="clip0x6100024ae340"><path d="M 34.5 225.8 L 172.4 225.8 L 172.4 269.4 L 34.5 269.4 Z M 34.5 225.8 "></path></clipPath><g clip-path="url(#clip0x6100024ae340)"><text xml:space="preserve" font-family="Palatino-Roman,Palatino" font-size="30.0" fill="#FEFFFE" transform="matrix(1.00, 0.00, -0.00, -1.00, 73.4, 233.7)">2</text><text xml:space="preserve" font-family="Palatino-Roman,Palatino" font-size="30.0" fill="#FEFFFE" transform="matrix(1.00, 0.00, -0.00, -1.00, 88.4, 233.7)">0</text><text xml:space="preserve" font-family="Palatino-Roman,Palatino" font-size="30.0" fill="#FEFFFE" transform="matrix(1.00, 0.00, -0.00, -1.00, 103.4, 233.7)">1</text><text xml:space="preserve" font-family="Palatino-Roman,Palatino" font-size="30.0" fill="#FEFFFE" transform="matrix(1.00, 0.00, -0.00, -1.00, 118.4, 233.7)">2</text></g></g></g></g><image xlink:href="../../D088A28A-7976-4D8A-A262-07E8CD2B0B47/assets/2C4527311422B7D099A6F4F9A7768021.png" width="49.00" height="26.00" transform="matrix(1.00, 0.00, -0.00, -1.00, 218.0, 256.0)"></image><g><clipPath id="clip0x6100024ae580"><path d="M 33.5 359.5 L 451.2 359.5 L 451.2 46.5 L 33.5 46.5 Z M 33.5 359.5 "></path></clipPath><g clip-path="url(#clip0x6100024ae580)"><g><clipPath id="clip0x6100024ae8e0"><path d="M 173.4 225.8 L 311.3 225.8 L 311.3 269.4 L 173.4 269.4 Z M 173.4 225.8 "></path></clipPath><g clip-path="url(#clip0x6100024ae8e0)"><text xml:space="preserve" font-family="Palatino-Roman,Palatino" font-size="30.0" fill="#6C6A66" transform="matrix(1.00, 0.00, -0.00, -1.00, 219.8, 233.7)">5</text><text xml:space="preserve" font-family="Palatino-Roman,Palatino" font-size="30.0" fill="#6C6A66" transform="matrix(1.00, 0.00, -0.00, -1.00, 234.8, 233.7)">8</text><text xml:space="preserve" font-family="Palatino-Roman,Palatino" font-size="30.0" fill="#6C6A66" transform="matrix(1.00, 0.00, -0.00, -1.00, 249.8, 233.7)">4</text></g></g></g></g><image xlink:href="../../D088A28A-7976-4D8A-A262-07E8CD2B0B47/assets/B3EFD85E3DBEEAABE60C2669A39CF164.png" width="62.00" height="26.00" transform="matrix(1.00, 0.00, -0.00, -1.00, 351.0, 256.0)"></image><g><clipPath id="clip0x6100024aeac0"><path d="M 33.5 359.5 L 451.2 359.5 L 451.2 46.5 L 33.5 46.5 Z M 33.5 359.5 "></path></clipPath><g clip-path="url(#clip0x6100024aeac0)"><g><clipPath id="clip0x6100024aee20"><path d="M 312.3 225.8 L 450.2 225.8 L 450.2 269.4 L 312.3 269.4 Z M 312.3 225.8 "></path></clipPath><g clip-path="url(#clip0x6100024aee20)"><text xml:space="preserve" font-family="Palatino-Roman,Palatino" font-size="30.0" fill="#6C6A66" transform="matrix(1.00, 0.00, -0.00, -1.00, 351.2, 233.7)">1</text><text xml:space="preserve" font-family="Palatino-Roman,Palatino" font-size="30.0" fill="#6C6A66" transform="matrix(1.00, 0.00, -0.00, -1.00, 366.2, 233.7)">0</text><text xml:space="preserve" font-family="Palatino-Roman,Palatino" font-size="30.0" fill="#6C6A66" transform="matrix(1.00, 0.00, -0.00, -1.00, 381.2, 233.7)">3</text><text xml:space="preserve" font-family="Palatino-Roman,Palatino" font-size="30.0" fill="#6C6A66" transform="matrix(1.00, 0.00, -0.00, -1.00, 396.2, 233.7)">2</text></g></g></g></g><g><clipPath id="clip0x6100024af180"><path d="M 33.5 359.5 L 451.2 359.5 L 451.2 46.5 L 33.5 46.5 Z M 33.5 359.5 "></path></clipPath><g clip-path="url(#clip0x6100024af180)"><g><clipPath id="clip0x6100024af300"><path d="M 34.5 181.2 L 172.4 181.2 L 172.4 224.8 L 34.5 224.8 Z M 34.5 181.2 "></path></clipPath><g clip-path="url(#clip0x6100024af300)"><text xml:space="preserve" font-family="Palatino-Roman,Palatino" font-size="30.0" fill="#FEFFFE" transform="matrix(1.00, 0.00, -0.00, -1.00, 73.4, 189.1)">2</text><text xml:space="preserve" font-family="Palatino-Roman,Palatino" font-size="30.0" fill="#FEFFFE" transform="matrix(1.00, 0.00, -0.00, -1.00, 88.4, 189.1)">0</text><text xml:space="preserve" font-family="Palatino-Roman,Palatino" font-size="30.0" fill="#FEFFFE" transform="matrix(1.00, 0.00, -0.00, -1.00, 103.4, 189.1)">1</text><text xml:space="preserve" font-family="Palatino-Roman,Palatino" font-size="30.0" fill="#FEFFFE" transform="matrix(1.00, 0.00, -0.00, -1.00, 118.4, 189.1)">3</text></g></g></g></g><image xlink:href="../../D088A28A-7976-4D8A-A262-07E8CD2B0B47/assets/96E1F93EC5BC184971CA3D301AA6F290.png" width="47.00" height="27.00" transform="matrix(1.00, 0.00, -0.00, -1.00, 218.0, 212.0)"></image><g><clipPath id="clip0x6100024af540"><path d="M 33.5 359.5 L 451.2 359.5 L 451.2 46.5 L 33.5 46.5 Z M 33.5 359.5 "></path></clipPath><g clip-path="url(#clip0x6100024af540)"><g><clipPath id="clip0x6100024af8a0"><path d="M 173.4 181.2 L 311.3 181.2 L 311.3 224.8 L 173.4 224.8 Z M 173.4 181.2 "></path></clipPath><g clip-path="url(#clip0x6100024af8a0)"><text xml:space="preserve" font-family="Palatino-Roman,Palatino" font-size="30.0" fill="#6C6A66" transform="matrix(1.00, 0.00, -0.00, -1.00, 219.8, 189.1)">6</text><text xml:space="preserve" font-family="Palatino-Roman,Palatino" font-size="30.0" fill="#6C6A66" transform="matrix(1.00, 0.00, -0.00, -1.00, 234.8, 189.1)">0</text><text xml:space="preserve" font-family="Palatino-Roman,Palatino" font-size="30.0" fill="#6C6A66" transform="matrix(1.00, 0.00, -0.00, -1.00, 249.8, 189.1)">1</text></g></g></g></g><image xlink:href="../../D088A28A-7976-4D8A-A262-07E8CD2B0B47/assets/5E66FFE7964633AF5940D42DB581DDB0.png" width="48.00" height="26.00" transform="matrix(1.00, 0.00, -0.00, -1.00, 357.0, 211.0)"></image><g><clipPath id="clip0x6100024afa80"><path d="M 33.5 359.5 L 451.2 359.5 L 451.2 46.5 L 33.5 46.5 Z M 33.5 359.5 "></path></clipPath><g clip-path="url(#clip0x6100024afa80)"><g><clipPath id="clip0x6100024afde0"><path d="M 312.3 181.2 L 450.2 181.2 L 450.2 224.8 L 312.3 224.8 Z M 312.3 181.2 "></path></clipPath><g clip-path="url(#clip0x6100024afde0)"><text xml:space="preserve" font-family="Palatino-Roman,Palatino" font-size="30.0" fill="#6C6A66" transform="matrix(1.00, 0.00, -0.00, -1.00, 358.7, 189.1)">9</text><text xml:space="preserve" font-family="Palatino-Roman,Palatino" font-size="30.0" fill="#6C6A66" transform="matrix(1.00, 0.00, -0.00, -1.00, 373.7, 189.1)">6</text><text xml:space="preserve" font-family="Palatino-Roman,Palatino" font-size="30.0" fill="#6C6A66" transform="matrix(1.00, 0.00, -0.00, -1.00, 388.7, 189.1)">0</text></g></g></g></g><g><clipPath id="clip0x6100024b00e0"><path d="M 33.5 359.5 L 451.2 359.5 L 451.2 46.5 L 33.5 46.5 Z M 33.5 359.5 "></path></clipPath><g clip-path="url(#clip0x6100024b00e0)"><g><clipPath id="clip0x6100024b0260"><path d="M 34.5 136.6 L 172.4 136.6 L 172.4 180.2 L 34.5 180.2 Z M 34.5 136.6 "></path></clipPath><g clip-path="url(#clip0x6100024b0260)"><text xml:space="preserve" font-family="Palatino-Roman,Palatino" font-size="30.0" fill="#FEFFFE" transform="matrix(1.00, 0.00, -0.00, -1.00, 73.4, 144.5)">2</text><text xml:space="preserve" font-family="Palatino-Roman,Palatino" font-size="30.0" fill="#FEFFFE" transform="matrix(1.00, 0.00, -0.00, -1.00, 88.4, 144.5)">0</text><text xml:space="preserve" font-family="Palatino-Roman,Palatino" font-size="30.0" fill="#FEFFFE" transform="matrix(1.00, 0.00, -0.00, -1.00, 103.4, 144.5)">1</text><text xml:space="preserve" font-family="Palatino-Roman,Palatino" font-size="30.0" fill="#FEFFFE" transform="matrix(1.00, 0.00, -0.00, -1.00, 118.4, 144.5)">4</text></g></g></g></g><image xlink:href="../../D088A28A-7976-4D8A-A262-07E8CD2B0B47/assets/DC7C4FE18CE0B82B8F5DA65CCF347255.png" width="48.00" height="26.00" transform="matrix(1.00, 0.00, -0.00, -1.00, 218.0, 167.0)"></image><g><clipPath id="clip0x6100024b04a0"><path d="M 33.5 359.5 L 451.2 359.5 L 451.2 46.5 L 33.5 46.5 Z M 33.5 359.5 "></path></clipPath><g clip-path="url(#clip0x6100024b04a0)"><g><clipPath id="clip0x6100024b0800"><path d="M 173.4 136.6 L 311.3 136.6 L 311.3 180.2 L 173.4 180.2 Z M 173.4 136.6 "></path></clipPath><g clip-path="url(#clip0x6100024b0800)"><text xml:space="preserve" font-family="Palatino-Roman,Palatino" font-size="30.0" fill="#6C6A66" transform="matrix(1.00, 0.00, -0.00, -1.00, 219.8, 144.5)">4</text><text xml:space="preserve" font-family="Palatino-Roman,Palatino" font-size="30.0" fill="#6C6A66" transform="matrix(1.00, 0.00, -0.00, -1.00, 234.8, 144.5)">0</text><text xml:space="preserve" font-family="Palatino-Roman,Palatino" font-size="30.0" fill="#6C6A66" transform="matrix(1.00, 0.00, -0.00, -1.00, 249.8, 144.5)">3</text></g></g></g></g><image xlink:href="../../D088A28A-7976-4D8A-A262-07E8CD2B0B47/assets/BD6A87113BBB307A8D8E0AB1C94D06F6.png" width="62.00" height="26.00" transform="matrix(1.00, 0.00, -0.00, -1.00, 351.0, 167.0)"></image><g><clipPath id="clip0x6100024b09e0"><path d="M 33.5 359.5 L 451.2 359.5 L 451.2 46.5 L 33.5 46.5 Z M 33.5 359.5 "></path></clipPath><g clip-path="url(#clip0x6100024b09e0)"><g><clipPath id="clip0x6100024b0d40"><path d="M 312.3 136.6 L 450.2 136.6 L 450.2 180.2 L 312.3 180.2 Z M 312.3 136.6 "></path></clipPath><g clip-path="url(#clip0x6100024b0d40)"><text xml:space="preserve" font-family="Palatino-Roman,Palatino" font-size="30.0" fill="#6C6A66" transform="matrix(1.00, 0.00, -0.00, -1.00, 351.2, 144.5)">1</text><text xml:space="preserve" font-family="Palatino-Roman,Palatino" font-size="30.0" fill="#6C6A66" transform="matrix(1.00, 0.00, -0.00, -1.00, 366.2, 144.5)">4</text><text xml:space="preserve" font-family="Palatino-Roman,Palatino" font-size="30.0" fill="#6C6A66" transform="matrix(1.00, 0.00, -0.00, -1.00, 381.2, 144.5)">0</text><text xml:space="preserve" font-family="Palatino-Roman,Palatino" font-size="30.0" fill="#6C6A66" transform="matrix(1.00, 0.00, -0.00, -1.00, 396.2, 144.5)">0</text></g></g></g></g><g><clipPath id="clip0x6100024b10a0"><path d="M 33.5 359.5 L 451.2 359.5 L 451.2 46.5 L 33.5 46.5 Z M 33.5 359.5 "></path></clipPath><g clip-path="url(#clip0x6100024b10a0)"><g><clipPath id="clip0x6100024b1220"><path d="M 34.5 92.1 L 172.4 92.1 L 172.4 135.6 L 34.5 135.6 Z M 34.5 92.1 "></path></clipPath><g clip-path="url(#clip0x6100024b1220)"><text xml:space="preserve" font-family="Palatino-Roman,Palatino" font-size="30.0" fill="#FEFFFE" transform="matrix(1.00, 0.00, -0.00, -1.00, 73.4, 100.0)">2</text><text xml:space="preserve" font-family="Palatino-Roman,Palatino" font-size="30.0" fill="#FEFFFE" transform="matrix(1.00, 0.00, -0.00, -1.00, 88.4, 100.0)">0</text><text xml:space="preserve" font-family="Palatino-Roman,Palatino" font-size="30.0" fill="#FEFFFE" transform="matrix(1.00, 0.00, -0.00, -1.00, 103.4, 100.0)">1</text><text xml:space="preserve" font-family="Palatino-Roman,Palatino" font-size="30.0" fill="#FEFFFE" transform="matrix(1.00, 0.00, -0.00, -1.00, 118.4, 100.0)">5</text></g></g></g></g><image xlink:href="../../D088A28A-7976-4D8A-A262-07E8CD2B0B47/assets/8FC8929A2CF2693FBF892E338E6EC12D.png" width="48.00" height="26.00" transform="matrix(1.00, 0.00, -0.00, -1.00, 218.0, 122.0)"></image><g><clipPath id="clip0x6100024b1460"><path d="M 33.5 359.5 L 451.2 359.5 L 451.2 46.5 L 33.5 46.5 Z M 33.5 359.5 "></path></clipPath><g clip-path="url(#clip0x6100024b1460)"><g><clipPath id="clip0x6100024b17c0"><path d="M 173.4 92.1 L 311.3 92.1 L 311.3 135.6 L 173.4 135.6 Z M 173.4 92.1 "></path></clipPath><g clip-path="url(#clip0x6100024b17c0)"><text xml:space="preserve" font-family="Palatino-Roman,Palatino" font-size="30.0" fill="#6C6A66" transform="matrix(1.00, 0.00, -0.00, -1.00, 219.8, 100.0)">4</text><text xml:space="preserve" font-family="Palatino-Roman,Palatino" font-size="30.0" fill="#6C6A66" transform="matrix(1.00, 0.00, -0.00, -1.00, 234.8, 100.0)">8</text><text xml:space="preserve" font-family="Palatino-Roman,Palatino" font-size="30.0" fill="#6C6A66" transform="matrix(1.00, 0.00, -0.00, -1.00, 249.8, 100.0)">0</text></g></g></g></g><image xlink:href="../../D088A28A-7976-4D8A-A262-07E8CD2B0B47/assets/32CD6F35C382DF9E768BE0172650B4F9.png" width="62.00" height="26.00" transform="matrix(1.00, 0.00, -0.00, -1.00, 351.0, 122.0)"></image><g><clipPath id="clip0x6100024b19a0"><path d="M 33.5 359.5 L 451.2 359.5 L 451.2 46.5 L 33.5 46.5 Z M 33.5 359.5 "></path></clipPath><g clip-path="url(#clip0x6100024b19a0)"><g><clipPath id="clip0x6100024b1d00"><path d="M 312.3 92.1 L 450.2 92.1 L 450.2 135.6 L 312.3 135.6 Z M 312.3 92.1 "></path></clipPath><g clip-path="url(#clip0x6100024b1d00)"><text xml:space="preserve" font-family="Palatino-Roman,Palatino" font-size="30.0" fill="#6C6A66" transform="matrix(1.00, 0.00, -0.00, -1.00, 351.2, 100.0)">1</text><text xml:space="preserve" font-family="Palatino-Roman,Palatino" font-size="30.0" fill="#6C6A66" transform="matrix(1.00, 0.00, -0.00, -1.00, 366.2, 100.0)">3</text><text xml:space="preserve" font-family="Palatino-Roman,Palatino" font-size="30.0" fill="#6C6A66" transform="matrix(1.00, 0.00, -0.00, -1.00, 381.2, 100.0)">5</text><text xml:space="preserve" font-family="Palatino-Roman,Palatino" font-size="30.0" fill="#6C6A66" transform="matrix(1.00, 0.00, -0.00, -1.00, 396.2, 100.0)">5</text></g></g></g></g><g><clipPath id="clip0x6100024b2060"><path d="M 33.5 359.5 L 451.2 359.5 L 451.2 46.5 L 33.5 46.5 Z M 33.5 359.5 "></path></clipPath><g clip-path="url(#clip0x6100024b2060)"><g><clipPath id="clip0x6100024b21e0"><path d="M 34.5 47.5 L 172.4 47.5 L 172.4 91.1 L 34.5 91.1 Z M 34.5 47.5 "></path></clipPath><g clip-path="url(#clip0x6100024b21e0)"><text xml:space="preserve" font-family="Palatino-Roman,Palatino" font-size="30.0" fill="#FEFFFE" transform="matrix(1.00, 0.00, -0.00, -1.00, 73.4, 55.4)">2</text><text xml:space="preserve" font-family="Palatino-Roman,Palatino" font-size="30.0" fill="#FEFFFE" transform="matrix(1.00, 0.00, -0.00, -1.00, 88.4, 55.4)">0</text><text xml:space="preserve" font-family="Palatino-Roman,Palatino" font-size="30.0" fill="#FEFFFE" transform="matrix(1.00, 0.00, -0.00, -1.00, 103.4, 55.4)">1</text><text xml:space="preserve" font-family="Palatino-Roman,Palatino" font-size="30.0" fill="#FEFFFE" transform="matrix(1.00, 0.00, -0.00, -1.00, 118.4, 55.4)">6</text></g></g></g></g><image xlink:href="../../D088A28A-7976-4D8A-A262-07E8CD2B0B47/assets/ED675174B22E1A694C94E4A016607955.png" width="68.00" height="27.00" transform="matrix(1.00, 0.00, -0.00, -1.00, 208.0, 78.0)"></image><g><clipPath id="clip0x6100024b2420"><path d="M 33.5 359.5 L 451.2 359.5 L 451.2 46.5 L 33.5 46.5 Z M 33.5 359.5 "></path></clipPath><g clip-path="url(#clip0x6100024b2420)"><g><clipPath id="clip0x6100024b2780"><path d="M 173.4 47.5 L 311.3 47.5 L 311.3 91.1 L 173.4 91.1 Z M 173.4 47.5 "></path></clipPath><g clip-path="url(#clip0x6100024b2780)"><text xml:space="preserve" font-family="Palatino-Roman,Palatino" font-size="30.0" fill="#6C6A66" transform="matrix(1.00, 0.00, -0.00, -1.00, 209.9, 55.4)">N</text><text xml:space="preserve" font-family="Palatino-Roman,Palatino" font-size="30.0" fill="#6C6A66" transform="matrix(1.00, 0.00, -0.00, -1.00, 234.8, 55.4)">a</text><text xml:space="preserve" font-family="Palatino-Roman,Palatino" font-size="30.0" fill="#6C6A66" transform="matrix(1.00, 0.00, -0.00, -1.00, 249.8, 55.4)">N</text></g></g></g></g><image xlink:href="../../D088A28A-7976-4D8A-A262-07E8CD2B0B47/assets/DCA16376BBBF2115DAAE89AD68474E66.png" width="48.00" height="27.00" transform="matrix(1.00, 0.00, -0.00, -1.00, 357.0, 78.0)"></image><g><clipPath id="clip0x6100024b2960"><path d="M 33.5 359.5 L 451.2 359.5 L 451.2 46.5 L 33.5 46.5 Z M 33.5 359.5 "></path></clipPath><g clip-path="url(#clip0x6100024b2960)"><g><clipPath id="clip0x6100024b2cc0"><path d="M 312.3 47.5 L 450.2 47.5 L 450.2 91.1 L 312.3 91.1 Z M 312.3 47.5 "></path></clipPath><g clip-path="url(#clip0x6100024b2cc0)"><text xml:space="preserve" font-family="Palatino-Roman,Palatino" font-size="30.0" fill="#6C6A66" transform="matrix(1.00, 0.00, -0.00, -1.00, 358.7, 55.4)">3</text><text xml:space="preserve" font-family="Palatino-Roman,Palatino" font-size="30.0" fill="#6C6A66" transform="matrix(1.00, 0.00, -0.00, -1.00, 373.7, 55.4)">0</text><text xml:space="preserve" font-family="Palatino-Roman,Palatino" font-size="30.0" fill="#6C6A66" transform="matrix(1.00, 0.00, -0.00, -1.00, 388.7, 55.4)">0</text></g></g></g></g><g><clipPath id="clip0x6100024b2fc0"><path d="M 33.5 359.5 L 451.2 359.5 L 451.2 46.5 L 33.5 46.5 Z M 33.5 359.5 "></path></clipPath><g clip-path="url(#clip0x6100024b2fc0)"><path d="M 140.9 46.1 L 140.9 314.5 " fill="none" stroke="#7695B5" stroke-width="1.00" transform="matrix(1.00, 0.00, 0.00, -1.00, 32.0, 361.0)"></path><path d="M 279.8 46.1 L 279.8 314.5 " fill="none" stroke="#7695B5" stroke-width="1.00" transform="matrix(1.00, 0.00, 0.00, -1.00, 32.0, 361.0)"></path><path d="M 1.5 91.1 L 419.2 91.1 " fill="none" stroke="#7695B5" stroke-width="1.00" transform="matrix(1.00, 0.00, 0.00, -1.00, 32.0, 361.0)"></path><path d="M 1.5 135.7 L 419.2 135.7 " fill="none" stroke="#7695B5" stroke-width="1.00" transform="matrix(1.00, 0.00, 0.00, -1.00, 32.0, 361.0)"></path><path d="M 1.5 180.3 L 419.2 180.3 " fill="none" stroke="#7695B5" stroke-width="1.00" transform="matrix(1.00, 0.00, 0.00, -1.00, 32.0, 361.0)"></path><path d="M 1.5 224.9 L 419.2 224.9 " fill="none" stroke="#7695B5" stroke-width="1.00" transform="matrix(1.00, 0.00, 0.00, -1.00, 32.0, 361.0)"></path><path d="M 1.5 269.4 L 419.2 269.4 " fill="none" stroke="#7695B5" stroke-width="1.00" transform="matrix(1.00, 0.00, 0.00, -1.00, 32.0, 361.0)"></path><path d="M 2.0 1.5 L 2.0 46.6 " fill="none" stroke="#7595B5" stroke-width="1.00" transform="matrix(1.00, 0.00, 0.00, -1.00, 32.0, 361.0)"></path><path d="M 2.0 46.6 L 2.0 314.5 " fill="none" stroke="#7595B5" stroke-width="1.00" transform="matrix(1.00, 0.00, 0.00, -1.00, 32.0, 361.0)"></path><path d="M 418.7 1.5 L 418.7 46.6 " fill="none" stroke="#7595B5" stroke-width="1.00" transform="matrix(1.00, 0.00, 0.00, -1.00, 32.0, 361.0)"></path><path d="M 418.7 46.6 L 418.7 314.5 " fill="none" stroke="#7595B5" stroke-width="1.00" transform="matrix(1.00, 0.00, 0.00, -1.00, 32.0, 361.0)"></path><path d="M 1.5 2.0 L 419.2 2.0 " fill="none" stroke="#7595B5" stroke-width="1.00" transform="matrix(1.00, 0.00, 0.00, -1.00, 32.0, 361.0)"></path><path d="M 1.5 314.0 L 419.2 314.0 " fill="none" stroke="#7595B5" stroke-width="1.00" transform="matrix(1.00, 0.00, 0.00, -1.00, 32.0, 361.0)"></path></g></g><text xml:space="preserve" font-family="Palatino-Italic,Palatino" font-style="italic" font-size="30.0" fill="#324763" transform="matrix(1.00, 0.00, -0.00, -1.00, 36.7, 372.3)">g</text><text xml:space="preserve" font-family="Palatino-Italic,Palatino" font-style="italic" font-size="30.0" fill="#324763" transform="matrix(1.00, 0.00, -0.00, -1.00, 51.7, 372.3)">u</text><text xml:space="preserve" font-family="Palatino-Italic,Palatino" font-style="italic" font-size="30.0" fill="#324763" transform="matrix(1.00, 0.00, -0.00, -1.00, 68.4, 372.3)">i</text><text xml:space="preserve" font-family="Palatino-Italic,Palatino" font-style="italic" font-size="30.0" fill="#324763" transform="matrix(1.00, 0.00, -0.00, -1.00, 76.7, 372.3)">t</text><text xml:space="preserve" font-family="Palatino-Italic,Palatino" font-style="italic" font-size="30.0" fill="#324763" transform="matrix(1.00, 0.00, -0.00, -1.00, 86.7, 372.3)">a</text><text xml:space="preserve" font-family="Palatino-Italic,Palatino" font-style="italic" font-size="30.0" fill="#324763" transform="matrix(1.00, 0.00, -0.00, -1.00, 100.0, 372.3)">r</text><text xml:space="preserve" font-family="Palatino-Italic,Palatino" font-style="italic" font-size="30.0" fill="#324763" transform="matrix(1.00, 0.00, -0.00, -1.00, 111.7, 372.3)">s</text><path d="M 31.0 551.0 L 993.0 551.0 L 993.0 483.0 L 31.0 483.0 Z M 31.3 551.0 " fill="#FEFFFE"></path><path d="M -0.3 -0.0 L 961.7 -0.0 L 961.7 68.0 L -0.3 68.0 Z M 0.0 0.0 " fill="none" stroke="#A8A49C" stroke-width="2.00" transform="matrix(1.00, 0.00, 0.00, -1.00, 31.3, 551.0)"></path><g><clipPath id="clip0x6100024b3b60"><path d="M 30.3 482.0 L 993.7 482.0 L 993.7 552.0 L 30.3 552.0 Z M 30.3 482.0 "></path></clipPath><g clip-path="url(#clip0x6100024b3b60)"><text xml:space="preserve" font-family="Courier,Courier" font-size="24.0" fill="#000000" transform="matrix(1.00, 0.00, -0.00, -1.00, 36.3, 522.9)">g</text><text xml:space="preserve" font-family="Courier,Courier" font-size="24.0" fill="#000000" transform="matrix(1.00, 0.00, -0.00, -1.00, 50.7, 522.9)">u</text><text xml:space="preserve" font-family="Courier,Courier" font-size="24.0" fill="#000000" transform="matrix(1.00, 0.00, -0.00, -1.00, 65.1, 522.9)">i</text><text xml:space="preserve" font-family="Courier,Courier" font-size="24.0" fill="#000000" transform="matrix(1.00, 0.00, -0.00, -1.00, 79.5, 522.9)">t</text><text xml:space="preserve" font-family="Courier,Courier" font-size="24.0" fill="#000000" transform="matrix(1.00, 0.00, -0.00, -1.00, 93.9, 522.9)">a</text><text xml:space="preserve" font-family="Courier,Courier" font-size="24.0" fill="#000000" transform="matrix(1.00, 0.00, -0.00, -1.00, 108.3, 522.9)">r</text><text xml:space="preserve" font-family="Courier,Courier" font-size="24.0" fill="#000000" transform="matrix(1.00, 0.00, -0.00, -1.00, 122.7, 522.9)">s</text><text xml:space="preserve" font-family="Courier,Courier" font-size="24.0" fill="#797979" transform="matrix(1.00, 0.00, -0.00, -1.00, 137.1, 522.9)">.</text><text xml:space="preserve" font-family="Courier,Courier" font-size="24.0" fill="#000000" transform="matrix(1.00, 0.00, -0.00, -1.00, 151.5, 522.9)">i</text><text xml:space="preserve" font-family="Courier,Courier" font-size="24.0" fill="#000000" transform="matrix(1.00, 0.00, -0.00, -1.00, 165.9, 522.9)">n</text><text xml:space="preserve" font-family="Courier,Courier" font-size="24.0" fill="#000000" transform="matrix(1.00, 0.00, -0.00, -1.00, 180.3, 522.9)">d</text><text xml:space="preserve" font-family="Courier,Courier" font-size="24.0" fill="#000000" transform="matrix(1.00, 0.00, -0.00, -1.00, 194.7, 522.9)">e</text><text xml:space="preserve" font-family="Courier,Courier" font-size="24.0" fill="#000000" transform="matrix(1.00, 0.00, -0.00, -1.00, 209.1, 522.9)">x</text><text xml:space="preserve" font-family="Courier,Courier" font-size="24.0" fill="#000000" transform="matrix(1.00, 0.00, -0.00, -1.00, 223.5, 522.9)"> </text><text xml:space="preserve" font-family="Courier,Courier" font-size="24.0" fill="#797979" transform="matrix(1.00, 0.00, -0.00, -1.00, 237.9, 522.9)">=</text><text xml:space="preserve" font-family="Courier,Courier" font-size="24.0" fill="#000000" transform="matrix(1.00, 0.00, -0.00, -1.00, 252.3, 522.9)"> </text><text xml:space="preserve" font-family="Courier,Courier" font-size="24.0" fill="#000000" transform="matrix(1.00, 0.00, -0.00, -1.00, 266.7, 522.9)">p</text><text xml:space="preserve" font-family="Courier,Courier" font-size="24.0" fill="#000000" transform="matrix(1.00, 0.00, -0.00, -1.00, 281.1, 522.9)">d</text><text xml:space="preserve" font-family="Courier,Courier" font-size="24.0" fill="#797979" transform="matrix(1.00, 0.00, -0.00, -1.00, 295.5, 522.9)">.</text><text xml:space="preserve" font-family="Courier,Courier" font-size="24.0" fill="#000000" transform="matrix(1.00, 0.00, -0.00, -1.00, 309.9, 522.9)">t</text><text xml:space="preserve" font-family="Courier,Courier" font-size="24.0" fill="#000000" transform="matrix(1.00, 0.00, -0.00, -1.00, 324.3, 522.9)">o</text><text xml:space="preserve" font-family="Courier,Courier" font-size="24.0" fill="#000000" transform="matrix(1.00, 0.00, -0.00, -1.00, 338.7, 522.9)">_</text><text xml:space="preserve" font-family="Courier,Courier" font-size="24.0" fill="#000000" transform="matrix(1.00, 0.00, -0.00, -1.00, 353.1, 522.9)">d</text><text xml:space="preserve" font-family="Courier,Courier" font-size="24.0" fill="#000000" transform="matrix(1.00, 0.00, -0.00, -1.00, 367.6, 522.9)">a</text><text xml:space="preserve" font-family="Courier,Courier" font-size="24.0" fill="#000000" transform="matrix(1.00, 0.00, -0.00, -1.00, 382.0, 522.9)">t</text><text xml:space="preserve" font-family="Courier,Courier" font-size="24.0" fill="#000000" transform="matrix(1.00, 0.00, -0.00, -1.00, 396.4, 522.9)">e</text><text xml:space="preserve" font-family="Courier,Courier" font-size="24.0" fill="#000000" transform="matrix(1.00, 0.00, -0.00, -1.00, 410.8, 522.9)">t</text><text xml:space="preserve" font-family="Courier,Courier" font-size="24.0" fill="#000000" transform="matrix(1.00, 0.00, -0.00, -1.00, 425.2, 522.9)">i</text><text xml:space="preserve" font-family="Courier,Courier" font-size="24.0" fill="#000000" transform="matrix(1.00, 0.00, -0.00, -1.00, 439.6, 522.9)">m</text><text xml:space="preserve" font-family="Courier,Courier" font-size="24.0" fill="#000000" transform="matrix(1.00, 0.00, -0.00, -1.00, 454.0, 522.9)">e</text><text xml:space="preserve" font-family="Courier,Courier" font-size="24.0" fill="#000000" transform="matrix(1.00, 0.00, -0.00, -1.00, 468.4, 522.9)">(</text><text xml:space="preserve" font-family="Courier,Courier" font-size="24.0" fill="#000000" transform="matrix(1.00, 0.00, -0.00, -1.00, 482.8, 522.9)">g</text><text xml:space="preserve" font-family="Courier,Courier" font-size="24.0" fill="#000000" transform="matrix(1.00, 0.00, -0.00, -1.00, 497.2, 522.9)">u</text><text xml:space="preserve" font-family="Courier,Courier" font-size="24.0" fill="#000000" transform="matrix(1.00, 0.00, -0.00, -1.00, 511.6, 522.9)">i</text><text xml:space="preserve" font-family="Courier,Courier" font-size="24.0" fill="#000000" transform="matrix(1.00, 0.00, -0.00, -1.00, 526.0, 522.9)">t</text><text xml:space="preserve" font-family="Courier,Courier" font-size="24.0" fill="#000000" transform="matrix(1.00, 0.00, -0.00, -1.00, 540.4, 522.9)">a</text><text xml:space="preserve" font-family="Courier,Courier" font-size="24.0" fill="#000000" transform="matrix(1.00, 0.00, -0.00, -1.00, 554.8, 522.9)">r</text><text xml:space="preserve" font-family="Courier,Courier" font-size="24.0" fill="#000000" transform="matrix(1.00, 0.00, -0.00, -1.00, 569.2, 522.9)">s</text><text xml:space="preserve" font-family="Courier,Courier" font-size="24.0" fill="#797979" transform="matrix(1.00, 0.00, -0.00, -1.00, 583.6, 522.9)">.</text><text xml:space="preserve" font-family="Courier,Courier" font-size="24.0" fill="#000000" transform="matrix(1.00, 0.00, -0.00, -1.00, 598.0, 522.9)">i</text><text xml:space="preserve" font-family="Courier,Courier" font-size="24.0" fill="#000000" transform="matrix(1.00, 0.00, -0.00, -1.00, 612.4, 522.9)">n</text><text xml:space="preserve" font-family="Courier,Courier" font-size="24.0" fill="#000000" transform="matrix(1.00, 0.00, -0.00, -1.00, 626.8, 522.9)">d</text><text xml:space="preserve" font-family="Courier,Courier" font-size="24.0" fill="#000000" transform="matrix(1.00, 0.00, -0.00, -1.00, 641.2, 522.9)">e</text><text xml:space="preserve" font-family="Courier,Courier" font-size="24.0" fill="#000000" transform="matrix(1.00, 0.00, -0.00, -1.00, 655.6, 522.9)">x</text><text xml:space="preserve" font-family="Courier,Courier" font-size="24.0" fill="#000000" transform="matrix(1.00, 0.00, -0.00, -1.00, 670.0, 522.9)">,</text><text xml:space="preserve" font-family="Courier,Courier" font-size="24.0" fill="#000000" transform="matrix(1.00, 0.00, -0.00, -1.00, 684.4, 522.9)"> </text><text xml:space="preserve" font-family="Courier,Courier" font-size="24.0" fill="#000000" transform="matrix(1.00, 0.00, -0.00, -1.00, 698.8, 522.9)">f</text><text xml:space="preserve" font-family="Courier,Courier" font-size="24.0" fill="#000000" transform="matrix(1.00, 0.00, -0.00, -1.00, 713.2, 522.9)">o</text><text xml:space="preserve" font-family="Courier,Courier" font-size="24.0" fill="#000000" transform="matrix(1.00, 0.00, -0.00, -1.00, 727.6, 522.9)">r</text><text xml:space="preserve" font-family="Courier,Courier" font-size="24.0" fill="#000000" transform="matrix(1.00, 0.00, -0.00, -1.00, 742.0, 522.9)">m</text><text xml:space="preserve" font-family="Courier,Courier" font-size="24.0" fill="#000000" transform="matrix(1.00, 0.00, -0.00, -1.00, 756.4, 522.9)">a</text><text xml:space="preserve" font-family="Courier,Courier" font-size="24.0" fill="#000000" transform="matrix(1.00, 0.00, -0.00, -1.00, 770.8, 522.9)">t</text><text xml:space="preserve" font-family="Courier,Courier" font-size="24.0" fill="#797979" transform="matrix(1.00, 0.00, -0.00, -1.00, 785.2, 522.9)">=</text><text xml:space="preserve" font-family="Courier,Courier" font-size="24.0" fill="#C8352B" transform="matrix(1.00, 0.00, -0.00, -1.00, 799.6, 522.9)">'</text><text xml:space="preserve" font-family="Courier,Courier" font-size="24.0" fill="#C8352B" transform="matrix(1.00, 0.00, -0.00, -1.00, 814.0, 522.9)">%</text><text xml:space="preserve" font-family="Courier,Courier" font-size="24.0" fill="#C8352B" transform="matrix(1.00, 0.00, -0.00, -1.00, 828.4, 522.9)">Y</text><text xml:space="preserve" font-family="Courier,Courier" font-size="24.0" fill="#C8352B" transform="matrix(1.00, 0.00, -0.00, -1.00, 842.8, 522.9)">'</text><text xml:space="preserve" font-family="Courier,Courier" font-size="24.0" fill="#000000" transform="matrix(1.00, 0.00, -0.00, -1.00, 857.2, 522.9)">)</text><text xml:space="preserve" font-family="Courier,Courier" font-size="24.0" fill="#000000" transform="matrix(1.00, 0.00, -0.00, -1.00, 36.3, 493.9)">g</text><text xml:space="preserve" font-family="Courier,Courier" font-size="24.0" fill="#000000" transform="matrix(1.00, 0.00, -0.00, -1.00, 50.7, 493.9)">u</text><text xml:space="preserve" font-family="Courier,Courier" font-size="24.0" fill="#000000" transform="matrix(1.00, 0.00, -0.00, -1.00, 65.1, 493.9)">i</text><text xml:space="preserve" font-family="Courier,Courier" font-size="24.0" fill="#000000" transform="matrix(1.00, 0.00, -0.00, -1.00, 79.5, 493.9)">t</text><text xml:space="preserve" font-family="Courier,Courier" font-size="24.0" fill="#000000" transform="matrix(1.00, 0.00, -0.00, -1.00, 93.9, 493.9)">a</text><text xml:space="preserve" font-family="Courier,Courier" font-size="24.0" fill="#000000" transform="matrix(1.00, 0.00, -0.00, -1.00, 108.3, 493.9)">r</text><text xml:space="preserve" font-family="Courier,Courier" font-size="24.0" fill="#000000" transform="matrix(1.00, 0.00, -0.00, -1.00, 122.7, 493.9)">s</text><text xml:space="preserve" font-family="Courier,Courier" font-size="24.0" fill="#000000" transform="matrix(1.00, 0.00, -0.00, -1.00, 137.1, 493.9)">.</text><text xml:space="preserve" font-family="Courier,Courier" font-size="24.0" fill="#000000" transform="matrix(1.00, 0.00, -0.00, -1.00, 151.5, 493.9)">p</text><text xml:space="preserve" font-family="Courier,Courier" font-size="24.0" fill="#000000" transform="matrix(1.00, 0.00, -0.00, -1.00, 165.9, 493.9)">l</text><text xml:space="preserve" font-family="Courier,Courier" font-size="24.0" fill="#000000" transform="matrix(1.00, 0.00, -0.00, -1.00, 180.3, 493.9)">o</text><text xml:space="preserve" font-family="Courier,Courier" font-size="24.0" fill="#000000" transform="matrix(1.00, 0.00, -0.00, -1.00, 194.7, 493.9)">t</text><text xml:space="preserve" font-family="Courier,Courier" font-size="24.0" fill="#000000" transform="matrix(1.00, 0.00, -0.00, -1.00, 209.1, 493.9)">(</text><text xml:space="preserve" font-family="Courier,Courier" font-size="24.0" fill="#000000" transform="matrix(1.00, 0.00, -0.00, -1.00, 223.6, 493.9)">)</text></g></g><image xlink:href="1AFD564B69C35C8031E63B4CD1D46BED.png" width="1072.00" height="708.00" transform="matrix(0.44, 0.00, -0.00, -0.44, 485.0, 363.0)"></image></g></svg>