<?xml version="1.0" encoding="UTF-8" standalone="no"?><svg xmlns="http://www.w3.org/2000/svg" xmlns:xlink="http://www.w3.org/1999/xlink" clip-rule="evenodd" stroke-miterlimit="10" viewBox="0 0 1024 768"><desc>SVG generated by Keynote</desc><defs></defs><g transform="matrix(1.00, 0.00, -0.00, -1.00, 0.0, 768.0)"><g><clipPath id="clip0x6080020be000"><path d="M 0.0 768.0 L 1024.0 768.0 L 1024.0 0.0 L 0.0 0.0 Z M 0.0 768.0 "></path></clipPath><g clip-path="url(#clip0x6080020be000)"><image xlink:href="../../FD143D00-F4AD-4582-B813-3101DA54A4D8/assets/1A7A41F82ED837B88C3A4983518DB956.jpeg" width="2048.00" height="1536.00" transform="matrix(0.50, 0.00, -0.00, -0.50, 0.0, 768.0)"></image></g></g><path d="M 0.0 0.5 L 960.0 0.5 L 960.0 0.5 L 0.0 0.5 Z M 0.0 0.0 " fill="none" stroke="#7995B9" stroke-width="1.00" transform="matrix(1.00, 0.00, 0.00, -1.00, 32.0, 566.0)"></path><path d="M 0.0 0.5 L 960.0 0.5 L 960.0 0.5 L 0.0 0.5 Z M 0.0 0.0 " fill="none" stroke="#7995B9" stroke-width="1.00" transform="matrix(1.00, 0.00, 0.00, -1.00, 32.0, 562.0)"></path><text xml:space="preserve" font-family="Didot,Didot" font-size="64.0" fill="#304863" transform="matrix(1.00, 0.00, -0.00, -1.00, 32.0, 631.7)">T</text><text xml:space="preserve" font-family="Didot,Didot" font-size="64.0" fill="#304863" transform="matrix(1.00, 0.00, -0.00, -1.00, 74.5, 631.7)">h</text><text xml:space="preserve" font-family="Didot,Didot" font-size="64.0" fill="#304863" transform="matrix(1.00, 0.00, -0.00, -1.00, 112.3, 631.7)">e</text><text xml:space="preserve" font-family="Didot,Didot" font-size="64.0" fill="#304863" transform="matrix(1.00, 0.00, -0.00, -1.00, 143.0, 631.7)"> </text><text xml:space="preserve" font-family="Didot,Didot" font-size="64.0" fill="#304863" transform="matrix(1.00, 0.00, -0.00, -1.00, 159.6, 631.7)">i</text><text xml:space="preserve" font-family="Didot,Didot" font-size="64.0" fill="#304863" transform="matrix(1.00, 0.00, -0.00, -1.00, 177.2, 631.7)">n</text><text xml:space="preserve" font-family="Didot,Didot" font-size="64.0" fill="#304863" transform="matrix(1.00, 0.00, -0.00, -1.00, 215.0, 631.7)">d</text><text xml:space="preserve" font-family="Didot,Didot" font-size="64.0" fill="#304863" transform="matrix(1.00, 0.00, -0.00, -1.00, 251.7, 631.7)">e</text><text xml:space="preserve" font-family="Didot,Didot" font-size="64.0" fill="#304863" transform="matrix(1.00, 0.00, -0.00, -1.00, 281.8, 631.7)">x</text><g><clipPath id="clip0x6080020bddc0"><path d="M 33.5 359.5 L 451.5 359.5 L 451.5 46.5 L 33.5 46.5 Z M 33.5 359.5 "></path></clipPath><g clip-path="url(#clip0x6080020bddc0)"><g><clipPath id="clip0x6080020bc2c0"><path d="M 34.0 359.0 L 138.2 359.0 L 138.2 314.4 L 34.0 314.4 Z M 34.0 359.0 "></path></clipPath><g clip-path="url(#clip0x6080020bc2c0)"><image xlink:href="../../FD143D00-F4AD-4582-B813-3101DA54A4D8/assets/931714CB8B7FE16B9B80A5EAB57E0513.png" width="383.00" height="383.00" transform="matrix(0.50, 0.00, -0.00, -0.50, 34.0, 359.0)"></image></g></g></g></g><g><clipPath id="clip0x6100020be0c0"><path d="M 33.5 359.5 L 451.5 359.5 L 451.5 46.5 L 33.5 46.5 Z M 33.5 359.5 "></path></clipPath><g clip-path="url(#clip0x6100020be0c0)"><g><clipPath id="clip0x6100020be240"><path d="M 138.2 359.0 L 242.5 359.0 L 242.5 314.4 L 138.2 314.4 Z M 138.2 359.0 "></path></clipPath><g clip-path="url(#clip0x6100020be240)"><image xlink:href="../../FD143D00-F4AD-4582-B813-3101DA54A4D8/assets/931714CB8B7FE16B9B80A5EAB57E0513.png" width="383.00" height="383.00" transform="matrix(0.50, 0.00, -0.00, -0.50, 138.2, 359.0)"></image></g></g></g></g><g><clipPath id="clip0x6180022bb0c0"><path d="M 33.5 359.5 L 451.5 359.5 L 451.5 46.5 L 33.5 46.5 Z M 33.5 359.5 "></path></clipPath><g clip-path="url(#clip0x6180022bb0c0)"><g><clipPath id="clip0x6180022bb120"><path d="M 242.5 359.0 L 346.8 359.0 L 346.8 314.4 L 242.5 314.4 Z M 242.5 359.0 "></path></clipPath><g clip-path="url(#clip0x6180022bb120)"><image xlink:href="../../FD143D00-F4AD-4582-B813-3101DA54A4D8/assets/931714CB8B7FE16B9B80A5EAB57E0513.png" width="383.00" height="383.00" transform="matrix(0.50, 0.00, -0.00, -0.50, 242.5, 359.0)"></image></g></g></g></g><g><clipPath id="clip0x6100020be2a0"><path d="M 33.5 359.5 L 451.5 359.5 L 451.5 46.5 L 33.5 46.5 Z M 33.5 359.5 "></path></clipPath><g clip-path="url(#clip0x6100020be2a0)"><g><clipPath id="clip0x6100020be600"><path d="M 346.8 359.0 L 451.0 359.0 L 451.0 314.4 L 346.8 314.4 Z M 346.8 359.0 "></path></clipPath><g clip-path="url(#clip0x6100020be600)"><image xlink:href="../../FD143D00-F4AD-4582-B813-3101DA54A4D8/assets/931714CB8B7FE16B9B80A5EAB57E0513.png" width="383.00" height="383.00" transform="matrix(0.50, 0.00, -0.00, -0.50, 346.8, 359.0)"></image></g></g></g></g><g><clipPath id="clip0x6000032ab700"><path d="M 33.5 359.5 L 451.5 359.5 L 451.5 46.5 L 33.5 46.5 Z M 33.5 359.5 "></path></clipPath><g clip-path="url(#clip0x6000032ab700)"><g><clipPath id="clip0x6000032ab880"><path d="M 34.0 314.4 L 138.2 314.4 L 138.2 269.9 L 34.0 269.9 Z M 34.0 314.4 "></path></clipPath><g clip-path="url(#clip0x6000032ab880)"><image xlink:href="../../FD143D00-F4AD-4582-B813-3101DA54A4D8/assets/931714CB8B7FE16B9B80A5EAB57E0513.png" width="383.00" height="383.00" transform="matrix(0.50, 0.00, -0.00, -0.50, 34.0, 314.4)"></image></g></g></g></g><g><clipPath id="clip0x6100020be660"><path d="M 33.5 359.5 L 451.5 359.5 L 451.5 46.5 L 33.5 46.5 Z M 33.5 359.5 "></path></clipPath><g clip-path="url(#clip0x6100020be660)"><g><clipPath id="clip0x6100020be9c0"><path d="M 138.2 314.4 L 242.5 314.4 L 242.5 269.9 L 138.2 269.9 Z M 138.2 314.4 "></path></clipPath><g clip-path="url(#clip0x6100020be9c0)"><image xlink:href="../../FD143D00-F4AD-4582-B813-3101DA54A4D8/assets/931714CB8B7FE16B9B80A5EAB57E0513.png" width="383.00" height="383.00" transform="matrix(0.50, 0.00, -0.00, -0.50, 138.2, 314.4)"></image></g></g></g></g><g><clipPath id="clip0x6100020bea20"><path d="M 33.5 359.5 L 451.5 359.5 L 451.5 46.5 L 33.5 46.5 Z M 33.5 359.5 "></path></clipPath><g clip-path="url(#clip0x6100020bea20)"><g><clipPath id="clip0x6100020bed80"><path d="M 242.5 314.4 L 346.8 314.4 L 346.8 269.9 L 242.5 269.9 Z M 242.5 314.4 "></path></clipPath><g clip-path="url(#clip0x6100020bed80)"><image xlink:href="../../FD143D00-F4AD-4582-B813-3101DA54A4D8/assets/931714CB8B7FE16B9B80A5EAB57E0513.png" width="383.00" height="383.00" transform="matrix(0.50, 0.00, -0.00, -0.50, 242.5, 314.4)"></image></g></g></g></g><g><clipPath id="clip0x6100020bede0"><path d="M 33.5 359.5 L 451.5 359.5 L 451.5 46.5 L 33.5 46.5 Z M 33.5 359.5 "></path></clipPath><g clip-path="url(#clip0x6100020bede0)"><g><clipPath id="clip0x6100020bf140"><path d="M 346.8 314.4 L 451.0 314.4 L 451.0 269.9 L 346.8 269.9 Z M 346.8 314.4 "></path></clipPath><g clip-path="url(#clip0x6100020bf140)"><image xlink:href="../../FD143D00-F4AD-4582-B813-3101DA54A4D8/assets/931714CB8B7FE16B9B80A5EAB57E0513.png" width="383.00" height="383.00" transform="matrix(0.50, 0.00, -0.00, -0.50, 346.8, 314.4)"></image></g></g></g></g><g><clipPath id="clip0x6180022bb1e0"><path d="M 33.5 359.5 L 451.5 359.5 L 451.5 46.5 L 33.5 46.5 Z M 33.5 359.5 "></path></clipPath><g clip-path="url(#clip0x6180022bb1e0)"><path d="M 34.0 269.9 L 138.2 269.9 L 138.2 225.3 L 34.0 225.3 Z M 34.0 269.9 " fill="#74A1C1"></path><path d="M 138.2 269.9 L 242.5 269.9 L 242.5 225.3 L 138.2 225.3 Z M 138.2 269.9 " fill="#74A1C1"></path><path d="M 34.0 225.3 L 138.2 225.3 L 138.2 180.7 L 34.0 180.7 Z M 34.0 225.3 " fill="#74A1C1"></path><path d="M 138.2 225.3 L 242.5 225.3 L 242.5 180.7 L 138.2 180.7 Z M 138.2 225.3 " fill="#74A1C1"></path><path d="M 34.0 180.7 L 138.2 180.7 L 138.2 136.1 L 34.0 136.1 Z M 34.0 180.7 " fill="#74A1C1"></path><path d="M 138.2 180.7 L 242.5 180.7 L 242.5 136.1 L 138.2 136.1 Z M 138.2 180.7 " fill="#74A1C1"></path><path d="M 34.0 136.1 L 138.2 136.1 L 138.2 91.6 L 34.0 91.6 Z M 34.0 136.1 " fill="#74A1C1"></path><path d="M 138.2 136.1 L 242.5 136.1 L 242.5 91.6 L 138.2 91.6 Z M 138.2 136.1 " fill="#74A1C1"></path><path d="M 34.0 91.6 L 138.2 91.6 L 138.2 47.0 L 34.0 47.0 Z M 34.0 91.6 " fill="#74A1C1"></path><path d="M 138.2 91.6 L 242.5 91.6 L 242.5 47.0 L 138.2 47.0 Z M 138.2 91.6 " fill="#74A1C1"></path></g></g><image xlink:href="../../EAC661A4-9E61-4C9C-A00C-47E54016F95A/assets/095B908C8BA2D5FDEB54BA033F9C8DEC.png" width="96.00" height="30.00" transform="matrix(1.00, 0.00, -0.00, -1.00, 246.0, 345.0)"></image><g><clipPath id="clip0x6180022bb900"><path d="M 33.5 359.5 L 451.5 359.5 L 451.5 46.5 L 33.5 46.5 Z M 33.5 359.5 "></path></clipPath><g clip-path="url(#clip0x6180022bb900)"><g><clipPath id="clip0x6180022bbc60"><path d="M 242.5 314.9 L 346.8 314.9 L 346.8 358.5 L 242.5 358.5 Z M 242.5 314.9 "></path></clipPath><g clip-path="url(#clip0x6180022bbc60)"><text xml:space="preserve" font-family="Palatino-Roman,Palatino" font-size="30.0" fill="#F6F4EE" transform="matrix(1.00, 0.00, -0.00, -1.00, 247.3, 322.8)">s</text><text xml:space="preserve" font-family="Palatino-Roman,Palatino" font-size="30.0" fill="#F6F4EE" transform="matrix(1.00, 0.00, -0.00, -1.00, 260.0, 322.8)">t</text><text xml:space="preserve" font-family="Palatino-Roman,Palatino" font-size="30.0" fill="#F6F4EE" transform="matrix(1.00, 0.00, -0.00, -1.00, 269.8, 322.8)">o</text><text xml:space="preserve" font-family="Palatino-Roman,Palatino" font-size="30.0" fill="#F6F4EE" transform="matrix(1.00, 0.00, -0.00, -1.00, 286.2, 322.8)">r</text><text xml:space="preserve" font-family="Palatino-Roman,Palatino" font-size="30.0" fill="#F6F4EE" transform="matrix(1.00, 0.00, -0.00, -1.00, 297.5, 322.8)">e</text><text xml:space="preserve" font-family="Palatino-Roman,Palatino" font-size="30.0" fill="#F6F4EE" transform="matrix(1.00, 0.00, -0.00, -1.00, 311.9, 322.8)">_</text><text xml:space="preserve" font-family="Palatino-Roman,Palatino" font-size="30.0" fill="#F6F4EE" transform="matrix(1.00, 0.00, -0.00, -1.00, 326.9, 322.8)">1</text></g></g></g></g><image xlink:href="../../D33D0E0A-14B7-49EC-8A2B-9C2ECE828410/assets/7B49A895414E2865F20E360E28578BEA.png" width="97.00" height="30.00" transform="matrix(1.00, 0.00, -0.00, -1.00, 350.0, 345.0)"></image><g><clipPath id="clip0x6180022bbfc0"><path d="M 33.5 359.5 L 451.5 359.5 L 451.5 46.5 L 33.5 46.5 Z M 33.5 359.5 "></path></clipPath><g clip-path="url(#clip0x6180022bbfc0)"><g><clipPath id="clip0x6180022bc320"><path d="M 346.8 314.9 L 450.5 314.9 L 450.5 358.5 L 346.8 358.5 Z M 346.8 314.9 "></path></clipPath><g clip-path="url(#clip0x6180022bc320)"><text xml:space="preserve" font-family="Palatino-Roman,Palatino" font-size="30.0" fill="#F6F4EE" transform="matrix(1.00, 0.00, -0.00, -1.00, 351.3, 322.8)">s</text><text xml:space="preserve" font-family="Palatino-Roman,Palatino" font-size="30.0" fill="#F6F4EE" transform="matrix(1.00, 0.00, -0.00, -1.00, 364.0, 322.8)">t</text><text xml:space="preserve" font-family="Palatino-Roman,Palatino" font-size="30.0" fill="#F6F4EE" transform="matrix(1.00, 0.00, -0.00, -1.00, 373.8, 322.8)">o</text><text xml:space="preserve" font-family="Palatino-Roman,Palatino" font-size="30.0" fill="#F6F4EE" transform="matrix(1.00, 0.00, -0.00, -1.00, 390.2, 322.8)">r</text><text xml:space="preserve" font-family="Palatino-Roman,Palatino" font-size="30.0" fill="#F6F4EE" transform="matrix(1.00, 0.00, -0.00, -1.00, 401.5, 322.8)">e</text><text xml:space="preserve" font-family="Palatino-Roman,Palatino" font-size="30.0" fill="#F6F4EE" transform="matrix(1.00, 0.00, -0.00, -1.00, 415.9, 322.8)">_</text><text xml:space="preserve" font-family="Palatino-Roman,Palatino" font-size="30.0" fill="#F6F4EE" transform="matrix(1.00, 0.00, -0.00, -1.00, 430.9, 322.8)">2</text></g></g></g></g><g><clipPath id="clip0x6180022bc7a0"><path d="M 33.5 359.5 L 451.5 359.5 L 451.5 46.5 L 33.5 46.5 Z M 33.5 359.5 "></path></clipPath><g clip-path="url(#clip0x6180022bc7a0)"><g><clipPath id="clip0x6180022bc920"><path d="M 138.8 270.4 L 242.0 270.4 L 242.0 313.9 L 138.8 313.9 Z M 138.8 270.4 "></path></clipPath><g clip-path="url(#clip0x6180022bc920)"><text xml:space="preserve" font-family="Palatino-Roman,Palatino" font-size="30.0" fill="#FEFFFE" transform="matrix(1.00, 0.00, -0.00, -1.00, 161.4, 278.2)">y</text><text xml:space="preserve" font-family="Palatino-Roman,Palatino" font-size="30.0" fill="#FEFFFE" transform="matrix(1.00, 0.00, -0.00, -1.00, 178.1, 278.2)">e</text><text xml:space="preserve" font-family="Palatino-Roman,Palatino" font-size="30.0" fill="#FEFFFE" transform="matrix(1.00, 0.00, -0.00, -1.00, 192.5, 278.2)">a</text><text xml:space="preserve" font-family="Palatino-Roman,Palatino" font-size="30.0" fill="#FEFFFE" transform="matrix(1.00, 0.00, -0.00, -1.00, 207.5, 278.2)">r</text></g></g></g></g><g><clipPath id="clip0x6180022bcc80"><path d="M 33.5 359.5 L 451.5 359.5 L 451.5 46.5 L 33.5 46.5 Z M 33.5 359.5 "></path></clipPath><g clip-path="url(#clip0x6180022bcc80)"><g><clipPath id="clip0x6180022bce00"><path d="M 34.5 225.3 L 137.8 225.3 L 137.8 269.4 L 34.5 269.4 Z M 34.5 225.3 "></path></clipPath><g clip-path="url(#clip0x6180022bce00)"><text xml:space="preserve" font-family="Palatino-Roman,Palatino" font-size="30.0" fill="#FEFFFE" transform="matrix(1.00, 0.00, -0.00, -1.00, 64.4, 233.7)">o</text><text xml:space="preserve" font-family="Palatino-Roman,Palatino" font-size="30.0" fill="#FEFFFE" transform="matrix(1.00, 0.00, -0.00, -1.00, 80.8, 233.7)">l</text><text xml:space="preserve" font-family="Palatino-Roman,Palatino" font-size="30.0" fill="#FEFFFE" transform="matrix(1.00, 0.00, -0.00, -1.00, 89.5, 233.7)">d</text></g></g></g></g><g><clipPath id="clip0x6180022bd100"><path d="M 33.5 359.5 L 451.5 359.5 L 451.5 46.5 L 33.5 46.5 Z M 33.5 359.5 "></path></clipPath><g clip-path="url(#clip0x6180022bd100)"><g><clipPath id="clip0x6180022bd280"><path d="M 138.8 225.8 L 242.0 225.8 L 242.0 269.4 L 138.8 269.4 Z M 138.8 225.8 "></path></clipPath><g clip-path="url(#clip0x6180022bd280)"><text xml:space="preserve" font-family="Palatino-Roman,Palatino" font-size="30.0" fill="#FEFFFE" transform="matrix(1.00, 0.00, -0.00, -1.00, 160.4, 233.7)">2</text><text xml:space="preserve" font-family="Palatino-Roman,Palatino" font-size="30.0" fill="#FEFFFE" transform="matrix(1.00, 0.00, -0.00, -1.00, 175.4, 233.7)">0</text><text xml:space="preserve" font-family="Palatino-Roman,Palatino" font-size="30.0" fill="#FEFFFE" transform="matrix(1.00, 0.00, -0.00, -1.00, 190.4, 233.7)">1</text><text xml:space="preserve" font-family="Palatino-Roman,Palatino" font-size="30.0" fill="#FEFFFE" transform="matrix(1.00, 0.00, -0.00, -1.00, 205.4, 233.7)">2</text></g></g></g></g><image xlink:href="../../EAC661A4-9E61-4C9C-A00C-47E54016F95A/assets/F9993636BA4A5427148D267FA5076B2E.png" width="49.00" height="26.00" transform="matrix(1.00, 0.00, -0.00, -1.00, 270.0, 256.0)"></image><g><clipPath id="clip0x6180022bd4c0"><path d="M 33.5 359.5 L 451.5 359.5 L 451.5 46.5 L 33.5 46.5 Z M 33.5 359.5 "></path></clipPath><g clip-path="url(#clip0x6180022bd4c0)"><g><clipPath id="clip0x6180022bd820"><path d="M 243.0 225.8 L 346.2 225.8 L 346.2 269.4 L 243.0 269.4 Z M 243.0 225.8 "></path></clipPath><g clip-path="url(#clip0x6180022bd820)"><text xml:space="preserve" font-family="Palatino-Roman,Palatino" font-size="30.0" fill="#6C6A66" transform="matrix(1.00, 0.00, -0.00, -1.00, 272.1, 233.7)">5</text><text xml:space="preserve" font-family="Palatino-Roman,Palatino" font-size="30.0" fill="#6C6A66" transform="matrix(1.00, 0.00, -0.00, -1.00, 287.1, 233.7)">8</text><text xml:space="preserve" font-family="Palatino-Roman,Palatino" font-size="30.0" fill="#6C6A66" transform="matrix(1.00, 0.00, -0.00, -1.00, 302.1, 233.7)">4</text></g></g></g></g><image xlink:href="../../EAC661A4-9E61-4C9C-A00C-47E54016F95A/assets/4FCA36DBE37455CB07297BFF1DD791F5.png" width="62.00" height="26.00" transform="matrix(1.00, 0.00, -0.00, -1.00, 368.0, 256.0)"></image><g><clipPath id="clip0x6180022bda00"><path d="M 33.5 359.5 L 451.5 359.5 L 451.5 46.5 L 33.5 46.5 Z M 33.5 359.5 "></path></clipPath><g clip-path="url(#clip0x6180022bda00)"><g><clipPath id="clip0x6180022bdd60"><path d="M 347.2 225.8 L 450.5 225.8 L 450.5 269.4 L 347.2 269.4 Z M 347.2 225.8 "></path></clipPath><g clip-path="url(#clip0x6180022bdd60)"><text xml:space="preserve" font-family="Palatino-Roman,Palatino" font-size="30.0" fill="#6C6A66" transform="matrix(1.00, 0.00, -0.00, -1.00, 368.9, 233.7)">1</text><text xml:space="preserve" font-family="Palatino-Roman,Palatino" font-size="30.0" fill="#6C6A66" transform="matrix(1.00, 0.00, -0.00, -1.00, 383.9, 233.7)">0</text><text xml:space="preserve" font-family="Palatino-Roman,Palatino" font-size="30.0" fill="#6C6A66" transform="matrix(1.00, 0.00, -0.00, -1.00, 398.9, 233.7)">3</text><text xml:space="preserve" font-family="Palatino-Roman,Palatino" font-size="30.0" fill="#6C6A66" transform="matrix(1.00, 0.00, -0.00, -1.00, 413.9, 233.7)">2</text></g></g></g></g><g><clipPath id="clip0x6180022be0c0"><path d="M 33.5 359.5 L 451.5 359.5 L 451.5 46.5 L 33.5 46.5 Z M 33.5 359.5 "></path></clipPath><g clip-path="url(#clip0x6180022be0c0)"><g><clipPath id="clip0x6180022be240"><path d="M 138.8 181.2 L 242.0 181.2 L 242.0 224.8 L 138.8 224.8 Z M 138.8 181.2 "></path></clipPath><g clip-path="url(#clip0x6180022be240)"><text xml:space="preserve" font-family="Palatino-Roman,Palatino" font-size="30.0" fill="#FEFFFE" transform="matrix(1.00, 0.00, -0.00, -1.00, 160.4, 189.1)">2</text><text xml:space="preserve" font-family="Palatino-Roman,Palatino" font-size="30.0" fill="#FEFFFE" transform="matrix(1.00, 0.00, -0.00, -1.00, 175.4, 189.1)">0</text><text xml:space="preserve" font-family="Palatino-Roman,Palatino" font-size="30.0" fill="#FEFFFE" transform="matrix(1.00, 0.00, -0.00, -1.00, 190.4, 189.1)">1</text><text xml:space="preserve" font-family="Palatino-Roman,Palatino" font-size="30.0" fill="#FEFFFE" transform="matrix(1.00, 0.00, -0.00, -1.00, 205.4, 189.1)">3</text></g></g></g></g><image xlink:href="../../EAC661A4-9E61-4C9C-A00C-47E54016F95A/assets/0061DCB8E0B4C809623DBA6F366DC2A9.png" width="46.00" height="27.00" transform="matrix(1.00, 0.00, -0.00, -1.00, 271.0, 212.0)"></image><g><clipPath id="clip0x6180022be480"><path d="M 33.5 359.5 L 451.5 359.5 L 451.5 46.5 L 33.5 46.5 Z M 33.5 359.5 "></path></clipPath><g clip-path="url(#clip0x6180022be480)"><g><clipPath id="clip0x6180022be7e0"><path d="M 243.0 181.2 L 346.2 181.2 L 346.2 224.8 L 243.0 224.8 Z M 243.0 181.2 "></path></clipPath><g clip-path="url(#clip0x6180022be7e0)"><text xml:space="preserve" font-family="Palatino-Roman,Palatino" font-size="30.0" fill="#6C6A66" transform="matrix(1.00, 0.00, -0.00, -1.00, 272.1, 189.1)">6</text><text xml:space="preserve" font-family="Palatino-Roman,Palatino" font-size="30.0" fill="#6C6A66" transform="matrix(1.00, 0.00, -0.00, -1.00, 287.1, 189.1)">0</text><text xml:space="preserve" font-family="Palatino-Roman,Palatino" font-size="30.0" fill="#6C6A66" transform="matrix(1.00, 0.00, -0.00, -1.00, 302.1, 189.1)">1</text></g></g></g></g><image xlink:href="../../EAC661A4-9E61-4C9C-A00C-47E54016F95A/assets/B34C7C69036BB79257A83E7301A53796.png" width="48.00" height="26.00" transform="matrix(1.00, 0.00, -0.00, -1.00, 375.0, 211.0)"></image><g><clipPath id="clip0x6180022be9c0"><path d="M 33.5 359.5 L 451.5 359.5 L 451.5 46.5 L 33.5 46.5 Z M 33.5 359.5 "></path></clipPath><g clip-path="url(#clip0x6180022be9c0)"><g><clipPath id="clip0x6180022bed20"><path d="M 347.2 181.2 L 450.5 181.2 L 450.5 224.8 L 347.2 224.8 Z M 347.2 181.2 "></path></clipPath><g clip-path="url(#clip0x6180022bed20)"><text xml:space="preserve" font-family="Palatino-Roman,Palatino" font-size="30.0" fill="#6C6A66" transform="matrix(1.00, 0.00, -0.00, -1.00, 376.4, 189.1)">9</text><text xml:space="preserve" font-family="Palatino-Roman,Palatino" font-size="30.0" fill="#6C6A66" transform="matrix(1.00, 0.00, -0.00, -1.00, 391.4, 189.1)">6</text><text xml:space="preserve" font-family="Palatino-Roman,Palatino" font-size="30.0" fill="#6C6A66" transform="matrix(1.00, 0.00, -0.00, -1.00, 406.4, 189.1)">0</text></g></g></g></g><g><clipPath id="clip0x6180022bf020"><path d="M 33.5 359.5 L 451.5 359.5 L 451.5 46.5 L 33.5 46.5 Z M 33.5 359.5 "></path></clipPath><g clip-path="url(#clip0x6180022bf020)"><g><clipPath id="clip0x6180022bf1a0"><path d="M 34.5 136.1 L 137.8 136.1 L 137.8 180.2 L 34.5 180.2 Z M 34.5 136.1 "></path></clipPath><g clip-path="url(#clip0x6180022bf1a0)"><text xml:space="preserve" font-family="Palatino-Roman,Palatino" font-size="30.0" fill="#FEFFFE" transform="matrix(1.00, 0.00, -0.00, -1.00, 57.7, 144.5)">n</text><text xml:space="preserve" font-family="Palatino-Roman,Palatino" font-size="30.0" fill="#FEFFFE" transform="matrix(1.00, 0.00, -0.00, -1.00, 75.2, 144.5)">e</text><text xml:space="preserve" font-family="Palatino-Roman,Palatino" font-size="30.0" fill="#FEFFFE" transform="matrix(1.00, 0.00, -0.00, -1.00, 89.5, 144.5)">w</text></g></g></g></g><g><clipPath id="clip0x6180022bf4a0"><path d="M 33.5 359.5 L 451.5 359.5 L 451.5 46.5 L 33.5 46.5 Z M 33.5 359.5 "></path></clipPath><g clip-path="url(#clip0x6180022bf4a0)"><g><clipPath id="clip0x6180022bf620"><path d="M 138.8 136.6 L 242.0 136.6 L 242.0 180.2 L 138.8 180.2 Z M 138.8 136.6 "></path></clipPath><g clip-path="url(#clip0x6180022bf620)"><text xml:space="preserve" font-family="Palatino-Roman,Palatino" font-size="30.0" fill="#FEFFFE" transform="matrix(1.00, 0.00, -0.00, -1.00, 160.4, 144.5)">2</text><text xml:space="preserve" font-family="Palatino-Roman,Palatino" font-size="30.0" fill="#FEFFFE" transform="matrix(1.00, 0.00, -0.00, -1.00, 175.4, 144.5)">0</text><text xml:space="preserve" font-family="Palatino-Roman,Palatino" font-size="30.0" fill="#FEFFFE" transform="matrix(1.00, 0.00, -0.00, -1.00, 190.4, 144.5)">1</text><text xml:space="preserve" font-family="Palatino-Roman,Palatino" font-size="30.0" fill="#FEFFFE" transform="matrix(1.00, 0.00, -0.00, -1.00, 205.4, 144.5)">4</text></g></g></g></g><image xlink:href="../../EAC661A4-9E61-4C9C-A00C-47E54016F95A/assets/236FA6291DA4CB2C75137FA298CD01D7.png" width="48.00" height="26.00" transform="matrix(1.00, 0.00, -0.00, -1.00, 270.0, 167.0)"></image><g><clipPath id="clip0x6180022bf860"><path d="M 33.5 359.5 L 451.5 359.5 L 451.5 46.5 L 33.5 46.5 Z M 33.5 359.5 "></path></clipPath><g clip-path="url(#clip0x6180022bf860)"><g><clipPath id="clip0x6180022bfbc0"><path d="M 243.0 136.6 L 346.2 136.6 L 346.2 180.2 L 243.0 180.2 Z M 243.0 136.6 "></path></clipPath><g clip-path="url(#clip0x6180022bfbc0)"><text xml:space="preserve" font-family="Palatino-Roman,Palatino" font-size="30.0" fill="#6C6A66" transform="matrix(1.00, 0.00, -0.00, -1.00, 272.1, 144.5)">4</text><text xml:space="preserve" font-family="Palatino-Roman,Palatino" font-size="30.0" fill="#6C6A66" transform="matrix(1.00, 0.00, -0.00, -1.00, 287.1, 144.5)">0</text><text xml:space="preserve" font-family="Palatino-Roman,Palatino" font-size="30.0" fill="#6C6A66" transform="matrix(1.00, 0.00, -0.00, -1.00, 302.1, 144.5)">3</text></g></g></g></g><image xlink:href="../../EAC661A4-9E61-4C9C-A00C-47E54016F95A/assets/CE74C42A482C7619F724A3CD912AE9F3.png" width="62.00" height="26.00" transform="matrix(1.00, 0.00, -0.00, -1.00, 368.0, 167.0)"></image><g><clipPath id="clip0x6180022bfda0"><path d="M 33.5 359.5 L 451.5 359.5 L 451.5 46.5 L 33.5 46.5 Z M 33.5 359.5 "></path></clipPath><g clip-path="url(#clip0x6180022bfda0)"><g><clipPath id="clip0x6180024a0120"><path d="M 347.2 136.6 L 450.5 136.6 L 450.5 180.2 L 347.2 180.2 Z M 347.2 136.6 "></path></clipPath><g clip-path="url(#clip0x6180024a0120)"><text xml:space="preserve" font-family="Palatino-Roman,Palatino" font-size="30.0" fill="#6C6A66" transform="matrix(1.00, 0.00, -0.00, -1.00, 368.9, 144.5)">1</text><text xml:space="preserve" font-family="Palatino-Roman,Palatino" font-size="30.0" fill="#6C6A66" transform="matrix(1.00, 0.00, -0.00, -1.00, 383.9, 144.5)">4</text><text xml:space="preserve" font-family="Palatino-Roman,Palatino" font-size="30.0" fill="#6C6A66" transform="matrix(1.00, 0.00, -0.00, -1.00, 398.9, 144.5)">0</text><text xml:space="preserve" font-family="Palatino-Roman,Palatino" font-size="30.0" fill="#6C6A66" transform="matrix(1.00, 0.00, -0.00, -1.00, 413.9, 144.5)">0</text></g></g></g></g><g><clipPath id="clip0x6180024a0480"><path d="M 33.5 359.5 L 451.5 359.5 L 451.5 46.5 L 33.5 46.5 Z M 33.5 359.5 "></path></clipPath><g clip-path="url(#clip0x6180024a0480)"><g><clipPath id="clip0x6180024a0600"><path d="M 138.8 92.1 L 242.0 92.1 L 242.0 135.6 L 138.8 135.6 Z M 138.8 92.1 "></path></clipPath><g clip-path="url(#clip0x6180024a0600)"><text xml:space="preserve" font-family="Palatino-Roman,Palatino" font-size="30.0" fill="#FEFFFE" transform="matrix(1.00, 0.00, -0.00, -1.00, 160.4, 100.0)">2</text><text xml:space="preserve" font-family="Palatino-Roman,Palatino" font-size="30.0" fill="#FEFFFE" transform="matrix(1.00, 0.00, -0.00, -1.00, 175.4, 100.0)">0</text><text xml:space="preserve" font-family="Palatino-Roman,Palatino" font-size="30.0" fill="#FEFFFE" transform="matrix(1.00, 0.00, -0.00, -1.00, 190.4, 100.0)">1</text><text xml:space="preserve" font-family="Palatino-Roman,Palatino" font-size="30.0" fill="#FEFFFE" transform="matrix(1.00, 0.00, -0.00, -1.00, 205.4, 100.0)">5</text></g></g></g></g><image xlink:href="../../EAC661A4-9E61-4C9C-A00C-47E54016F95A/assets/0C0B544B97E872541E588A3878B9421B.png" width="49.00" height="26.00" transform="matrix(1.00, 0.00, -0.00, -1.00, 270.0, 122.0)"></image><g><clipPath id="clip0x6180024a0840"><path d="M 33.5 359.5 L 451.5 359.5 L 451.5 46.5 L 33.5 46.5 Z M 33.5 359.5 "></path></clipPath><g clip-path="url(#clip0x6180024a0840)"><g><clipPath id="clip0x6180024a0ba0"><path d="M 243.0 92.1 L 346.2 92.1 L 346.2 135.6 L 243.0 135.6 Z M 243.0 92.1 "></path></clipPath><g clip-path="url(#clip0x6180024a0ba0)"><text xml:space="preserve" font-family="Palatino-Roman,Palatino" font-size="30.0" fill="#6C6A66" transform="matrix(1.00, 0.00, -0.00, -1.00, 272.1, 100.0)">4</text><text xml:space="preserve" font-family="Palatino-Roman,Palatino" font-size="30.0" fill="#6C6A66" transform="matrix(1.00, 0.00, -0.00, -1.00, 287.1, 100.0)">8</text><text xml:space="preserve" font-family="Palatino-Roman,Palatino" font-size="30.0" fill="#6C6A66" transform="matrix(1.00, 0.00, -0.00, -1.00, 302.1, 100.0)">0</text></g></g></g></g><image xlink:href="../../EAC661A4-9E61-4C9C-A00C-47E54016F95A/assets/E1183F538784156C33F085D888ABB483.png" width="62.00" height="26.00" transform="matrix(1.00, 0.00, -0.00, -1.00, 368.0, 122.0)"></image><g><clipPath id="clip0x6180024a0d80"><path d="M 33.5 359.5 L 451.5 359.5 L 451.5 46.5 L 33.5 46.5 Z M 33.5 359.5 "></path></clipPath><g clip-path="url(#clip0x6180024a0d80)"><g><clipPath id="clip0x6180024a10e0"><path d="M 347.2 92.1 L 450.5 92.1 L 450.5 135.6 L 347.2 135.6 Z M 347.2 92.1 "></path></clipPath><g clip-path="url(#clip0x6180024a10e0)"><text xml:space="preserve" font-family="Palatino-Roman,Palatino" font-size="30.0" fill="#6C6A66" transform="matrix(1.00, 0.00, -0.00, -1.00, 368.9, 100.0)">1</text><text xml:space="preserve" font-family="Palatino-Roman,Palatino" font-size="30.0" fill="#6C6A66" transform="matrix(1.00, 0.00, -0.00, -1.00, 383.9, 100.0)">3</text><text xml:space="preserve" font-family="Palatino-Roman,Palatino" font-size="30.0" fill="#6C6A66" transform="matrix(1.00, 0.00, -0.00, -1.00, 398.9, 100.0)">5</text><text xml:space="preserve" font-family="Palatino-Roman,Palatino" font-size="30.0" fill="#6C6A66" transform="matrix(1.00, 0.00, -0.00, -1.00, 413.9, 100.0)">5</text></g></g></g></g><g><clipPath id="clip0x6180024a1440"><path d="M 33.5 359.5 L 451.5 359.5 L 451.5 46.5 L 33.5 46.5 Z M 33.5 359.5 "></path></clipPath><g clip-path="url(#clip0x6180024a1440)"><g><clipPath id="clip0x6180024a15c0"><path d="M 138.8 47.5 L 242.0 47.5 L 242.0 91.1 L 138.8 91.1 Z M 138.8 47.5 "></path></clipPath><g clip-path="url(#clip0x6180024a15c0)"><text xml:space="preserve" font-family="Palatino-Roman,Palatino" font-size="30.0" fill="#FEFFFE" transform="matrix(1.00, 0.00, -0.00, -1.00, 160.4, 55.4)">2</text><text xml:space="preserve" font-family="Palatino-Roman,Palatino" font-size="30.0" fill="#FEFFFE" transform="matrix(1.00, 0.00, -0.00, -1.00, 175.4, 55.4)">0</text><text xml:space="preserve" font-family="Palatino-Roman,Palatino" font-size="30.0" fill="#FEFFFE" transform="matrix(1.00, 0.00, -0.00, -1.00, 190.4, 55.4)">1</text><text xml:space="preserve" font-family="Palatino-Roman,Palatino" font-size="30.0" fill="#FEFFFE" transform="matrix(1.00, 0.00, -0.00, -1.00, 205.4, 55.4)">6</text></g></g></g></g><image xlink:href="../../EAC661A4-9E61-4C9C-A00C-47E54016F95A/assets/997BC2A7FF9D7A31CC9B45A879AA4D44.png" width="69.00" height="27.00" transform="matrix(1.00, 0.00, -0.00, -1.00, 260.0, 78.0)"></image><g><clipPath id="clip0x6180024a1800"><path d="M 33.5 359.5 L 451.5 359.5 L 451.5 46.5 L 33.5 46.5 Z M 33.5 359.5 "></path></clipPath><g clip-path="url(#clip0x6180024a1800)"><g><clipPath id="clip0x6180024a1b60"><path d="M 243.0 47.5 L 346.2 47.5 L 346.2 91.1 L 243.0 91.1 Z M 243.0 47.5 "></path></clipPath><g clip-path="url(#clip0x6180024a1b60)"><text xml:space="preserve" font-family="Palatino-Roman,Palatino" font-size="30.0" fill="#6C6A66" transform="matrix(1.00, 0.00, -0.00, -1.00, 262.2, 55.4)">N</text><text xml:space="preserve" font-family="Palatino-Roman,Palatino" font-size="30.0" fill="#6C6A66" transform="matrix(1.00, 0.00, -0.00, -1.00, 287.1, 55.4)">a</text><text xml:space="preserve" font-family="Palatino-Roman,Palatino" font-size="30.0" fill="#6C6A66" transform="matrix(1.00, 0.00, -0.00, -1.00, 302.1, 55.4)">N</text></g></g></g></g><image xlink:href="../../EAC661A4-9E61-4C9C-A00C-47E54016F95A/assets/E3BAD2EFAC2E9196E607789340681243.png" width="49.00" height="27.00" transform="matrix(1.00, 0.00, -0.00, -1.00, 374.0, 78.0)"></image><g><clipPath id="clip0x6180024a1d40"><path d="M 33.5 359.5 L 451.5 359.5 L 451.5 46.5 L 33.5 46.5 Z M 33.5 359.5 "></path></clipPath><g clip-path="url(#clip0x6180024a1d40)"><g><clipPath id="clip0x6180024a20a0"><path d="M 347.2 47.5 L 450.5 47.5 L 450.5 91.1 L 347.2 91.1 Z M 347.2 47.5 "></path></clipPath><g clip-path="url(#clip0x6180024a20a0)"><text xml:space="preserve" font-family="Palatino-Roman,Palatino" font-size="30.0" fill="#6C6A66" transform="matrix(1.00, 0.00, -0.00, -1.00, 376.4, 55.4)">3</text><text xml:space="preserve" font-family="Palatino-Roman,Palatino" font-size="30.0" fill="#6C6A66" transform="matrix(1.00, 0.00, -0.00, -1.00, 391.4, 55.4)">0</text><text xml:space="preserve" font-family="Palatino-Roman,Palatino" font-size="30.0" fill="#6C6A66" transform="matrix(1.00, 0.00, -0.00, -1.00, 406.4, 55.4)">0</text></g></g></g></g><g><clipPath id="clip0x6180024a23a0"><path d="M 33.5 359.5 L 451.5 359.5 L 451.5 46.5 L 33.5 46.5 Z M 33.5 359.5 "></path></clipPath><g clip-path="url(#clip0x6180024a23a0)"><path d="M 106.2 46.1 L 106.2 314.5 " fill="none" stroke="#7695B5" stroke-width="1.00" transform="matrix(1.00, 0.00, 0.00, -1.00, 32.0, 361.0)"></path><path d="M 210.5 46.1 L 210.5 314.5 " fill="none" stroke="#7695B5" stroke-width="1.00" transform="matrix(1.00, 0.00, 0.00, -1.00, 32.0, 361.0)"></path><path d="M 314.8 46.1 L 314.8 314.5 " fill="none" stroke="#7695B5" stroke-width="1.00" transform="matrix(1.00, 0.00, 0.00, -1.00, 32.0, 361.0)"></path><path d="M 1.5 91.1 L 419.5 91.1 " fill="none" stroke="#7695B5" stroke-width="1.00" transform="matrix(1.00, 0.00, 0.00, -1.00, 32.0, 361.0)"></path><path d="M 105.8 135.7 L 419.5 135.7 " fill="none" stroke="#7695B5" stroke-width="1.00" transform="matrix(1.00, 0.00, 0.00, -1.00, 32.0, 361.0)"></path><path d="M 1.5 180.3 L 419.5 180.3 " fill="none" stroke="#7695B5" stroke-width="1.00" transform="matrix(1.00, 0.00, 0.00, -1.00, 32.0, 361.0)"></path><path d="M 105.8 224.9 L 419.5 224.9 " fill="none" stroke="#7695B5" stroke-width="1.00" transform="matrix(1.00, 0.00, 0.00, -1.00, 32.0, 361.0)"></path><path d="M 105.8 269.4 L 419.5 269.4 " fill="none" stroke="#7695B5" stroke-width="1.00" transform="matrix(1.00, 0.00, 0.00, -1.00, 32.0, 361.0)"></path><path d="M 2.0 1.5 L 2.0 46.6 " fill="none" stroke="#7595B5" stroke-width="1.00" transform="matrix(1.00, 0.00, 0.00, -1.00, 32.0, 361.0)"></path><path d="M 2.0 46.6 L 2.0 314.5 " fill="none" stroke="#7595B5" stroke-width="1.00" transform="matrix(1.00, 0.00, 0.00, -1.00, 32.0, 361.0)"></path><path d="M 419.0 1.5 L 419.0 46.6 " fill="none" stroke="#7595B5" stroke-width="1.00" transform="matrix(1.00, 0.00, 0.00, -1.00, 32.0, 361.0)"></path><path d="M 419.0 46.6 L 419.0 314.5 " fill="none" stroke="#7595B5" stroke-width="1.00" transform="matrix(1.00, 0.00, 0.00, -1.00, 32.0, 361.0)"></path><path d="M 1.5 2.0 L 419.5 2.0 " fill="none" stroke="#7595B5" stroke-width="1.00" transform="matrix(1.00, 0.00, 0.00, -1.00, 32.0, 361.0)"></path><path d="M 1.5 314.0 L 419.5 314.0 " fill="none" stroke="#7595B5" stroke-width="1.00" transform="matrix(1.00, 0.00, 0.00, -1.00, 32.0, 361.0)"></path></g></g><text xml:space="preserve" font-family="Palatino-Italic,Palatino" font-style="italic" font-size="30.0" fill="#324763" transform="matrix(1.00, 0.00, -0.00, -1.00, 36.7, 372.3)">g</text><text xml:space="preserve" font-family="Palatino-Italic,Palatino" font-style="italic" font-size="30.0" fill="#324763" transform="matrix(1.00, 0.00, -0.00, -1.00, 51.7, 372.3)">u</text><text xml:space="preserve" font-family="Palatino-Italic,Palatino" font-style="italic" font-size="30.0" fill="#324763" transform="matrix(1.00, 0.00, -0.00, -1.00, 68.4, 372.3)">i</text><text xml:space="preserve" font-family="Palatino-Italic,Palatino" font-style="italic" font-size="30.0" fill="#324763" transform="matrix(1.00, 0.00, -0.00, -1.00, 76.7, 372.3)">t</text><text xml:space="preserve" font-family="Palatino-Italic,Palatino" font-style="italic" font-size="30.0" fill="#324763" transform="matrix(1.00, 0.00, -0.00, -1.00, 86.7, 372.3)">a</text><text xml:space="preserve" font-family="Palatino-Italic,Palatino" font-style="italic" font-size="30.0" fill="#324763" transform="matrix(1.00, 0.00, -0.00, -1.00, 100.0, 372.3)">r</text><text xml:space="preserve" font-family="Palatino-Italic,Palatino" font-style="italic" font-size="30.0" fill="#324763" transform="matrix(1.00, 0.00, -0.00, -1.00, 111.7, 372.3)">s</text><path d="M 28.0 531.0 L 996.0 531.0 L 996.0 495.0 L 28.0 495.0 Z M 28.4 531.0 " fill="#FEFFFE"></path><path d="M -0.4 -0.0 L 967.6 -0.0 L 967.6 36.0 L -0.4 36.0 Z M 0.0 0.0 " fill="none" stroke="#A8A49C" stroke-width="2.00" transform="matrix(1.00, 0.00, 0.00, -1.00, 28.4, 531.0)"></path><g><clipPath id="clip0x6180024a2fa0"><path d="M 27.9 494.5 L 996.1 494.5 L 996.1 531.5 L 27.9 531.5 Z M 27.9 494.5 "></path></clipPath><g clip-path="url(#clip0x6180024a2fa0)"><text xml:space="preserve" font-family="Courier,Courier" font-size="22.0" fill="#000000" transform="matrix(1.00, 0.00, -0.00, -1.00, 33.4, 505.4)">g</text><text xml:space="preserve" font-family="Courier,Courier" font-size="22.0" fill="#000000" transform="matrix(1.00, 0.00, -0.00, -1.00, 46.6, 505.4)">u</text><text xml:space="preserve" font-family="Courier,Courier" font-size="22.0" fill="#000000" transform="matrix(1.00, 0.00, -0.00, -1.00, 59.8, 505.4)">i</text><text xml:space="preserve" font-family="Courier,Courier" font-size="22.0" fill="#000000" transform="matrix(1.00, 0.00, -0.00, -1.00, 73.0, 505.4)">t</text><text xml:space="preserve" font-family="Courier,Courier" font-size="22.0" fill="#000000" transform="matrix(1.00, 0.00, -0.00, -1.00, 86.2, 505.4)">a</text><text xml:space="preserve" font-family="Courier,Courier" font-size="22.0" fill="#000000" transform="matrix(1.00, 0.00, -0.00, -1.00, 99.4, 505.4)">r</text><text xml:space="preserve" font-family="Courier,Courier" font-size="22.0" fill="#000000" transform="matrix(1.00, 0.00, -0.00, -1.00, 112.6, 505.4)">s</text><text xml:space="preserve" font-family="Courier,Courier" font-size="22.0" fill="#797979" transform="matrix(1.00, 0.00, -0.00, -1.00, 125.8, 505.4)">.</text><text xml:space="preserve" font-family="Courier,Courier" font-size="22.0" fill="#000000" transform="matrix(1.00, 0.00, -0.00, -1.00, 139.0, 505.4)">s</text><text xml:space="preserve" font-family="Courier,Courier" font-size="22.0" fill="#000000" transform="matrix(1.00, 0.00, -0.00, -1.00, 152.2, 505.4)">e</text><text xml:space="preserve" font-family="Courier,Courier" font-size="22.0" fill="#000000" transform="matrix(1.00, 0.00, -0.00, -1.00, 165.4, 505.4)">t</text><text xml:space="preserve" font-family="Courier,Courier" font-size="22.0" fill="#000000" transform="matrix(1.00, 0.00, -0.00, -1.00, 178.6, 505.4)">_</text><text xml:space="preserve" font-family="Courier,Courier" font-size="22.0" fill="#000000" transform="matrix(1.00, 0.00, -0.00, -1.00, 191.8, 505.4)">i</text><text xml:space="preserve" font-family="Courier,Courier" font-size="22.0" fill="#000000" transform="matrix(1.00, 0.00, -0.00, -1.00, 205.0, 505.4)">n</text><text xml:space="preserve" font-family="Courier,Courier" font-size="22.0" fill="#000000" transform="matrix(1.00, 0.00, -0.00, -1.00, 218.2, 505.4)">d</text><text xml:space="preserve" font-family="Courier,Courier" font-size="22.0" fill="#000000" transform="matrix(1.00, 0.00, -0.00, -1.00, 231.4, 505.4)">e</text><text xml:space="preserve" font-family="Courier,Courier" font-size="22.0" fill="#000000" transform="matrix(1.00, 0.00, -0.00, -1.00, 244.6, 505.4)">x</text><text xml:space="preserve" font-family="Courier,Courier" font-size="22.0" fill="#000000" transform="matrix(1.00, 0.00, -0.00, -1.00, 257.8, 505.4)">(</text><text xml:space="preserve" font-family="Courier,Courier" font-size="22.0" fill="#000000" transform="matrix(1.00, 0.00, -0.00, -1.00, 271.0, 505.4)">[</text><text xml:space="preserve" font-family="Courier,Courier" font-size="22.0" fill="#000000" transform="matrix(1.00, 0.00, -0.00, -1.00, 284.2, 505.4)">[</text><text xml:space="preserve" font-family="Courier,Courier" font-size="22.0" fill="#C8352B" transform="matrix(1.00, 0.00, -0.00, -1.00, 297.4, 505.4)">'</text><text xml:space="preserve" font-family="Courier,Courier" font-size="22.0" fill="#C8352B" transform="matrix(1.00, 0.00, -0.00, -1.00, 310.6, 505.4)">o</text><text xml:space="preserve" font-family="Courier,Courier" font-size="22.0" fill="#C8352B" transform="matrix(1.00, 0.00, -0.00, -1.00, 323.8, 505.4)">l</text><text xml:space="preserve" font-family="Courier,Courier" font-size="22.0" fill="#C8352B" transform="matrix(1.00, 0.00, -0.00, -1.00, 337.0, 505.4)">d</text><text xml:space="preserve" font-family="Courier,Courier" font-size="22.0" fill="#C8352B" transform="matrix(1.00, 0.00, -0.00, -1.00, 350.2, 505.4)">'</text><text xml:space="preserve" font-family="Courier,Courier" font-size="22.0" fill="#000000" transform="matrix(1.00, 0.00, -0.00, -1.00, 363.4, 505.4)">,</text><text xml:space="preserve" font-family="Courier,Courier" font-size="22.0" fill="#000000" transform="matrix(1.00, 0.00, -0.00, -1.00, 376.6, 505.4)"> </text><text xml:space="preserve" font-family="Courier,Courier" font-size="22.0" fill="#C8352B" transform="matrix(1.00, 0.00, -0.00, -1.00, 389.8, 505.4)">'</text><text xml:space="preserve" font-family="Courier,Courier" font-size="22.0" fill="#C8352B" transform="matrix(1.00, 0.00, -0.00, -1.00, 403.0, 505.4)">o</text><text xml:space="preserve" font-family="Courier,Courier" font-size="22.0" fill="#C8352B" transform="matrix(1.00, 0.00, -0.00, -1.00, 416.2, 505.4)">l</text><text xml:space="preserve" font-family="Courier,Courier" font-size="22.0" fill="#C8352B" transform="matrix(1.00, 0.00, -0.00, -1.00, 429.4, 505.4)">d</text><text xml:space="preserve" font-family="Courier,Courier" font-size="22.0" fill="#C8352B" transform="matrix(1.00, 0.00, -0.00, -1.00, 442.6, 505.4)">'</text><text xml:space="preserve" font-family="Courier,Courier" font-size="22.0" fill="#000000" transform="matrix(1.00, 0.00, -0.00, -1.00, 455.8, 505.4)">,</text><text xml:space="preserve" font-family="Courier,Courier" font-size="22.0" fill="#000000" transform="matrix(1.00, 0.00, -0.00, -1.00, 469.0, 505.4)"> </text><text xml:space="preserve" font-family="Courier,Courier" font-size="22.0" fill="#C8352B" transform="matrix(1.00, 0.00, -0.00, -1.00, 482.2, 505.4)">'</text><text xml:space="preserve" font-family="Courier,Courier" font-size="22.0" fill="#C8352B" transform="matrix(1.00, 0.00, -0.00, -1.00, 495.5, 505.4)">n</text><text xml:space="preserve" font-family="Courier,Courier" font-size="22.0" fill="#C8352B" transform="matrix(1.00, 0.00, -0.00, -1.00, 508.7, 505.4)">e</text><text xml:space="preserve" font-family="Courier,Courier" font-size="22.0" fill="#C8352B" transform="matrix(1.00, 0.00, -0.00, -1.00, 521.9, 505.4)">w</text><text xml:space="preserve" font-family="Courier,Courier" font-size="22.0" fill="#C8352B" transform="matrix(1.00, 0.00, -0.00, -1.00, 535.1, 505.4)">'</text><text xml:space="preserve" font-family="Courier,Courier" font-size="22.0" fill="#000000" transform="matrix(1.00, 0.00, -0.00, -1.00, 548.3, 505.4)">,</text><text xml:space="preserve" font-family="Courier,Courier" font-size="22.0" fill="#000000" transform="matrix(1.00, 0.00, -0.00, -1.00, 561.5, 505.4)"> </text><text xml:space="preserve" font-family="Courier,Courier" font-size="22.0" fill="#C8352B" transform="matrix(1.00, 0.00, -0.00, -1.00, 574.7, 505.4)">'</text><text xml:space="preserve" font-family="Courier,Courier" font-size="22.0" fill="#C8352B" transform="matrix(1.00, 0.00, -0.00, -1.00, 587.9, 505.4)">n</text><text xml:space="preserve" font-family="Courier,Courier" font-size="22.0" fill="#C8352B" transform="matrix(1.00, 0.00, -0.00, -1.00, 601.1, 505.4)">e</text><text xml:space="preserve" font-family="Courier,Courier" font-size="22.0" fill="#C8352B" transform="matrix(1.00, 0.00, -0.00, -1.00, 614.3, 505.4)">w</text><text xml:space="preserve" font-family="Courier,Courier" font-size="22.0" fill="#C8352B" transform="matrix(1.00, 0.00, -0.00, -1.00, 627.5, 505.4)">'</text><text xml:space="preserve" font-family="Courier,Courier" font-size="22.0" fill="#000000" transform="matrix(1.00, 0.00, -0.00, -1.00, 640.7, 505.4)">,</text><text xml:space="preserve" font-family="Courier,Courier" font-size="22.0" fill="#000000" transform="matrix(1.00, 0.00, -0.00, -1.00, 653.9, 505.4)"> </text><text xml:space="preserve" font-family="Courier,Courier" font-size="22.0" fill="#C8352B" transform="matrix(1.00, 0.00, -0.00, -1.00, 667.1, 505.4)">'</text><text xml:space="preserve" font-family="Courier,Courier" font-size="22.0" fill="#C8352B" transform="matrix(1.00, 0.00, -0.00, -1.00, 680.3, 505.4)">n</text><text xml:space="preserve" font-family="Courier,Courier" font-size="22.0" fill="#C8352B" transform="matrix(1.00, 0.00, -0.00, -1.00, 693.5, 505.4)">e</text><text xml:space="preserve" font-family="Courier,Courier" font-size="22.0" fill="#C8352B" transform="matrix(1.00, 0.00, -0.00, -1.00, 706.7, 505.4)">w</text><text xml:space="preserve" font-family="Courier,Courier" font-size="22.0" fill="#C8352B" transform="matrix(1.00, 0.00, -0.00, -1.00, 719.9, 505.4)">'</text><text xml:space="preserve" font-family="Courier,Courier" font-size="22.0" fill="#000000" transform="matrix(1.00, 0.00, -0.00, -1.00, 733.1, 505.4)">]</text><text xml:space="preserve" font-family="Courier,Courier" font-size="22.0" fill="#000000" transform="matrix(1.00, 0.00, -0.00, -1.00, 746.3, 505.4)">,</text><text xml:space="preserve" font-family="Courier,Courier" font-size="22.0" fill="#000000" transform="matrix(1.00, 0.00, -0.00, -1.00, 759.5, 505.4)"> </text><text xml:space="preserve" font-family="Courier,Courier" font-size="22.0" fill="#000000" transform="matrix(1.00, 0.00, -0.00, -1.00, 772.7, 505.4)">g</text><text xml:space="preserve" font-family="Courier,Courier" font-size="22.0" fill="#000000" transform="matrix(1.00, 0.00, -0.00, -1.00, 785.9, 505.4)">u</text><text xml:space="preserve" font-family="Courier,Courier" font-size="22.0" fill="#000000" transform="matrix(1.00, 0.00, -0.00, -1.00, 799.1, 505.4)">i</text><text xml:space="preserve" font-family="Courier,Courier" font-size="22.0" fill="#000000" transform="matrix(1.00, 0.00, -0.00, -1.00, 812.3, 505.4)">t</text><text xml:space="preserve" font-family="Courier,Courier" font-size="22.0" fill="#000000" transform="matrix(1.00, 0.00, -0.00, -1.00, 825.5, 505.4)">a</text><text xml:space="preserve" font-family="Courier,Courier" font-size="22.0" fill="#000000" transform="matrix(1.00, 0.00, -0.00, -1.00, 838.7, 505.4)">r</text><text xml:space="preserve" font-family="Courier,Courier" font-size="22.0" fill="#000000" transform="matrix(1.00, 0.00, -0.00, -1.00, 851.9, 505.4)">s</text><text xml:space="preserve" font-family="Courier,Courier" font-size="22.0" fill="#797979" transform="matrix(1.00, 0.00, -0.00, -1.00, 865.1, 505.4)">.</text><text xml:space="preserve" font-family="Courier,Courier" font-size="22.0" fill="#000000" transform="matrix(1.00, 0.00, -0.00, -1.00, 878.3, 505.4)">i</text><text xml:space="preserve" font-family="Courier,Courier" font-size="22.0" fill="#000000" transform="matrix(1.00, 0.00, -0.00, -1.00, 891.5, 505.4)">n</text><text xml:space="preserve" font-family="Courier,Courier" font-size="22.0" fill="#000000" transform="matrix(1.00, 0.00, -0.00, -1.00, 904.7, 505.4)">d</text><text xml:space="preserve" font-family="Courier,Courier" font-size="22.0" fill="#000000" transform="matrix(1.00, 0.00, -0.00, -1.00, 917.9, 505.4)">e</text><text xml:space="preserve" font-family="Courier,Courier" font-size="22.0" fill="#000000" transform="matrix(1.00, 0.00, -0.00, -1.00, 931.1, 505.4)">x</text><text xml:space="preserve" font-family="Courier,Courier" font-size="22.0" fill="#000000" transform="matrix(1.00, 0.00, -0.00, -1.00, 944.3, 505.4)">]</text><text xml:space="preserve" font-family="Courier,Courier" font-size="22.0" fill="#000000" transform="matrix(1.00, 0.00, -0.00, -1.00, 957.5, 505.4)">)</text></g></g></g></svg>