<?xml version="1.0" encoding="UTF-8" standalone="no"?><svg xmlns="http://www.w3.org/2000/svg" xmlns:xlink="http://www.w3.org/1999/xlink" clip-rule="evenodd" stroke-miterlimit="10" viewBox="0 0 1024 768"><desc>SVG generated by Keynote</desc><defs></defs><g transform="matrix(1.00, 0.00, -0.00, -1.00, 0.0, 768.0)"><g><clipPath id="clip0x6180022a6540"><path d="M 0.0 768.0 L 1024.0 768.0 L 1024.0 0.0 L 0.0 0.0 Z M 0.0 768.0 "></path></clipPath><g clip-path="url(#clip0x6180022a6540)"><image xlink:href="../../FD143D00-F4AD-4582-B813-3101DA54A4D8/assets/1A7A41F82ED837B88C3A4983518DB956.jpeg" width="2048.00" height="1536.00" transform="matrix(0.50, 0.00, -0.00, -0.50, 0.0, 768.0)"></image></g></g><path d="M 0.0 0.5 L 960.0 0.5 L 960.0 0.5 L 0.0 0.5 Z M 0.0 0.0 " fill="none" stroke="#7995B9" stroke-width="1.00" transform="matrix(1.00, 0.00, 0.00, -1.00, 32.0, 566.0)"></path><path d="M 0.0 0.5 L 960.0 0.5 L 960.0 0.5 L 0.0 0.5 Z M 0.0 0.0 " fill="none" stroke="#7995B9" stroke-width="1.00" transform="matrix(1.00, 0.00, 0.00, -1.00, 32.0, 562.0)"></path><text xml:space="preserve" font-family="Didot,Didot" font-size="64.0" fill="#304863" transform="matrix(1.00, 0.00, -0.00, -1.00, 32.0, 631.7)">T</text><text xml:space="preserve" font-family="Didot,Didot" font-size="64.0" fill="#304863" transform="matrix(1.00, 0.00, -0.00, -1.00, 74.5, 631.7)">h</text><text xml:space="preserve" font-family="Didot,Didot" font-size="64.0" fill="#304863" transform="matrix(1.00, 0.00, -0.00, -1.00, 112.3, 631.7)">e</text><text xml:space="preserve" font-family="Didot,Didot" font-size="64.0" fill="#304863" transform="matrix(1.00, 0.00, -0.00, -1.00, 143.0, 631.7)"> </text><text xml:space="preserve" font-family="Didot,Didot" font-size="64.0" fill="#304863" transform="matrix(1.00, 0.00, -0.00, -1.00, 159.6, 631.7)">i</text><text xml:space="preserve" font-family="Didot,Didot" font-size="64.0" fill="#304863" transform="matrix(1.00, 0.00, -0.00, -1.00, 177.2, 631.7)">n</text><text xml:space="preserve" font-family="Didot,Didot" font-size="64.0" fill="#304863" transform="matrix(1.00, 0.00, -0.00, -1.00, 215.0, 631.7)">d</text><text xml:space="preserve" font-family="Didot,Didot" font-size="64.0" fill="#304863" transform="matrix(1.00, 0.00, -0.00, -1.00, 251.7, 631.7)">e</text><text xml:space="preserve" font-family="Didot,Didot" font-size="64.0" fill="#304863" transform="matrix(1.00, 0.00, -0.00, -1.00, 281.8, 631.7)">x</text><g><clipPath id="clip0x6180022a6d80"><path d="M 33.5 359.5 L 451.2 359.5 L 451.2 46.5 L 33.5 46.5 Z M 33.5 359.5 "></path></clipPath><g clip-path="url(#clip0x6180022a6d80)"><g><clipPath id="clip0x6180022a6f00"><path d="M 34.0 359.0 L 172.9 359.0 L 172.9 314.4 L 34.0 314.4 Z M 34.0 359.0 "></path></clipPath><g clip-path="url(#clip0x6180022a6f00)"><image xlink:href="../../FD143D00-F4AD-4582-B813-3101DA54A4D8/assets/931714CB8B7FE16B9B80A5EAB57E0513.png" width="383.00" height="383.00" transform="matrix(0.50, 0.00, -0.00, -0.50, 34.0, 359.0)"></image></g></g></g></g><g><clipPath id="clip0x6000030b9320"><path d="M 33.5 359.5 L 451.2 359.5 L 451.2 46.5 L 33.5 46.5 Z M 33.5 359.5 "></path></clipPath><g clip-path="url(#clip0x6000030b9320)"><g><clipPath id="clip0x6000030b94a0"><path d="M 172.9 359.0 L 311.8 359.0 L 311.8 314.4 L 172.9 314.4 Z M 172.9 359.0 "></path></clipPath><g clip-path="url(#clip0x6000030b94a0)"><image xlink:href="../../FD143D00-F4AD-4582-B813-3101DA54A4D8/assets/931714CB8B7FE16B9B80A5EAB57E0513.png" width="383.00" height="383.00" transform="matrix(0.50, 0.00, -0.00, -0.50, 172.9, 359.0)"></image></g></g></g></g><g><clipPath id="clip0x6080020b0d40"><path d="M 33.5 359.5 L 451.2 359.5 L 451.2 46.5 L 33.5 46.5 Z M 33.5 359.5 "></path></clipPath><g clip-path="url(#clip0x6080020b0d40)"><g><clipPath id="clip0x6080020b0b00"><path d="M 311.8 359.0 L 450.7 359.0 L 450.7 314.4 L 311.8 314.4 Z M 311.8 359.0 "></path></clipPath><g clip-path="url(#clip0x6080020b0b00)"><image xlink:href="../../FD143D00-F4AD-4582-B813-3101DA54A4D8/assets/931714CB8B7FE16B9B80A5EAB57E0513.png" width="383.00" height="383.00" transform="matrix(0.50, 0.00, -0.00, -0.50, 311.8, 359.0)"></image></g></g></g></g><g><clipPath id="clip0x6180022a7140"><path d="M 33.5 359.5 L 451.2 359.5 L 451.2 46.5 L 33.5 46.5 Z M 33.5 359.5 "></path></clipPath><g clip-path="url(#clip0x6180022a7140)"><g><clipPath id="clip0x6180022a72c0"><path d="M 34.0 314.4 L 172.9 314.4 L 172.9 269.9 L 34.0 269.9 Z M 34.0 314.4 "></path></clipPath><g clip-path="url(#clip0x6180022a72c0)"><image xlink:href="../../FD143D00-F4AD-4582-B813-3101DA54A4D8/assets/931714CB8B7FE16B9B80A5EAB57E0513.png" width="383.00" height="383.00" transform="matrix(0.50, 0.00, -0.00, -0.50, 34.0, 314.4)"></image></g></g></g></g><g><clipPath id="clip0x6080020b0f20"><path d="M 33.5 359.5 L 451.2 359.5 L 451.2 46.5 L 33.5 46.5 Z M 33.5 359.5 "></path></clipPath><g clip-path="url(#clip0x6080020b0f20)"><g><clipPath id="clip0x6080020b1280"><path d="M 172.9 314.4 L 311.8 314.4 L 311.8 269.9 L 172.9 269.9 Z M 172.9 314.4 "></path></clipPath><g clip-path="url(#clip0x6080020b1280)"><image xlink:href="../../FD143D00-F4AD-4582-B813-3101DA54A4D8/assets/931714CB8B7FE16B9B80A5EAB57E0513.png" width="383.00" height="383.00" transform="matrix(0.50, 0.00, -0.00, -0.50, 172.9, 314.4)"></image></g></g></g></g><g><clipPath id="clip0x6080020b12e0"><path d="M 33.5 359.5 L 451.2 359.5 L 451.2 46.5 L 33.5 46.5 Z M 33.5 359.5 "></path></clipPath><g clip-path="url(#clip0x6080020b12e0)"><g><clipPath id="clip0x6080020b1640"><path d="M 311.8 314.4 L 450.7 314.4 L 450.7 269.9 L 311.8 269.9 Z M 311.8 314.4 "></path></clipPath><g clip-path="url(#clip0x6080020b1640)"><image xlink:href="../../FD143D00-F4AD-4582-B813-3101DA54A4D8/assets/931714CB8B7FE16B9B80A5EAB57E0513.png" width="383.00" height="383.00" transform="matrix(0.50, 0.00, -0.00, -0.50, 311.8, 314.4)"></image></g></g></g></g><g><clipPath id="clip0x6100020aba00"><path d="M 33.5 359.5 L 451.2 359.5 L 451.2 46.5 L 33.5 46.5 Z M 33.5 359.5 "></path></clipPath><g clip-path="url(#clip0x6100020aba00)"><path d="M 34.0 269.9 L 172.9 269.9 L 172.9 225.3 L 34.0 225.3 Z M 34.0 269.9 " fill="#74A1C1"></path><path d="M 34.0 225.3 L 172.9 225.3 L 172.9 180.7 L 34.0 180.7 Z M 34.0 225.3 " fill="#74A1C1"></path><path d="M 34.0 180.7 L 172.9 180.7 L 172.9 136.1 L 34.0 136.1 Z M 34.0 180.7 " fill="#74A1C1"></path><path d="M 34.0 136.1 L 172.9 136.1 L 172.9 91.6 L 34.0 91.6 Z M 34.0 136.1 " fill="#74A1C1"></path><path d="M 34.0 91.6 L 172.9 91.6 L 172.9 47.0 L 34.0 47.0 Z M 34.0 91.6 " fill="#74A1C1"></path></g></g><image xlink:href="../../D088A28A-7976-4D8A-A262-07E8CD2B0B47/assets/C71FCB2118DB7D57955BDCABF569978D.png" width="96.00" height="30.00" transform="matrix(1.00, 0.00, -0.00, -1.00, 194.0, 345.0)"></image><g><clipPath id="clip0x6100020abbe0"><path d="M 33.5 359.5 L 451.2 359.5 L 451.2 46.5 L 33.5 46.5 Z M 33.5 359.5 "></path></clipPath><g clip-path="url(#clip0x6100020abbe0)"><g><clipPath id="clip0x6100020abf40"><path d="M 172.9 314.9 L 311.8 314.9 L 311.8 358.5 L 172.9 358.5 Z M 172.9 314.9 "></path></clipPath><g clip-path="url(#clip0x6100020abf40)"><text xml:space="preserve" font-family="Palatino-Roman,Palatino" font-size="30.0" fill="#F6F4EE" transform="matrix(1.00, 0.00, -0.00, -1.00, 195.0, 322.8)">s</text><text xml:space="preserve" font-family="Palatino-Roman,Palatino" font-size="30.0" fill="#F6F4EE" transform="matrix(1.00, 0.00, -0.00, -1.00, 207.8, 322.8)">t</text><text xml:space="preserve" font-family="Palatino-Roman,Palatino" font-size="30.0" fill="#F6F4EE" transform="matrix(1.00, 0.00, -0.00, -1.00, 217.5, 322.8)">o</text><text xml:space="preserve" font-family="Palatino-Roman,Palatino" font-size="30.0" fill="#F6F4EE" transform="matrix(1.00, 0.00, -0.00, -1.00, 233.9, 322.8)">r</text><text xml:space="preserve" font-family="Palatino-Roman,Palatino" font-size="30.0" fill="#F6F4EE" transform="matrix(1.00, 0.00, -0.00, -1.00, 245.2, 322.8)">e</text><text xml:space="preserve" font-family="Palatino-Roman,Palatino" font-size="30.0" fill="#F6F4EE" transform="matrix(1.00, 0.00, -0.00, -1.00, 259.6, 322.8)">_</text><text xml:space="preserve" font-family="Palatino-Roman,Palatino" font-size="30.0" fill="#F6F4EE" transform="matrix(1.00, 0.00, -0.00, -1.00, 274.6, 322.8)">1</text></g></g></g></g><image xlink:href="../../D088A28A-7976-4D8A-A262-07E8CD2B0B47/assets/44C84D862D957ACDE62BAB13ACC9A239.png" width="98.00" height="30.00" transform="matrix(1.00, 0.00, -0.00, -1.00, 332.0, 345.0)"></image><g><clipPath id="clip0x6100020ac2a0"><path d="M 33.5 359.5 L 451.2 359.5 L 451.2 46.5 L 33.5 46.5 Z M 33.5 359.5 "></path></clipPath><g clip-path="url(#clip0x6100020ac2a0)"><g><clipPath id="clip0x6100020ac600"><path d="M 311.8 314.9 L 450.2 314.9 L 450.2 358.5 L 311.8 358.5 Z M 311.8 314.9 "></path></clipPath><g clip-path="url(#clip0x6100020ac600)"><text xml:space="preserve" font-family="Palatino-Roman,Palatino" font-size="30.0" fill="#F6F4EE" transform="matrix(1.00, 0.00, -0.00, -1.00, 333.7, 322.8)">s</text><text xml:space="preserve" font-family="Palatino-Roman,Palatino" font-size="30.0" fill="#F6F4EE" transform="matrix(1.00, 0.00, -0.00, -1.00, 346.4, 322.8)">t</text><text xml:space="preserve" font-family="Palatino-Roman,Palatino" font-size="30.0" fill="#F6F4EE" transform="matrix(1.00, 0.00, -0.00, -1.00, 356.2, 322.8)">o</text><text xml:space="preserve" font-family="Palatino-Roman,Palatino" font-size="30.0" fill="#F6F4EE" transform="matrix(1.00, 0.00, -0.00, -1.00, 372.6, 322.8)">r</text><text xml:space="preserve" font-family="Palatino-Roman,Palatino" font-size="30.0" fill="#F6F4EE" transform="matrix(1.00, 0.00, -0.00, -1.00, 383.9, 322.8)">e</text><text xml:space="preserve" font-family="Palatino-Roman,Palatino" font-size="30.0" fill="#F6F4EE" transform="matrix(1.00, 0.00, -0.00, -1.00, 398.3, 322.8)">_</text><text xml:space="preserve" font-family="Palatino-Roman,Palatino" font-size="30.0" fill="#F6F4EE" transform="matrix(1.00, 0.00, -0.00, -1.00, 413.3, 322.8)">2</text></g></g></g></g><g><clipPath id="clip0x6100020aca80"><path d="M 33.5 359.5 L 451.2 359.5 L 451.2 46.5 L 33.5 46.5 Z M 33.5 359.5 "></path></clipPath><g clip-path="url(#clip0x6100020aca80)"><g><clipPath id="clip0x6100020acc00"><path d="M 34.5 269.9 L 172.4 269.9 L 172.4 313.9 L 34.5 313.9 Z M 34.5 269.9 "></path></clipPath><g clip-path="url(#clip0x6100020acc00)"><text xml:space="preserve" font-family="Palatino-Roman,Palatino" font-size="30.0" fill="#FEFFFE" transform="matrix(1.00, 0.00, -0.00, -1.00, 74.5, 278.2)">y</text><text xml:space="preserve" font-family="Palatino-Roman,Palatino" font-size="30.0" fill="#FEFFFE" transform="matrix(1.00, 0.00, -0.00, -1.00, 91.2, 278.2)">e</text><text xml:space="preserve" font-family="Palatino-Roman,Palatino" font-size="30.0" fill="#FEFFFE" transform="matrix(1.00, 0.00, -0.00, -1.00, 105.6, 278.2)">a</text><text xml:space="preserve" font-family="Palatino-Roman,Palatino" font-size="30.0" fill="#FEFFFE" transform="matrix(1.00, 0.00, -0.00, -1.00, 120.6, 278.2)">r</text></g></g></g></g><g><clipPath id="clip0x6100020acf60"><path d="M 33.5 359.5 L 451.2 359.5 L 451.2 46.5 L 33.5 46.5 Z M 33.5 359.5 "></path></clipPath><g clip-path="url(#clip0x6100020acf60)"><g><clipPath id="clip0x6100020ad0e0"><path d="M 34.5 225.8 L 172.4 225.8 L 172.4 269.9 L 34.5 269.9 Z M 34.5 225.8 "></path></clipPath><g clip-path="url(#clip0x6100020ad0e0)"><text xml:space="preserve" font-family="Palatino-Roman,Palatino" font-size="30.0" fill="#FEFFFE" transform="matrix(1.00, 0.00, -0.00, -1.00, 73.4, 234.2)">2</text><text xml:space="preserve" font-family="Palatino-Roman,Palatino" font-size="30.0" fill="#FEFFFE" transform="matrix(1.00, 0.00, -0.00, -1.00, 88.4, 234.2)">0</text><text xml:space="preserve" font-family="Palatino-Roman,Palatino" font-size="30.0" fill="#FEFFFE" transform="matrix(1.00, 0.00, -0.00, -1.00, 103.4, 234.2)">1</text><text xml:space="preserve" font-family="Palatino-Roman,Palatino" font-size="30.0" fill="#FEFFFE" transform="matrix(1.00, 0.00, -0.00, -1.00, 118.4, 234.2)">2</text></g></g></g></g><image xlink:href="../../D088A28A-7976-4D8A-A262-07E8CD2B0B47/assets/2C4527311422B7D099A6F4F9A7768021.png" width="49.00" height="26.00" transform="matrix(1.00, 0.00, -0.00, -1.00, 218.0, 256.0)"></image><g><clipPath id="clip0x6100020ad320"><path d="M 33.5 359.5 L 451.2 359.5 L 451.2 46.5 L 33.5 46.5 Z M 33.5 359.5 "></path></clipPath><g clip-path="url(#clip0x6100020ad320)"><g><clipPath id="clip0x6100020ad680"><path d="M 173.4 225.8 L 311.3 225.8 L 311.3 269.4 L 173.4 269.4 Z M 173.4 225.8 "></path></clipPath><g clip-path="url(#clip0x6100020ad680)"><text xml:space="preserve" font-family="Palatino-Roman,Palatino" font-size="30.0" fill="#6C6A66" transform="matrix(1.00, 0.00, -0.00, -1.00, 219.8, 233.7)">5</text><text xml:space="preserve" font-family="Palatino-Roman,Palatino" font-size="30.0" fill="#6C6A66" transform="matrix(1.00, 0.00, -0.00, -1.00, 234.8, 233.7)">8</text><text xml:space="preserve" font-family="Palatino-Roman,Palatino" font-size="30.0" fill="#6C6A66" transform="matrix(1.00, 0.00, -0.00, -1.00, 249.8, 233.7)">4</text></g></g></g></g><image xlink:href="../../D088A28A-7976-4D8A-A262-07E8CD2B0B47/assets/B3EFD85E3DBEEAABE60C2669A39CF164.png" width="62.00" height="26.00" transform="matrix(1.00, 0.00, -0.00, -1.00, 351.0, 256.0)"></image><g><clipPath id="clip0x6100020ad860"><path d="M 33.5 359.5 L 451.2 359.5 L 451.2 46.5 L 33.5 46.5 Z M 33.5 359.5 "></path></clipPath><g clip-path="url(#clip0x6100020ad860)"><g><clipPath id="clip0x6100020adbc0"><path d="M 312.3 225.8 L 450.2 225.8 L 450.2 269.4 L 312.3 269.4 Z M 312.3 225.8 "></path></clipPath><g clip-path="url(#clip0x6100020adbc0)"><text xml:space="preserve" font-family="Palatino-Roman,Palatino" font-size="30.0" fill="#6C6A66" transform="matrix(1.00, 0.00, -0.00, -1.00, 351.2, 233.7)">1</text><text xml:space="preserve" font-family="Palatino-Roman,Palatino" font-size="30.0" fill="#6C6A66" transform="matrix(1.00, 0.00, -0.00, -1.00, 366.2, 233.7)">0</text><text xml:space="preserve" font-family="Palatino-Roman,Palatino" font-size="30.0" fill="#6C6A66" transform="matrix(1.00, 0.00, -0.00, -1.00, 381.2, 233.7)">3</text><text xml:space="preserve" font-family="Palatino-Roman,Palatino" font-size="30.0" fill="#6C6A66" transform="matrix(1.00, 0.00, -0.00, -1.00, 396.2, 233.7)">2</text></g></g></g></g><g><clipPath id="clip0x6100020adf20"><path d="M 33.5 359.5 L 451.2 359.5 L 451.2 46.5 L 33.5 46.5 Z M 33.5 359.5 "></path></clipPath><g clip-path="url(#clip0x6100020adf20)"><g><clipPath id="clip0x6100020ae0a0"><path d="M 34.5 181.2 L 172.4 181.2 L 172.4 224.8 L 34.5 224.8 Z M 34.5 181.2 "></path></clipPath><g clip-path="url(#clip0x6100020ae0a0)"><text xml:space="preserve" font-family="Palatino-Roman,Palatino" font-size="30.0" fill="#FEFFFE" transform="matrix(1.00, 0.00, -0.00, -1.00, 73.4, 189.1)">2</text><text xml:space="preserve" font-family="Palatino-Roman,Palatino" font-size="30.0" fill="#FEFFFE" transform="matrix(1.00, 0.00, -0.00, -1.00, 88.4, 189.1)">0</text><text xml:space="preserve" font-family="Palatino-Roman,Palatino" font-size="30.0" fill="#FEFFFE" transform="matrix(1.00, 0.00, -0.00, -1.00, 103.4, 189.1)">1</text><text xml:space="preserve" font-family="Palatino-Roman,Palatino" font-size="30.0" fill="#FEFFFE" transform="matrix(1.00, 0.00, -0.00, -1.00, 118.4, 189.1)">3</text></g></g></g></g><image xlink:href="../../D088A28A-7976-4D8A-A262-07E8CD2B0B47/assets/96E1F93EC5BC184971CA3D301AA6F290.png" width="47.00" height="27.00" transform="matrix(1.00, 0.00, -0.00, -1.00, 218.0, 212.0)"></image><g><clipPath id="clip0x6100020ae2e0"><path d="M 33.5 359.5 L 451.2 359.5 L 451.2 46.5 L 33.5 46.5 Z M 33.5 359.5 "></path></clipPath><g clip-path="url(#clip0x6100020ae2e0)"><g><clipPath id="clip0x6100020ae640"><path d="M 173.4 181.2 L 311.3 181.2 L 311.3 224.8 L 173.4 224.8 Z M 173.4 181.2 "></path></clipPath><g clip-path="url(#clip0x6100020ae640)"><text xml:space="preserve" font-family="Palatino-Roman,Palatino" font-size="30.0" fill="#6C6A66" transform="matrix(1.00, 0.00, -0.00, -1.00, 219.8, 189.1)">6</text><text xml:space="preserve" font-family="Palatino-Roman,Palatino" font-size="30.0" fill="#6C6A66" transform="matrix(1.00, 0.00, -0.00, -1.00, 234.8, 189.1)">0</text><text xml:space="preserve" font-family="Palatino-Roman,Palatino" font-size="30.0" fill="#6C6A66" transform="matrix(1.00, 0.00, -0.00, -1.00, 249.8, 189.1)">1</text></g></g></g></g><image xlink:href="../../D088A28A-7976-4D8A-A262-07E8CD2B0B47/assets/5E66FFE7964633AF5940D42DB581DDB0.png" width="48.00" height="26.00" transform="matrix(1.00, 0.00, -0.00, -1.00, 357.0, 211.0)"></image><g><clipPath id="clip0x6100020ae820"><path d="M 33.5 359.5 L 451.2 359.5 L 451.2 46.5 L 33.5 46.5 Z M 33.5 359.5 "></path></clipPath><g clip-path="url(#clip0x6100020ae820)"><g><clipPath id="clip0x6100020aeb80"><path d="M 312.3 181.2 L 450.2 181.2 L 450.2 224.8 L 312.3 224.8 Z M 312.3 181.2 "></path></clipPath><g clip-path="url(#clip0x6100020aeb80)"><text xml:space="preserve" font-family="Palatino-Roman,Palatino" font-size="30.0" fill="#6C6A66" transform="matrix(1.00, 0.00, -0.00, -1.00, 358.7, 189.1)">9</text><text xml:space="preserve" font-family="Palatino-Roman,Palatino" font-size="30.0" fill="#6C6A66" transform="matrix(1.00, 0.00, -0.00, -1.00, 373.7, 189.1)">6</text><text xml:space="preserve" font-family="Palatino-Roman,Palatino" font-size="30.0" fill="#6C6A66" transform="matrix(1.00, 0.00, -0.00, -1.00, 388.7, 189.1)">0</text></g></g></g></g><g><clipPath id="clip0x6100020aee80"><path d="M 33.5 359.5 L 451.2 359.5 L 451.2 46.5 L 33.5 46.5 Z M 33.5 359.5 "></path></clipPath><g clip-path="url(#clip0x6100020aee80)"><g><clipPath id="clip0x6100020af000"><path d="M 34.5 136.6 L 172.4 136.6 L 172.4 180.2 L 34.5 180.2 Z M 34.5 136.6 "></path></clipPath><g clip-path="url(#clip0x6100020af000)"><text xml:space="preserve" font-family="Palatino-Roman,Palatino" font-size="30.0" fill="#FEFFFE" transform="matrix(1.00, 0.00, -0.00, -1.00, 73.4, 144.5)">2</text><text xml:space="preserve" font-family="Palatino-Roman,Palatino" font-size="30.0" fill="#FEFFFE" transform="matrix(1.00, 0.00, -0.00, -1.00, 88.4, 144.5)">0</text><text xml:space="preserve" font-family="Palatino-Roman,Palatino" font-size="30.0" fill="#FEFFFE" transform="matrix(1.00, 0.00, -0.00, -1.00, 103.4, 144.5)">1</text><text xml:space="preserve" font-family="Palatino-Roman,Palatino" font-size="30.0" fill="#FEFFFE" transform="matrix(1.00, 0.00, -0.00, -1.00, 118.4, 144.5)">4</text></g></g></g></g><image xlink:href="../../D088A28A-7976-4D8A-A262-07E8CD2B0B47/assets/DC7C4FE18CE0B82B8F5DA65CCF347255.png" width="48.00" height="26.00" transform="matrix(1.00, 0.00, -0.00, -1.00, 218.0, 167.0)"></image><g><clipPath id="clip0x6100020af240"><path d="M 33.5 359.5 L 451.2 359.5 L 451.2 46.5 L 33.5 46.5 Z M 33.5 359.5 "></path></clipPath><g clip-path="url(#clip0x6100020af240)"><g><clipPath id="clip0x6100020af5a0"><path d="M 173.4 136.6 L 311.3 136.6 L 311.3 180.2 L 173.4 180.2 Z M 173.4 136.6 "></path></clipPath><g clip-path="url(#clip0x6100020af5a0)"><text xml:space="preserve" font-family="Palatino-Roman,Palatino" font-size="30.0" fill="#6C6A66" transform="matrix(1.00, 0.00, -0.00, -1.00, 219.8, 144.5)">4</text><text xml:space="preserve" font-family="Palatino-Roman,Palatino" font-size="30.0" fill="#6C6A66" transform="matrix(1.00, 0.00, -0.00, -1.00, 234.8, 144.5)">0</text><text xml:space="preserve" font-family="Palatino-Roman,Palatino" font-size="30.0" fill="#6C6A66" transform="matrix(1.00, 0.00, -0.00, -1.00, 249.8, 144.5)">3</text></g></g></g></g><image xlink:href="../../D088A28A-7976-4D8A-A262-07E8CD2B0B47/assets/BD6A87113BBB307A8D8E0AB1C94D06F6.png" width="62.00" height="26.00" transform="matrix(1.00, 0.00, -0.00, -1.00, 351.0, 167.0)"></image><g><clipPath id="clip0x6100020af780"><path d="M 33.5 359.5 L 451.2 359.5 L 451.2 46.5 L 33.5 46.5 Z M 33.5 359.5 "></path></clipPath><g clip-path="url(#clip0x6100020af780)"><g><clipPath id="clip0x6100020afae0"><path d="M 312.3 136.6 L 450.2 136.6 L 450.2 180.2 L 312.3 180.2 Z M 312.3 136.6 "></path></clipPath><g clip-path="url(#clip0x6100020afae0)"><text xml:space="preserve" font-family="Palatino-Roman,Palatino" font-size="30.0" fill="#6C6A66" transform="matrix(1.00, 0.00, -0.00, -1.00, 351.2, 144.5)">1</text><text xml:space="preserve" font-family="Palatino-Roman,Palatino" font-size="30.0" fill="#6C6A66" transform="matrix(1.00, 0.00, -0.00, -1.00, 366.2, 144.5)">4</text><text xml:space="preserve" font-family="Palatino-Roman,Palatino" font-size="30.0" fill="#6C6A66" transform="matrix(1.00, 0.00, -0.00, -1.00, 381.2, 144.5)">0</text><text xml:space="preserve" font-family="Palatino-Roman,Palatino" font-size="30.0" fill="#6C6A66" transform="matrix(1.00, 0.00, -0.00, -1.00, 396.2, 144.5)">0</text></g></g></g></g><g><clipPath id="clip0x6100020afe40"><path d="M 33.5 359.5 L 451.2 359.5 L 451.2 46.5 L 33.5 46.5 Z M 33.5 359.5 "></path></clipPath><g clip-path="url(#clip0x6100020afe40)"><g><clipPath id="clip0x6100020affc0"><path d="M 34.5 92.1 L 172.4 92.1 L 172.4 135.6 L 34.5 135.6 Z M 34.5 92.1 "></path></clipPath><g clip-path="url(#clip0x6100020affc0)"><text xml:space="preserve" font-family="Palatino-Roman,Palatino" font-size="30.0" fill="#FEFFFE" transform="matrix(1.00, 0.00, -0.00, -1.00, 73.4, 100.0)">2</text><text xml:space="preserve" font-family="Palatino-Roman,Palatino" font-size="30.0" fill="#FEFFFE" transform="matrix(1.00, 0.00, -0.00, -1.00, 88.4, 100.0)">0</text><text xml:space="preserve" font-family="Palatino-Roman,Palatino" font-size="30.0" fill="#FEFFFE" transform="matrix(1.00, 0.00, -0.00, -1.00, 103.4, 100.0)">1</text><text xml:space="preserve" font-family="Palatino-Roman,Palatino" font-size="30.0" fill="#FEFFFE" transform="matrix(1.00, 0.00, -0.00, -1.00, 118.4, 100.0)">5</text></g></g></g></g><image xlink:href="../../D088A28A-7976-4D8A-A262-07E8CD2B0B47/assets/8FC8929A2CF2693FBF892E338E6EC12D.png" width="48.00" height="26.00" transform="matrix(1.00, 0.00, -0.00, -1.00, 218.0, 122.0)"></image><g><clipPath id="clip0x6100020b0200"><path d="M 33.5 359.5 L 451.2 359.5 L 451.2 46.5 L 33.5 46.5 Z M 33.5 359.5 "></path></clipPath><g clip-path="url(#clip0x6100020b0200)"><g><clipPath id="clip0x6100020b0560"><path d="M 173.4 92.1 L 311.3 92.1 L 311.3 135.6 L 173.4 135.6 Z M 173.4 92.1 "></path></clipPath><g clip-path="url(#clip0x6100020b0560)"><text xml:space="preserve" font-family="Palatino-Roman,Palatino" font-size="30.0" fill="#6C6A66" transform="matrix(1.00, 0.00, -0.00, -1.00, 219.8, 100.0)">4</text><text xml:space="preserve" font-family="Palatino-Roman,Palatino" font-size="30.0" fill="#6C6A66" transform="matrix(1.00, 0.00, -0.00, -1.00, 234.8, 100.0)">8</text><text xml:space="preserve" font-family="Palatino-Roman,Palatino" font-size="30.0" fill="#6C6A66" transform="matrix(1.00, 0.00, -0.00, -1.00, 249.8, 100.0)">0</text></g></g></g></g><image xlink:href="../../D088A28A-7976-4D8A-A262-07E8CD2B0B47/assets/32CD6F35C382DF9E768BE0172650B4F9.png" width="62.00" height="26.00" transform="matrix(1.00, 0.00, -0.00, -1.00, 351.0, 122.0)"></image><g><clipPath id="clip0x6100020b0740"><path d="M 33.5 359.5 L 451.2 359.5 L 451.2 46.5 L 33.5 46.5 Z M 33.5 359.5 "></path></clipPath><g clip-path="url(#clip0x6100020b0740)"><g><clipPath id="clip0x6100020b0aa0"><path d="M 312.3 92.1 L 450.2 92.1 L 450.2 135.6 L 312.3 135.6 Z M 312.3 92.1 "></path></clipPath><g clip-path="url(#clip0x6100020b0aa0)"><text xml:space="preserve" font-family="Palatino-Roman,Palatino" font-size="30.0" fill="#6C6A66" transform="matrix(1.00, 0.00, -0.00, -1.00, 351.2, 100.0)">1</text><text xml:space="preserve" font-family="Palatino-Roman,Palatino" font-size="30.0" fill="#6C6A66" transform="matrix(1.00, 0.00, -0.00, -1.00, 366.2, 100.0)">3</text><text xml:space="preserve" font-family="Palatino-Roman,Palatino" font-size="30.0" fill="#6C6A66" transform="matrix(1.00, 0.00, -0.00, -1.00, 381.2, 100.0)">5</text><text xml:space="preserve" font-family="Palatino-Roman,Palatino" font-size="30.0" fill="#6C6A66" transform="matrix(1.00, 0.00, -0.00, -1.00, 396.2, 100.0)">5</text></g></g></g></g><g><clipPath id="clip0x6100020b0e00"><path d="M 33.5 359.5 L 451.2 359.5 L 451.2 46.5 L 33.5 46.5 Z M 33.5 359.5 "></path></clipPath><g clip-path="url(#clip0x6100020b0e00)"><g><clipPath id="clip0x6100020b0f80"><path d="M 34.5 47.5 L 172.4 47.5 L 172.4 91.1 L 34.5 91.1 Z M 34.5 47.5 "></path></clipPath><g clip-path="url(#clip0x6100020b0f80)"><text xml:space="preserve" font-family="Palatino-Roman,Palatino" font-size="30.0" fill="#FEFFFE" transform="matrix(1.00, 0.00, -0.00, -1.00, 73.4, 55.4)">2</text><text xml:space="preserve" font-family="Palatino-Roman,Palatino" font-size="30.0" fill="#FEFFFE" transform="matrix(1.00, 0.00, -0.00, -1.00, 88.4, 55.4)">0</text><text xml:space="preserve" font-family="Palatino-Roman,Palatino" font-size="30.0" fill="#FEFFFE" transform="matrix(1.00, 0.00, -0.00, -1.00, 103.4, 55.4)">1</text><text xml:space="preserve" font-family="Palatino-Roman,Palatino" font-size="30.0" fill="#FEFFFE" transform="matrix(1.00, 0.00, -0.00, -1.00, 118.4, 55.4)">6</text></g></g></g></g><image xlink:href="../../D088A28A-7976-4D8A-A262-07E8CD2B0B47/assets/ED675174B22E1A694C94E4A016607955.png" width="68.00" height="27.00" transform="matrix(1.00, 0.00, -0.00, -1.00, 208.0, 78.0)"></image><g><clipPath id="clip0x6100020b11c0"><path d="M 33.5 359.5 L 451.2 359.5 L 451.2 46.5 L 33.5 46.5 Z M 33.5 359.5 "></path></clipPath><g clip-path="url(#clip0x6100020b11c0)"><g><clipPath id="clip0x6100020b1520"><path d="M 173.4 47.5 L 311.3 47.5 L 311.3 91.1 L 173.4 91.1 Z M 173.4 47.5 "></path></clipPath><g clip-path="url(#clip0x6100020b1520)"><text xml:space="preserve" font-family="Palatino-Roman,Palatino" font-size="30.0" fill="#6C6A66" transform="matrix(1.00, 0.00, -0.00, -1.00, 209.9, 55.4)">N</text><text xml:space="preserve" font-family="Palatino-Roman,Palatino" font-size="30.0" fill="#6C6A66" transform="matrix(1.00, 0.00, -0.00, -1.00, 234.8, 55.4)">a</text><text xml:space="preserve" font-family="Palatino-Roman,Palatino" font-size="30.0" fill="#6C6A66" transform="matrix(1.00, 0.00, -0.00, -1.00, 249.8, 55.4)">N</text></g></g></g></g><image xlink:href="../../D088A28A-7976-4D8A-A262-07E8CD2B0B47/assets/DCA16376BBBF2115DAAE89AD68474E66.png" width="48.00" height="27.00" transform="matrix(1.00, 0.00, -0.00, -1.00, 357.0, 78.0)"></image><g><clipPath id="clip0x6100020b1700"><path d="M 33.5 359.5 L 451.2 359.5 L 451.2 46.5 L 33.5 46.5 Z M 33.5 359.5 "></path></clipPath><g clip-path="url(#clip0x6100020b1700)"><g><clipPath id="clip0x6100020b1a60"><path d="M 312.3 47.5 L 450.2 47.5 L 450.2 91.1 L 312.3 91.1 Z M 312.3 47.5 "></path></clipPath><g clip-path="url(#clip0x6100020b1a60)"><text xml:space="preserve" font-family="Palatino-Roman,Palatino" font-size="30.0" fill="#6C6A66" transform="matrix(1.00, 0.00, -0.00, -1.00, 358.7, 55.4)">3</text><text xml:space="preserve" font-family="Palatino-Roman,Palatino" font-size="30.0" fill="#6C6A66" transform="matrix(1.00, 0.00, -0.00, -1.00, 373.7, 55.4)">0</text><text xml:space="preserve" font-family="Palatino-Roman,Palatino" font-size="30.0" fill="#6C6A66" transform="matrix(1.00, 0.00, -0.00, -1.00, 388.7, 55.4)">0</text></g></g></g></g><g><clipPath id="clip0x6100020b1d60"><path d="M 33.5 359.5 L 451.2 359.5 L 451.2 46.5 L 33.5 46.5 Z M 33.5 359.5 "></path></clipPath><g clip-path="url(#clip0x6100020b1d60)"><path d="M 140.9 46.1 L 140.9 91.1 " fill="none" stroke="#7695B5" stroke-width="1.00" transform="matrix(1.00, 0.00, 0.00, -1.00, 32.0, 361.0)"></path><path d="M 140.9 91.1 L 140.9 314.5 " fill="none" stroke="#FFFFFF" stroke-width="1.00" transform="matrix(1.00, 0.00, 0.00, -1.00, 32.0, 361.0)"></path><path d="M 279.8 46.1 L 279.8 314.5 " fill="none" stroke="#7695B5" stroke-width="1.00" transform="matrix(1.00, 0.00, 0.00, -1.00, 32.0, 361.0)"></path><path d="M 140.4 91.1 L 419.2 91.1 " fill="none" stroke="#7695B5" stroke-width="1.00" transform="matrix(1.00, 0.00, 0.00, -1.00, 32.0, 361.0)"></path><path d="M 1.5 135.7 L 140.9 135.7 " fill="none" stroke="#FFFFFF" stroke-width="1.00" transform="matrix(1.00, 0.00, 0.00, -1.00, 32.0, 361.0)"></path><path d="M 140.9 135.7 L 419.2 135.7 " fill="none" stroke="#7695B5" stroke-width="1.00" transform="matrix(1.00, 0.00, 0.00, -1.00, 32.0, 361.0)"></path><path d="M 1.5 180.3 L 140.9 180.3 " fill="none" stroke="#FFFFFF" stroke-width="1.00" transform="matrix(1.00, 0.00, 0.00, -1.00, 32.0, 361.0)"></path><path d="M 140.9 180.3 L 419.2 180.3 " fill="none" stroke="#7695B5" stroke-width="1.00" transform="matrix(1.00, 0.00, 0.00, -1.00, 32.0, 361.0)"></path><path d="M 1.5 224.9 L 140.9 224.9 " fill="none" stroke="#FFFFFF" stroke-width="1.00" transform="matrix(1.00, 0.00, 0.00, -1.00, 32.0, 361.0)"></path><path d="M 140.9 224.9 L 419.2 224.9 " fill="none" stroke="#7695B5" stroke-width="1.00" transform="matrix(1.00, 0.00, 0.00, -1.00, 32.0, 361.0)"></path><path d="M 1.5 269.4 L 140.9 269.4 " fill="none" stroke="#FFFFFF" stroke-width="1.00" transform="matrix(1.00, 0.00, 0.00, -1.00, 32.0, 361.0)"></path><path d="M 140.9 269.4 L 419.2 269.4 " fill="none" stroke="#7695B5" stroke-width="1.00" transform="matrix(1.00, 0.00, 0.00, -1.00, 32.0, 361.0)"></path><path d="M 2.0 1.5 L 2.0 46.6 " fill="none" stroke="#7595B5" stroke-width="1.00" transform="matrix(1.00, 0.00, 0.00, -1.00, 32.0, 361.0)"></path><path d="M 2.0 46.6 L 2.0 91.1 " fill="none" stroke="#7595B5" stroke-width="1.00" transform="matrix(1.00, 0.00, 0.00, -1.00, 32.0, 361.0)"></path><path d="M 2.0 91.1 L 2.0 314.5 " fill="none" stroke="#FFFFFF" stroke-width="1.00" transform="matrix(1.00, 0.00, 0.00, -1.00, 32.0, 361.0)"></path><path d="M 418.7 1.5 L 418.7 46.6 " fill="none" stroke="#7595B5" stroke-width="1.00" transform="matrix(1.00, 0.00, 0.00, -1.00, 32.0, 361.0)"></path><path d="M 418.7 46.6 L 418.7 314.5 " fill="none" stroke="#7595B5" stroke-width="1.00" transform="matrix(1.00, 0.00, 0.00, -1.00, 32.0, 361.0)"></path><path d="M 1.5 2.0 L 419.2 2.0 " fill="none" stroke="#7595B5" stroke-width="1.00" transform="matrix(1.00, 0.00, 0.00, -1.00, 32.0, 361.0)"></path><path d="M 1.5 314.0 L 140.9 314.0 " fill="none" stroke="#FFFFFF" stroke-width="1.00" transform="matrix(1.00, 0.00, 0.00, -1.00, 32.0, 361.0)"></path><path d="M 140.9 314.0 L 419.2 314.0 " fill="none" stroke="#7595B5" stroke-width="1.00" transform="matrix(1.00, 0.00, 0.00, -1.00, 32.0, 361.0)"></path></g></g><text xml:space="preserve" font-family="Palatino-Italic,Palatino" font-style="italic" font-size="30.0" fill="#324763" transform="matrix(1.00, 0.00, -0.00, -1.00, 36.7, 372.3)">g</text><text xml:space="preserve" font-family="Palatino-Italic,Palatino" font-style="italic" font-size="30.0" fill="#324763" transform="matrix(1.00, 0.00, -0.00, -1.00, 51.7, 372.3)">u</text><text xml:space="preserve" font-family="Palatino-Italic,Palatino" font-style="italic" font-size="30.0" fill="#324763" transform="matrix(1.00, 0.00, -0.00, -1.00, 68.4, 372.3)">i</text><text xml:space="preserve" font-family="Palatino-Italic,Palatino" font-style="italic" font-size="30.0" fill="#324763" transform="matrix(1.00, 0.00, -0.00, -1.00, 76.7, 372.3)">t</text><text xml:space="preserve" font-family="Palatino-Italic,Palatino" font-style="italic" font-size="30.0" fill="#324763" transform="matrix(1.00, 0.00, -0.00, -1.00, 86.7, 372.3)">a</text><text xml:space="preserve" font-family="Palatino-Italic,Palatino" font-style="italic" font-size="30.0" fill="#324763" transform="matrix(1.00, 0.00, -0.00, -1.00, 100.0, 372.3)">r</text><text xml:space="preserve" font-family="Palatino-Italic,Palatino" font-style="italic" font-size="30.0" fill="#324763" transform="matrix(1.00, 0.00, -0.00, -1.00, 111.7, 372.3)">s</text><path d="M 32.0 540.0 L 998.0 540.0 L 998.0 501.0 L 32.0 501.0 Z M 31.9 540.0 " fill="#FEFFFE"></path><path d="M 0.1 -0.0 L 966.1 -0.0 L 966.1 39.0 L 0.1 39.0 Z M 0.0 0.0 " fill="none" stroke="#A8A49C" stroke-width="2.00" transform="matrix(1.00, 0.00, 0.00, -1.00, 31.9, 540.0)"></path><g><clipPath id="clip0x6100020b30e0"><path d="M 30.9 500.0 L 998.9 500.0 L 998.9 541.0 L 30.9 541.0 Z M 30.9 500.0 "></path></clipPath><g clip-path="url(#clip0x6100020b30e0)"><text xml:space="preserve" font-family="Courier,Courier" font-size="24.0" fill="#000000" transform="matrix(1.00, 0.00, -0.00, -1.00, 36.9, 511.9)">g</text><text xml:space="preserve" font-family="Courier,Courier" font-size="24.0" fill="#000000" transform="matrix(1.00, 0.00, -0.00, -1.00, 51.3, 511.9)">u</text><text xml:space="preserve" font-family="Courier,Courier" font-size="24.0" fill="#000000" transform="matrix(1.00, 0.00, -0.00, -1.00, 65.7, 511.9)">i</text><text xml:space="preserve" font-family="Courier,Courier" font-size="24.0" fill="#000000" transform="matrix(1.00, 0.00, -0.00, -1.00, 80.1, 511.9)">t</text><text xml:space="preserve" font-family="Courier,Courier" font-size="24.0" fill="#000000" transform="matrix(1.00, 0.00, -0.00, -1.00, 94.5, 511.9)">a</text><text xml:space="preserve" font-family="Courier,Courier" font-size="24.0" fill="#000000" transform="matrix(1.00, 0.00, -0.00, -1.00, 108.9, 511.9)">r</text><text xml:space="preserve" font-family="Courier,Courier" font-size="24.0" fill="#000000" transform="matrix(1.00, 0.00, -0.00, -1.00, 123.3, 511.9)">s</text><text xml:space="preserve" font-family="Courier,Courier" font-size="24.0" fill="#000000" transform="matrix(1.00, 0.00, -0.00, -1.00, 137.7, 511.9)"> </text><text xml:space="preserve" font-family="Courier,Courier" font-size="24.0" fill="#000000" transform="matrix(1.00, 0.00, -0.00, -1.00, 152.1, 511.9)">=</text><text xml:space="preserve" font-family="Courier,Courier" font-size="24.0" fill="#000000" transform="matrix(1.00, 0.00, -0.00, -1.00, 166.5, 511.9)"> </text><text xml:space="preserve" font-family="Courier,Courier" font-size="24.0" fill="#000000" transform="matrix(1.00, 0.00, -0.00, -1.00, 180.9, 511.9)">g</text><text xml:space="preserve" font-family="Courier,Courier" font-size="24.0" fill="#000000" transform="matrix(1.00, 0.00, -0.00, -1.00, 195.3, 511.9)">u</text><text xml:space="preserve" font-family="Courier,Courier" font-size="24.0" fill="#000000" transform="matrix(1.00, 0.00, -0.00, -1.00, 209.7, 511.9)">i</text><text xml:space="preserve" font-family="Courier,Courier" font-size="24.0" fill="#000000" transform="matrix(1.00, 0.00, -0.00, -1.00, 224.1, 511.9)">t</text><text xml:space="preserve" font-family="Courier,Courier" font-size="24.0" fill="#000000" transform="matrix(1.00, 0.00, -0.00, -1.00, 238.6, 511.9)">a</text><text xml:space="preserve" font-family="Courier,Courier" font-size="24.0" fill="#000000" transform="matrix(1.00, 0.00, -0.00, -1.00, 253.0, 511.9)">r</text><text xml:space="preserve" font-family="Courier,Courier" font-size="24.0" fill="#000000" transform="matrix(1.00, 0.00, -0.00, -1.00, 267.4, 511.9)">s</text><text xml:space="preserve" font-family="Courier,Courier" font-size="24.0" fill="#797979" transform="matrix(1.00, 0.00, -0.00, -1.00, 281.7, 511.9)">.</text><text xml:space="preserve" font-family="Courier,Courier" font-size="24.0" fill="#000000" transform="matrix(1.00, 0.00, -0.00, -1.00, 296.1, 511.9)">s</text><text xml:space="preserve" font-family="Courier,Courier" font-size="24.0" fill="#000000" transform="matrix(1.00, 0.00, -0.00, -1.00, 310.5, 511.9)">e</text><text xml:space="preserve" font-family="Courier,Courier" font-size="24.0" fill="#000000" transform="matrix(1.00, 0.00, -0.00, -1.00, 324.9, 511.9)">t</text><text xml:space="preserve" font-family="Courier,Courier" font-size="24.0" fill="#000000" transform="matrix(1.00, 0.00, -0.00, -1.00, 339.3, 511.9)">_</text><text xml:space="preserve" font-family="Courier,Courier" font-size="24.0" fill="#000000" transform="matrix(1.00, 0.00, -0.00, -1.00, 353.7, 511.9)">i</text><text xml:space="preserve" font-family="Courier,Courier" font-size="24.0" fill="#000000" transform="matrix(1.00, 0.00, -0.00, -1.00, 368.2, 511.9)">n</text><text xml:space="preserve" font-family="Courier,Courier" font-size="24.0" fill="#000000" transform="matrix(1.00, 0.00, -0.00, -1.00, 382.6, 511.9)">d</text><text xml:space="preserve" font-family="Courier,Courier" font-size="24.0" fill="#000000" transform="matrix(1.00, 0.00, -0.00, -1.00, 397.0, 511.9)">e</text><text xml:space="preserve" font-family="Courier,Courier" font-size="24.0" fill="#000000" transform="matrix(1.00, 0.00, -0.00, -1.00, 411.4, 511.9)">x</text><text xml:space="preserve" font-family="Courier,Courier" font-size="24.0" fill="#000000" transform="matrix(1.00, 0.00, -0.00, -1.00, 425.8, 511.9)">(</text><text xml:space="preserve" font-family="Courier,Courier" font-size="24.0" fill="#C8352B" transform="matrix(1.00, 0.00, -0.00, -1.00, 440.2, 511.9)">'</text><text xml:space="preserve" font-family="Courier,Courier" font-size="24.0" fill="#C8352B" transform="matrix(1.00, 0.00, -0.00, -1.00, 454.6, 511.9)">y</text><text xml:space="preserve" font-family="Courier,Courier" font-size="24.0" fill="#C8352B" transform="matrix(1.00, 0.00, -0.00, -1.00, 469.0, 511.9)">e</text><text xml:space="preserve" font-family="Courier,Courier" font-size="24.0" fill="#C8352B" transform="matrix(1.00, 0.00, -0.00, -1.00, 483.4, 511.9)">a</text><text xml:space="preserve" font-family="Courier,Courier" font-size="24.0" fill="#C8352B" transform="matrix(1.00, 0.00, -0.00, -1.00, 497.8, 511.9)">r</text><text xml:space="preserve" font-family="Courier,Courier" font-size="24.0" fill="#C8352B" transform="matrix(1.00, 0.00, -0.00, -1.00, 512.2, 511.9)">'</text><text xml:space="preserve" font-family="Courier,Courier" font-size="24.0" fill="#000000" transform="matrix(1.00, 0.00, -0.00, -1.00, 526.6, 511.9)">)</text></g></g></g></svg>