<?xml version="1.0" encoding="UTF-8" standalone="no"?><svg xmlns="http://www.w3.org/2000/svg" xmlns:xlink="http://www.w3.org/1999/xlink" clip-rule="evenodd" stroke-miterlimit="10" viewBox="0 0 1024 768"><desc>SVG generated by Keynote</desc><defs></defs><g transform="matrix(1.00, 0.00, -0.00, -1.00, 0.0, 768.0)"><g><clipPath id="clip0x6000024a77a0"><path d="M 0.0 768.0 L 1024.0 768.0 L 1024.0 0.0 L 0.0 0.0 Z M 0.0 768.0 "></path></clipPath><g clip-path="url(#clip0x6000024a77a0)"><image xlink:href="1A7A41F82ED837B88C3A4983518DB956.jpeg" width="2048.00" height="1536.00" transform="matrix(0.50, 0.00, -0.00, -0.50, 0.0, 768.0)"></image></g></g><path d="M 0.0 0.5 L 960.0 0.5 L 960.0 0.5 L 0.0 0.5 Z M 0.0 0.0 " fill="none" stroke="#7995B9" stroke-width="1.00" transform="matrix(1.00, 0.00, 0.00, -1.00, 32.0, 89.0)"></path><path d="M 0.0 0.5 L 960.0 0.5 L 960.0 0.5 L 0.0 0.5 Z M 0.0 0.0 " fill="none" stroke="#7995B9" stroke-width="1.00" transform="matrix(1.00, 0.00, 0.00, -1.00, 32.0, 85.0)"></path><text xml:space="preserve" font-family="Palatino-Italic,Palatino" font-style="italic" font-size="18.0" fill="#5B86B8" transform="matrix(1.00, 0.00, -0.00, -1.00, 33.1, 51.5)">R</text><text xml:space="preserve" font-family="Palatino-Italic,Palatino" font-style="italic" font-size="18.0" fill="#5B86B8" transform="matrix(1.00, 0.00, -0.00, -1.00, 45.1, 51.5)">o</text><text xml:space="preserve" font-family="Palatino-Italic,Palatino" font-style="italic" font-size="18.0" fill="#5B86B8" transform="matrix(1.00, 0.00, -0.00, -1.00, 53.1, 51.5)">b</text><text xml:space="preserve" font-family="Palatino-Italic,Palatino" font-style="italic" font-size="18.0" fill="#5B86B8" transform="matrix(1.00, 0.00, -0.00, -1.00, 61.4, 51.5)">i</text><text xml:space="preserve" font-family="Palatino-Italic,Palatino" font-style="italic" font-size="18.0" fill="#5B86B8" transform="matrix(1.00, 0.00, -0.00, -1.00, 66.4, 51.5)">n</text><text xml:space="preserve" font-family="Palatino-Italic,Palatino" font-style="italic" font-size="18.0" fill="#5B86B8" transform="matrix(1.00, 0.00, -0.00, -1.00, 76.4, 51.5)"> </text><text xml:space="preserve" font-family="Palatino-Italic,Palatino" font-style="italic" font-size="18.0" fill="#5B86B8" transform="matrix(1.00, 0.00, -0.00, -1.00, 80.9, 51.5)">L</text><text xml:space="preserve" font-family="Palatino-Italic,Palatino" font-style="italic" font-size="18.0" fill="#5B86B8" transform="matrix(1.00, 0.00, -0.00, -1.00, 90.9, 51.5)">i</text><text xml:space="preserve" font-family="Palatino-Italic,Palatino" font-style="italic" font-size="18.0" fill="#5B86B8" transform="matrix(1.00, 0.00, -0.00, -1.00, 95.9, 51.5)">n</text><text xml:space="preserve" font-family="Palatino-Italic,Palatino" font-style="italic" font-size="18.0" fill="#5B86B8" transform="matrix(1.00, 0.00, -0.00, -1.00, 105.9, 51.5)">d</text><text xml:space="preserve" font-family="Palatino-Italic,Palatino" font-style="italic" font-size="18.0" fill="#5B86B8" transform="matrix(1.00, 0.00, -0.00, -1.00, 114.9, 51.5)">e</text><text xml:space="preserve" font-family="Palatino-Italic,Palatino" font-style="italic" font-size="18.0" fill="#5B86B8" transform="matrix(1.00, 0.00, -0.00, -1.00, 122.0, 51.5)">r</text><text xml:space="preserve" font-family="Palatino-Italic,Palatino" font-style="italic" font-size="18.0" fill="#5B86B8" transform="matrix(1.00, 0.00, -0.00, -1.00, 129.0, 51.5)">b</text><text xml:space="preserve" font-family="Palatino-Italic,Palatino" font-style="italic" font-size="18.0" fill="#5B86B8" transform="matrix(1.00, 0.00, -0.00, -1.00, 137.3, 51.5)">o</text><text xml:space="preserve" font-family="Palatino-Italic,Palatino" font-style="italic" font-size="18.0" fill="#5B86B8" transform="matrix(1.00, 0.00, -0.00, -1.00, 145.3, 51.5)">r</text><text xml:space="preserve" font-family="Palatino-Italic,Palatino" font-style="italic" font-size="18.0" fill="#5B86B8" transform="matrix(1.00, 0.00, -0.00, -1.00, 152.0, 51.5)">g</text><text xml:space="preserve" font-family="Didot,Didot" font-size="64.0" fill="#304863" transform="matrix(1.00, 0.00, -0.00, -1.00, 32.0, 159.7)">D</text><text xml:space="preserve" font-family="Didot,Didot" font-size="64.0" fill="#304863" transform="matrix(1.00, 0.00, -0.00, -1.00, 82.9, 159.7)">a</text><text xml:space="preserve" font-family="Didot,Didot" font-size="64.0" fill="#304863" transform="matrix(1.00, 0.00, -0.00, -1.00, 112.4, 159.7)">t</text><text xml:space="preserve" font-family="Didot,Didot" font-size="64.0" fill="#304863" transform="matrix(1.00, 0.00, -0.00, -1.00, 132.4, 159.7)">a</text><text xml:space="preserve" font-family="Didot,Didot" font-size="64.0" fill="#304863" transform="matrix(1.00, 0.00, -0.00, -1.00, 161.9, 159.7)"> </text><text xml:space="preserve" font-family="Didot,Didot" font-size="64.0" fill="#304863" transform="matrix(1.00, 0.00, -0.00, -1.00, 178.4, 159.7)">w</text><text xml:space="preserve" font-family="Didot,Didot" font-size="64.0" fill="#304863" transform="matrix(1.00, 0.00, -0.00, -1.00, 224.6, 159.7)">r</text><text xml:space="preserve" font-family="Didot,Didot" font-size="64.0" fill="#304863" transform="matrix(1.00, 0.00, -0.00, -1.00, 249.3, 159.7)">a</text><text xml:space="preserve" font-family="Didot,Didot" font-size="64.0" fill="#304863" transform="matrix(1.00, 0.00, -0.00, -1.00, 278.8, 159.7)">n</text><text xml:space="preserve" font-family="Didot,Didot" font-size="64.0" fill="#304863" transform="matrix(1.00, 0.00, -0.00, -1.00, 316.7, 159.7)">g</text><text xml:space="preserve" font-family="Didot,Didot" font-size="64.0" fill="#304863" transform="matrix(1.00, 0.00, -0.00, -1.00, 348.6, 159.7)">l</text><text xml:space="preserve" font-family="Didot,Didot" font-size="64.0" fill="#304863" transform="matrix(1.00, 0.00, -0.00, -1.00, 366.3, 159.7)">i</text><text xml:space="preserve" font-family="Didot,Didot" font-size="64.0" fill="#304863" transform="matrix(1.00, 0.00, -0.00, -1.00, 383.9, 159.7)">n</text><text xml:space="preserve" font-family="Didot,Didot" font-size="64.0" fill="#304863" transform="matrix(1.00, 0.00, -0.00, -1.00, 421.8, 159.7)">g</text><text xml:space="preserve" font-family="Didot,Didot" font-size="64.0" fill="#304863" transform="matrix(1.00, 0.00, -0.00, -1.00, 453.7, 159.7)"> </text><text xml:space="preserve" font-family="Didot,Didot" font-size="64.0" fill="#304863" transform="matrix(1.00, 0.00, -0.00, -1.00, 470.2, 159.7)">w</text><text xml:space="preserve" font-family="Didot,Didot" font-size="64.0" fill="#304863" transform="matrix(1.00, 0.00, -0.00, -1.00, 516.4, 159.7)">i</text><text xml:space="preserve" font-family="Didot,Didot" font-size="64.0" fill="#304863" transform="matrix(1.00, 0.00, -0.00, -1.00, 534.0, 159.7)">t</text><text xml:space="preserve" font-family="Didot,Didot" font-size="64.0" fill="#304863" transform="matrix(1.00, 0.00, -0.00, -1.00, 554.0, 159.7)">h</text><text xml:space="preserve" font-family="Didot,Didot" font-size="64.0" fill="#304863" transform="matrix(1.00, 0.00, -0.00, -1.00, 591.9, 159.7)"> </text><text xml:space="preserve" font-family="Didot,Didot" font-size="64.0" fill="#304863" transform="matrix(1.00, 0.00, -0.00, -1.00, 608.4, 159.7)">P</text><text xml:space="preserve" font-family="Didot,Didot" font-size="64.0" fill="#304863" transform="matrix(1.00, 0.00, -0.00, -1.00, 643.8, 159.7)">a</text><text xml:space="preserve" font-family="Didot,Didot" font-size="64.0" fill="#304863" transform="matrix(1.00, 0.00, -0.00, -1.00, 673.3, 159.7)">n</text><text xml:space="preserve" font-family="Didot,Didot" font-size="64.0" fill="#304863" transform="matrix(1.00, 0.00, -0.00, -1.00, 711.1, 159.7)">d</text><text xml:space="preserve" font-family="Didot,Didot" font-size="64.0" fill="#304863" transform="matrix(1.00, 0.00, -0.00, -1.00, 747.8, 159.7)">a</text><text xml:space="preserve" font-family="Didot,Didot" font-size="64.0" fill="#304863" transform="matrix(1.00, 0.00, -0.00, -1.00, 777.3, 159.7)">s</text><text xml:space="preserve" font-family="Palatino-Roman,Palatino" font-size="24.0" fill="#5B86B8" transform="matrix(1.00, 0.00, -0.00, -1.00, 32.0, 108.7)">A</text><text xml:space="preserve" font-family="Palatino-Roman,Palatino" font-size="24.0" fill="#5B86B8" transform="matrix(1.00, 0.00, -0.00, -1.00, 49.4, 108.7)"> </text><text xml:space="preserve" font-family="Palatino-Roman,Palatino" font-size="24.0" fill="#5B86B8" transform="matrix(1.00, 0.00, -0.00, -1.00, 55.4, 108.7)">g</text><text xml:space="preserve" font-family="Palatino-Roman,Palatino" font-size="24.0" fill="#5B86B8" transform="matrix(1.00, 0.00, -0.00, -1.00, 68.7, 108.7)">e</text><text xml:space="preserve" font-family="Palatino-Roman,Palatino" font-size="24.0" fill="#5B86B8" transform="matrix(1.00, 0.00, -0.00, -1.00, 80.2, 108.7)">n</text><text xml:space="preserve" font-family="Palatino-Roman,Palatino" font-size="24.0" fill="#5B86B8" transform="matrix(1.00, 0.00, -0.00, -1.00, 94.2, 108.7)">t</text><text xml:space="preserve" font-family="Palatino-Roman,Palatino" font-size="24.0" fill="#5B86B8" transform="matrix(1.00, 0.00, -0.00, -1.00, 102.0, 108.7)">l</text><text xml:space="preserve" font-family="Palatino-Roman,Palatino" font-size="24.0" fill="#5B86B8" transform="matrix(1.00, 0.00, -0.00, -1.00, 109.0, 108.7)">e</text><text xml:space="preserve" font-family="Palatino-Roman,Palatino" font-size="24.0" fill="#5B86B8" transform="matrix(1.00, 0.00, -0.00, -1.00, 120.5, 108.7)"> </text><text xml:space="preserve" font-family="Palatino-Roman,Palatino" font-size="24.0" fill="#5B86B8" transform="matrix(1.00, 0.00, -0.00, -1.00, 126.5, 108.7)">i</text><text xml:space="preserve" font-family="Palatino-Roman,Palatino" font-size="24.0" fill="#5B86B8" transform="matrix(1.00, 0.00, -0.00, -1.00, 133.5, 108.7)">n</text><text xml:space="preserve" font-family="Palatino-Roman,Palatino" font-size="24.0" fill="#5B86B8" transform="matrix(1.00, 0.00, -0.00, -1.00, 147.4, 108.7)">t</text><text xml:space="preserve" font-family="Palatino-Roman,Palatino" font-size="24.0" fill="#5B86B8" transform="matrix(1.00, 0.00, -0.00, -1.00, 155.3, 108.7)">r</text><text xml:space="preserve" font-family="Palatino-Roman,Palatino" font-size="24.0" fill="#5B86B8" transform="matrix(1.00, 0.00, -0.00, -1.00, 164.3, 108.7)">o</text><text xml:space="preserve" font-family="Palatino-Roman,Palatino" font-size="24.0" fill="#5B86B8" transform="matrix(1.00, 0.00, -0.00, -1.00, 177.4, 108.7)">d</text><text xml:space="preserve" font-family="Palatino-Roman,Palatino" font-size="24.0" fill="#5B86B8" transform="matrix(1.00, 0.00, -0.00, -1.00, 192.1, 108.7)">u</text><text xml:space="preserve" font-family="Palatino-Roman,Palatino" font-size="24.0" fill="#5B86B8" transform="matrix(1.00, 0.00, -0.00, -1.00, 206.6, 108.7)">c</text><text xml:space="preserve" font-family="Palatino-Roman,Palatino" font-size="24.0" fill="#5B86B8" transform="matrix(1.00, 0.00, -0.00, -1.00, 217.2, 108.7)">t</text><text xml:space="preserve" font-family="Palatino-Roman,Palatino" font-size="24.0" fill="#5B86B8" transform="matrix(1.00, 0.00, -0.00, -1.00, 225.0, 108.7)">i</text><text xml:space="preserve" font-family="Palatino-Roman,Palatino" font-size="24.0" fill="#5B86B8" transform="matrix(1.00, 0.00, -0.00, -1.00, 232.0, 108.7)">o</text><text xml:space="preserve" font-family="Palatino-Roman,Palatino" font-size="24.0" fill="#5B86B8" transform="matrix(1.00, 0.00, -0.00, -1.00, 245.1, 108.7)">n</text><g opacity="0.24"><g><clipPath id="clip0x6080010b7c40"><path d="M 45.0 233.0 L 994.0 233.0 L 994.0 237.0 L 45.0 237.0 Z M 45.0 233.0 "></path></clipPath><g clip-path="url(#clip0x6080010b7c40)"><path d="M 0.0 -0.0 L 945.0 -0.0 " fill="none" stroke="#7995B9" stroke-width="1.00" transform="matrix(1.00, 0.00, 0.00, -1.00, 47.0, 235.5)"></path></g></g></g><g opacity="0.64"><g><clipPath id="clip0x6080016a7440"><path d="M 127.6 370.0 C 141.5 356.7 141.5 335.2 127.6 321.9 C 113.7 308.7 91.3 308.7 77.4 321.9 C 63.5 335.2 63.5 356.7 77.4 370.0 C 91.3 383.3 113.7 383.3 127.6 370.0 Z M 127.6 370.0 "></path></clipPath><g clip-path="url(#clip0x6080016a7440)"><g><clipPath id="clip0x6080010b58a0"><path d="M 66.0 310.0 L 139.0 310.0 L 139.0 381.0 L 66.0 381.0 Z M 66.0 310.0 "></path></clipPath><g clip-path="url(#clip0x6080010b58a0)"><image xlink:href="931714CB8B7FE16B9B80A5EAB57E0513.png" width="383.00" height="383.00" transform="matrix(0.50, 0.00, -0.00, -0.50, 67.0, 380.0)"></image></g></g></g></g></g><g opacity="0.64"><g><clipPath id="clip0x6080014bdf40"><path d="M 201.6 454.0 C 215.5 440.7 215.5 419.2 201.6 405.9 C 187.7 392.7 165.3 392.7 151.4 405.9 C 137.5 419.2 137.5 440.7 151.4 454.0 C 165.3 467.3 187.7 467.3 201.6 454.0 Z M 201.6 454.0 "></path></clipPath><g clip-path="url(#clip0x6080014bdf40)"><g><clipPath id="clip0x6080016ad440"><path d="M 140.0 394.0 L 213.0 394.0 L 213.0 465.0 L 140.0 465.0 Z M 140.0 394.0 "></path></clipPath><g clip-path="url(#clip0x6080016ad440)"><image xlink:href="../../FD143D00-F4AD-4582-B813-3101DA54A4D8/assets/931714CB8B7FE16B9B80A5EAB57E0513.png" width="383.00" height="383.00" transform="matrix(0.50, 0.00, -0.00, -0.50, 141.0, 464.0)"></image></g></g></g></g></g><g opacity="0.64"><g><clipPath id="clip0x6100018a2040"><path d="M 225.6 346.0 C 239.5 332.7 239.5 311.2 225.6 297.9 C 211.7 284.7 189.3 284.7 175.4 297.9 C 161.5 311.2 161.5 332.7 175.4 346.0 C 189.3 359.3 211.7 359.3 225.6 346.0 Z M 225.6 346.0 "></path></clipPath><g clip-path="url(#clip0x6100018a2040)"><g><clipPath id="clip0x6100012b7fa0"><path d="M 164.0 286.0 L 237.0 286.0 L 237.0 357.0 L 164.0 357.0 Z M 164.0 286.0 "></path></clipPath><g clip-path="url(#clip0x6100012b7fa0)"><image xlink:href="../../FD143D00-F4AD-4582-B813-3101DA54A4D8/assets/931714CB8B7FE16B9B80A5EAB57E0513.png" width="383.00" height="383.00" transform="matrix(0.50, 0.00, -0.00, -0.50, 165.0, 356.0)"></image></g></g></g></g></g><g opacity="0.64"><g><clipPath id="clip0x6000020b2420"><path d="M 298.6 433.5 C 312.5 420.2 312.5 398.7 298.6 385.4 C 284.7 372.2 262.3 372.2 248.4 385.4 C 234.5 398.7 234.5 420.2 248.4 433.5 C 262.3 446.8 284.7 446.8 298.6 433.5 Z M 298.6 433.5 "></path></clipPath><g clip-path="url(#clip0x6000020b2420)"><g><clipPath id="clip0x6000022a6cc0"><path d="M 237.0 374.0 L 310.0 374.0 L 310.0 445.0 L 237.0 445.0 Z M 237.0 374.0 "></path></clipPath><g clip-path="url(#clip0x6000022a6cc0)"><image xlink:href="../../FD143D00-F4AD-4582-B813-3101DA54A4D8/assets/931714CB8B7FE16B9B80A5EAB57E0513.png" width="383.00" height="383.00" transform="matrix(0.50, 0.00, -0.00, -0.50, 238.0, 443.5)"></image></g></g></g></g></g><g opacity="0.64"><g><clipPath id="clip0x6180018ba4c0"><path d="M 258.6 515.0 C 272.5 501.7 272.5 480.2 258.6 466.9 C 244.7 453.7 222.3 453.7 208.4 466.9 C 194.5 480.2 194.5 501.7 208.4 515.0 C 222.3 528.3 244.7 528.3 258.6 515.0 Z M 258.6 515.0 "></path></clipPath><g clip-path="url(#clip0x6180018ba4c0)"><g><clipPath id="clip0x618001aaf600"><path d="M 197.0 455.0 L 270.0 455.0 L 270.0 526.0 L 197.0 526.0 Z M 197.0 455.0 "></path></clipPath><g clip-path="url(#clip0x618001aaf600)"><image xlink:href="../../FD143D00-F4AD-4582-B813-3101DA54A4D8/assets/931714CB8B7FE16B9B80A5EAB57E0513.png" width="383.00" height="383.00" transform="matrix(0.50, 0.00, -0.00, -0.50, 198.0, 525.0)"></image></g></g></g></g></g><g opacity="0.64"><g><clipPath id="clip0x6100018a1320"><path d="M 425.6 554.0 C 439.5 540.7 439.5 519.2 425.6 505.9 C 411.7 492.7 389.3 492.7 375.4 505.9 C 361.5 519.2 361.5 540.7 375.4 554.0 C 389.3 567.3 411.7 567.3 425.6 554.0 Z M 425.6 554.0 "></path></clipPath><g clip-path="url(#clip0x6100018a1320)"><g><clipPath id="clip0x6100018aada0"><path d="M 364.0 494.0 L 437.0 494.0 L 437.0 565.0 L 364.0 565.0 Z M 364.0 494.0 "></path></clipPath><g clip-path="url(#clip0x6100018aada0)"><image xlink:href="../../FD143D00-F4AD-4582-B813-3101DA54A4D8/assets/931714CB8B7FE16B9B80A5EAB57E0513.png" width="383.00" height="383.00" transform="matrix(0.50, 0.00, -0.00, -0.50, 365.0, 564.0)"></image></g></g></g></g></g><g opacity="0.64"><g><clipPath id="clip0x6180018ba640"><path d="M 298.6 647.0 C 312.5 633.7 312.5 612.2 298.6 598.9 C 284.7 585.7 262.3 585.7 248.4 598.9 C 234.5 612.2 234.5 633.7 248.4 647.0 C 262.3 660.3 284.7 660.3 298.6 647.0 Z M 298.6 647.0 "></path></clipPath><g clip-path="url(#clip0x6180018ba640)"><g><clipPath id="clip0x6180018a2580"><path d="M 237.0 587.0 L 310.0 587.0 L 310.0 658.0 L 237.0 658.0 Z M 237.0 587.0 "></path></clipPath><g clip-path="url(#clip0x6180018a2580)"><image xlink:href="../../FD143D00-F4AD-4582-B813-3101DA54A4D8/assets/931714CB8B7FE16B9B80A5EAB57E0513.png" width="383.00" height="383.00" transform="matrix(0.50, 0.00, -0.00, -0.50, 238.0, 657.0)"></image></g></g></g></g></g><g opacity="0.64"><g><clipPath id="clip0x6180018b6aa0"><path d="M 578.6 554.0 C 592.5 540.7 592.5 519.2 578.6 505.9 C 564.7 492.7 542.3 492.7 528.4 505.9 C 514.5 519.2 514.5 540.7 528.4 554.0 C 542.3 567.3 564.7 567.3 578.6 554.0 Z M 578.6 554.0 "></path></clipPath><g clip-path="url(#clip0x6180018b6aa0)"><g><clipPath id="clip0x6180018aff60"><path d="M 517.0 494.0 L 590.0 494.0 L 590.0 565.0 L 517.0 565.0 Z M 517.0 494.0 "></path></clipPath><g clip-path="url(#clip0x6180018aff60)"><image xlink:href="../../FD143D00-F4AD-4582-B813-3101DA54A4D8/assets/931714CB8B7FE16B9B80A5EAB57E0513.png" width="383.00" height="383.00" transform="matrix(0.50, 0.00, -0.00, -0.50, 518.0, 564.0)"></image></g></g></g></g></g><g opacity="0.64"><g><clipPath id="clip0x6080016ad9e0"><path d="M 526.6 647.5 C 540.5 634.2 540.5 612.7 526.6 599.4 C 512.7 586.1 490.3 586.1 476.4 599.4 C 462.5 612.7 462.5 634.2 476.4 647.5 C 490.3 660.8 512.7 660.8 526.6 647.5 Z M 526.6 647.5 "></path></clipPath><g clip-path="url(#clip0x6080016ad9e0)"><g><clipPath id="clip0x608000cb86c0"><path d="M 465.0 588.0 L 538.0 588.0 L 538.0 659.0 L 465.0 659.0 Z M 465.0 588.0 "></path></clipPath><g clip-path="url(#clip0x608000cb86c0)"><image xlink:href="../../FD143D00-F4AD-4582-B813-3101DA54A4D8/assets/931714CB8B7FE16B9B80A5EAB57E0513.png" width="383.00" height="383.00" transform="matrix(0.50, 0.00, -0.00, -0.50, 466.0, 657.5)"></image></g></g></g></g></g><g opacity="0.64"><g><clipPath id="clip0x6080014bfc20"><path d="M 882.6 690.0 C 896.5 676.7 896.5 655.2 882.6 641.9 C 868.7 628.7 846.3 628.7 832.4 641.9 C 818.5 655.2 818.5 676.7 832.4 690.0 C 846.3 703.3 868.7 703.3 882.6 690.0 Z M 882.6 690.0 "></path></clipPath><g clip-path="url(#clip0x6080014bfc20)"><g><clipPath id="clip0x6080018a0480"><path d="M 821.0 630.0 L 894.0 630.0 L 894.0 701.0 L 821.0 701.0 Z M 821.0 630.0 "></path></clipPath><g clip-path="url(#clip0x6080018a0480)"><image xlink:href="../../FD143D00-F4AD-4582-B813-3101DA54A4D8/assets/931714CB8B7FE16B9B80A5EAB57E0513.png" width="383.00" height="383.00" transform="matrix(0.50, 0.00, -0.00, -0.50, 822.0, 700.0)"></image></g></g></g></g></g><g opacity="0.64"><g><clipPath id="clip0x6100012b9740"><path d="M 784.6 670.0 C 798.5 656.7 798.5 635.2 784.6 621.9 C 770.7 608.7 748.3 608.7 734.4 621.9 C 720.5 635.2 720.5 656.7 734.4 670.0 C 748.3 683.3 770.7 683.3 784.6 670.0 Z M 784.6 670.0 "></path></clipPath><g clip-path="url(#clip0x6100012b9740)"><g><clipPath id="clip0x6100014bb6c0"><path d="M 723.0 610.0 L 796.0 610.0 L 796.0 681.0 L 723.0 681.0 Z M 723.0 610.0 "></path></clipPath><g clip-path="url(#clip0x6100014bb6c0)"><image xlink:href="../../FD143D00-F4AD-4582-B813-3101DA54A4D8/assets/931714CB8B7FE16B9B80A5EAB57E0513.png" width="383.00" height="383.00" transform="matrix(0.50, 0.00, -0.00, -0.50, 724.0, 680.0)"></image></g></g></g></g></g><g opacity="0.64"><g><clipPath id="clip0x6080016aa320"><path d="M 664.6 734.0 C 678.5 720.7 678.5 699.2 664.6 685.9 C 650.7 672.7 628.3 672.7 614.4 685.9 C 600.5 699.2 600.5 720.7 614.4 734.0 C 628.3 747.3 650.7 747.3 664.6 734.0 Z M 664.6 734.0 "></path></clipPath><g clip-path="url(#clip0x6080016aa320)"><g><clipPath id="clip0x6080016be480"><path d="M 603.0 674.0 L 676.0 674.0 L 676.0 745.0 L 603.0 745.0 Z M 603.0 674.0 "></path></clipPath><g clip-path="url(#clip0x6080016be480)"><image xlink:href="../../FD143D00-F4AD-4582-B813-3101DA54A4D8/assets/931714CB8B7FE16B9B80A5EAB57E0513.png" width="383.00" height="383.00" transform="matrix(0.50, 0.00, -0.00, -0.50, 604.0, 744.0)"></image></g></g></g></g></g><g opacity="0.24"><g><clipPath id="clip0x6000022a9720"><path d="M 46.0 346.0 L 994.0 346.0 L 994.0 350.0 L 46.0 350.0 Z M 46.0 346.0 "></path></clipPath><g clip-path="url(#clip0x6000022a9720)"><path d="M 0.0 0.2 L 945.0 0.2 " fill="none" stroke="#7995B9" stroke-width="1.00" transform="matrix(1.00, 0.00, 0.00, -1.00, 47.0, 347.7)"></path></g></g></g><g opacity="0.24"><g><clipPath id="clip0x6000020a4f20"><path d="M 46.0 442.0 L 994.0 442.0 L 994.0 446.0 L 46.0 446.0 Z M 46.0 442.0 "></path></clipPath><g clip-path="url(#clip0x6000020a4f20)"><path d="M 0.0 -0.0 L 945.0 -0.0 " fill="none" stroke="#7995B9" stroke-width="1.00" transform="matrix(1.00, 0.00, 0.00, -1.00, 47.0, 444.5)"></path></g></g></g><g opacity="0.24"><g><clipPath id="clip0x6000020a9120"><path d="M 46.0 539.0 L 994.0 539.0 L 994.0 543.0 L 46.0 543.0 Z M 46.0 539.0 "></path></clipPath><g clip-path="url(#clip0x6000020a9120)"><path d="M 0.0 -0.3 L 945.0 -0.3 " fill="none" stroke="#7995B9" stroke-width="1.00" transform="matrix(1.00, 0.00, 0.00, -1.00, 47.0, 541.2)"></path></g></g></g><g opacity="0.24"><g><clipPath id="clip0x6000024a1800"><path d="M 46.0 636.0 L 994.0 636.0 L 994.0 640.0 L 46.0 640.0 Z M 46.0 636.0 "></path></clipPath><g clip-path="url(#clip0x6000024a1800)"><path d="M 0.0 0.5 L 945.0 0.5 " fill="none" stroke="#7995B9" stroke-width="1.00" transform="matrix(1.00, 0.00, 0.00, -1.00, 47.0, 638.0)"></path></g></g></g><g opacity="0.24"><g><clipPath id="clip0x6000022b7fa0"><path d="M 46.0 733.0 L 994.0 733.0 L 994.0 737.0 L 46.0 737.0 Z M 46.0 733.0 "></path></clipPath><g clip-path="url(#clip0x6000022b7fa0)"><path d="M 0.0 0.2 L 945.0 0.2 " fill="none" stroke="#7995B9" stroke-width="1.00" transform="matrix(1.00, 0.00, 0.00, -1.00, 47.0, 734.7)"></path></g></g></g></g></svg>