<?xml version="1.0" encoding="UTF-8" standalone="no"?><svg xmlns="http://www.w3.org/2000/svg" xmlns:xlink="http://www.w3.org/1999/xlink" clip-rule="evenodd" stroke-miterlimit="10" viewBox="0 0 1024 768"><desc>SVG generated by Keynote</desc><defs></defs><g transform="matrix(1.00, 0.00, -0.00, -1.00, 0.0, 768.0)"><g><clipPath id="clip0x6100010bdee0"><path d="M 0.0 768.0 L 1024.0 768.0 L 1024.0 0.0 L 0.0 0.0 Z M 0.0 768.0 "></path></clipPath><g clip-path="url(#clip0x6100010bdee0)"><image xlink:href="../../FD143D00-F4AD-4582-B813-3101DA54A4D8/assets/1A7A41F82ED837B88C3A4983518DB956.jpeg" width="2048.00" height="1536.00" transform="matrix(0.50, 0.00, -0.00, -0.50, 0.0, 768.0)"></image></g></g><path d="M 0.0 0.5 L 960.0 0.5 L 960.0 0.5 L 0.0 0.5 Z M 0.0 0.0 " fill="none" stroke="#7995B9" stroke-width="1.00" transform="matrix(1.00, 0.00, 0.00, -1.00, 32.0, 566.0)"></path><path d="M 0.0 0.5 L 960.0 0.5 L 960.0 0.5 L 0.0 0.5 Z M 0.0 0.0 " fill="none" stroke="#7995B9" stroke-width="1.00" transform="matrix(1.00, 0.00, 0.00, -1.00, 32.0, 562.0)"></path><text xml:space="preserve" font-family="Didot,Didot" font-size="64.0" fill="#304863" transform="matrix(1.00, 0.00, -0.00, -1.00, 32.0, 631.7)">A</text><text xml:space="preserve" font-family="Didot,Didot" font-size="64.0" fill="#304863" transform="matrix(1.00, 0.00, -0.00, -1.00, 78.1, 631.7)">b</text><text xml:space="preserve" font-family="Didot,Didot" font-size="64.0" fill="#304863" transform="matrix(1.00, 0.00, -0.00, -1.00, 114.8, 631.7)">o</text><text xml:space="preserve" font-family="Didot,Didot" font-size="64.0" fill="#304863" transform="matrix(1.00, 0.00, -0.00, -1.00, 149.1, 631.7)">u</text><text xml:space="preserve" font-family="Didot,Didot" font-size="64.0" fill="#304863" transform="matrix(1.00, 0.00, -0.00, -1.00, 185.8, 631.7)">t</text><text xml:space="preserve" font-family="Didot,Didot" font-size="64.0" fill="#304863" transform="matrix(1.00, 0.00, -0.00, -1.00, 205.8, 631.7)"> </text><text xml:space="preserve" font-family="Didot,Didot" font-size="64.0" fill="#304863" transform="matrix(1.00, 0.00, -0.00, -1.00, 222.3, 631.7)">m</text><text xml:space="preserve" font-family="Didot,Didot" font-size="64.0" fill="#304863" transform="matrix(1.00, 0.00, -0.00, -1.00, 276.7, 631.7)">e</text><text xml:space="preserve" font-family="ZapfDingbatsITC,Zapf Dingbats" font-size="26.6" fill="#5B86B8" transform="matrix(1.00, 0.00, -0.00, -1.00, 32.0, 411.2)">✤</text><text xml:space="preserve" font-family="Palatino-Roman,Palatino" font-size="38.0" fill="#000000" transform="matrix(1.00, 0.00, -0.00, -1.00, 72.0, 407.5)">D</text><text xml:space="preserve" font-family="Palatino-Roman,Palatino" font-size="38.0" fill="#000000" transform="matrix(1.00, 0.00, -0.00, -1.00, 101.4, 407.5)">a</text><text xml:space="preserve" font-family="Palatino-Roman,Palatino" font-size="38.0" fill="#000000" transform="matrix(1.00, 0.00, -0.00, -1.00, 120.4, 407.5)">t</text><text xml:space="preserve" font-family="Palatino-Roman,Palatino" font-size="38.0" fill="#000000" transform="matrix(1.00, 0.00, -0.00, -1.00, 132.8, 407.5)">a</text><text xml:space="preserve" font-family="Palatino-Roman,Palatino" font-size="38.0" fill="#000000" transform="matrix(1.00, 0.00, -0.00, -1.00, 151.8, 407.5)"> </text><text xml:space="preserve" font-family="Palatino-Roman,Palatino" font-size="38.0" fill="#000000" transform="matrix(1.00, 0.00, -0.00, -1.00, 161.3, 407.5)">j</text><text xml:space="preserve" font-family="Palatino-Roman,Palatino" font-size="38.0" fill="#000000" transform="matrix(1.00, 0.00, -0.00, -1.00, 170.2, 407.5)">o</text><text xml:space="preserve" font-family="Palatino-Roman,Palatino" font-size="38.0" fill="#000000" transform="matrix(1.00, 0.00, -0.00, -1.00, 190.9, 407.5)">u</text><text xml:space="preserve" font-family="Palatino-Roman,Palatino" font-size="38.0" fill="#000000" transform="matrix(1.00, 0.00, -0.00, -1.00, 213.8, 407.5)">r</text><text xml:space="preserve" font-family="Palatino-Roman,Palatino" font-size="38.0" fill="#000000" transform="matrix(1.00, 0.00, -0.00, -1.00, 228.9, 407.5)">n</text><text xml:space="preserve" font-family="Palatino-Roman,Palatino" font-size="38.0" fill="#000000" transform="matrix(1.00, 0.00, -0.00, -1.00, 251.0, 407.5)">a</text><text xml:space="preserve" font-family="Palatino-Roman,Palatino" font-size="38.0" fill="#000000" transform="matrix(1.00, 0.00, -0.00, -1.00, 270.0, 407.5)">l</text><text xml:space="preserve" font-family="Palatino-Roman,Palatino" font-size="38.0" fill="#000000" transform="matrix(1.00, 0.00, -0.00, -1.00, 281.0, 407.5)">i</text><text xml:space="preserve" font-family="Palatino-Roman,Palatino" font-size="38.0" fill="#000000" transform="matrix(1.00, 0.00, -0.00, -1.00, 292.1, 407.5)">s</text><text xml:space="preserve" font-family="Palatino-Roman,Palatino" font-size="38.0" fill="#000000" transform="matrix(1.00, 0.00, -0.00, -1.00, 308.2, 407.5)">t</text><text xml:space="preserve" font-family="Palatino-Roman,Palatino" font-size="38.0" fill="#000000" transform="matrix(1.00, 0.00, -0.00, -1.00, 320.6, 407.5)"> </text><text xml:space="preserve" font-family="Palatino-Roman,Palatino" font-size="38.0" fill="#000000" transform="matrix(1.00, 0.00, -0.00, -1.00, 330.1, 407.5)">a</text><text xml:space="preserve" font-family="Palatino-Roman,Palatino" font-size="38.0" fill="#000000" transform="matrix(1.00, 0.00, -0.00, -1.00, 349.1, 407.5)">t</text><text xml:space="preserve" font-family="Palatino-Roman,Palatino" font-size="38.0" fill="#000000" transform="matrix(1.00, 0.00, -0.00, -1.00, 361.5, 407.5)"> </text><text xml:space="preserve" font-family="Palatino-Roman,Palatino" font-size="38.0" fill="#000000" transform="matrix(1.00, 0.00, -0.00, -1.00, 371.0, 407.5)">S</text><text xml:space="preserve" font-family="Palatino-Roman,Palatino" font-size="38.0" fill="#000000" transform="matrix(1.00, 0.00, -0.00, -1.00, 390.9, 407.5)">V</text><text xml:space="preserve" font-family="Palatino-Roman,Palatino" font-size="38.0" fill="#000000" transform="matrix(1.00, 0.00, -0.00, -1.00, 418.4, 407.5)">T</text><text xml:space="preserve" font-family="ZapfDingbatsITC,Zapf Dingbats" font-size="26.6" fill="#5B86B8" transform="matrix(1.00, 0.00, -0.00, -1.00, 32.0, 319.2)">✤</text><text xml:space="preserve" font-family="Palatino-Roman,Palatino" font-size="38.0" fill="#000000" transform="matrix(1.00, 0.00, -0.00, -1.00, 72.0, 315.5)">I</text><text xml:space="preserve" font-family="Palatino-Roman,Palatino" font-size="38.0" fill="#000000" transform="matrix(1.00, 0.00, -0.00, -1.00, 84.8, 315.5)">n</text><text xml:space="preserve" font-family="Palatino-Roman,Palatino" font-size="38.0" fill="#000000" transform="matrix(1.00, 0.00, -0.00, -1.00, 106.9, 315.5)">t</text><text xml:space="preserve" font-family="Palatino-Roman,Palatino" font-size="38.0" fill="#000000" transform="matrix(1.00, 0.00, -0.00, -1.00, 119.3, 315.5)">e</text><text xml:space="preserve" font-family="Palatino-Roman,Palatino" font-size="38.0" fill="#000000" transform="matrix(1.00, 0.00, -0.00, -1.00, 137.5, 315.5)">r</text><text xml:space="preserve" font-family="Palatino-Roman,Palatino" font-size="38.0" fill="#000000" transform="matrix(1.00, 0.00, -0.00, -1.00, 152.5, 315.5)">a</text><text xml:space="preserve" font-family="Palatino-Roman,Palatino" font-size="38.0" fill="#000000" transform="matrix(1.00, 0.00, -0.00, -1.00, 171.5, 315.5)">c</text><text xml:space="preserve" font-family="Palatino-Roman,Palatino" font-size="38.0" fill="#000000" transform="matrix(1.00, 0.00, -0.00, -1.00, 188.4, 315.5)">t</text><text xml:space="preserve" font-family="Palatino-Roman,Palatino" font-size="38.0" fill="#000000" transform="matrix(1.00, 0.00, -0.00, -1.00, 200.8, 315.5)">i</text><text xml:space="preserve" font-family="Palatino-Roman,Palatino" font-size="38.0" fill="#000000" transform="matrix(1.00, 0.00, -0.00, -1.00, 211.9, 315.5)">v</text><text xml:space="preserve" font-family="Palatino-Roman,Palatino" font-size="38.0" fill="#000000" transform="matrix(1.00, 0.00, -0.00, -1.00, 233.3, 315.5)">e</text><text xml:space="preserve" font-family="Palatino-Roman,Palatino" font-size="38.0" fill="#000000" transform="matrix(1.00, 0.00, -0.00, -1.00, 251.5, 315.5)">s</text><text xml:space="preserve" font-family="Palatino-Roman,Palatino" font-size="38.0" fill="#000000" transform="matrix(1.00, 0.00, -0.00, -1.00, 267.6, 315.5)">,</text><text xml:space="preserve" font-family="Palatino-Roman,Palatino" font-size="38.0" fill="#000000" transform="matrix(1.00, 0.00, -0.00, -1.00, 277.1, 315.5)"> </text><text xml:space="preserve" font-family="Palatino-Roman,Palatino" font-size="38.0" fill="#000000" transform="matrix(1.00, 0.00, -0.00, -1.00, 286.6, 315.5)">v</text><text xml:space="preserve" font-family="Palatino-Roman,Palatino" font-size="38.0" fill="#000000" transform="matrix(1.00, 0.00, -0.00, -1.00, 308.1, 315.5)">i</text><text xml:space="preserve" font-family="Palatino-Roman,Palatino" font-size="38.0" fill="#000000" transform="matrix(1.00, 0.00, -0.00, -1.00, 319.1, 315.5)">s</text><text xml:space="preserve" font-family="Palatino-Roman,Palatino" font-size="38.0" fill="#000000" transform="matrix(1.00, 0.00, -0.00, -1.00, 335.2, 315.5)">u</text><text xml:space="preserve" font-family="Palatino-Roman,Palatino" font-size="38.0" fill="#000000" transform="matrix(1.00, 0.00, -0.00, -1.00, 358.1, 315.5)">a</text><text xml:space="preserve" font-family="Palatino-Roman,Palatino" font-size="38.0" fill="#000000" transform="matrix(1.00, 0.00, -0.00, -1.00, 377.1, 315.5)">l</text><text xml:space="preserve" font-family="Palatino-Roman,Palatino" font-size="38.0" fill="#000000" transform="matrix(1.00, 0.00, -0.00, -1.00, 388.2, 315.5)">i</text><text xml:space="preserve" font-family="Palatino-Roman,Palatino" font-size="38.0" fill="#000000" transform="matrix(1.00, 0.00, -0.00, -1.00, 399.3, 315.5)">z</text><text xml:space="preserve" font-family="Palatino-Roman,Palatino" font-size="38.0" fill="#000000" transform="matrix(1.00, 0.00, -0.00, -1.00, 418.3, 315.5)">a</text><text xml:space="preserve" font-family="Palatino-Roman,Palatino" font-size="38.0" fill="#000000" transform="matrix(1.00, 0.00, -0.00, -1.00, 437.3, 315.5)">t</text><text xml:space="preserve" font-family="Palatino-Roman,Palatino" font-size="38.0" fill="#000000" transform="matrix(1.00, 0.00, -0.00, -1.00, 449.7, 315.5)">i</text><text xml:space="preserve" font-family="Palatino-Roman,Palatino" font-size="38.0" fill="#000000" transform="matrix(1.00, 0.00, -0.00, -1.00, 460.7, 315.5)">o</text><text xml:space="preserve" font-family="Palatino-Roman,Palatino" font-size="38.0" fill="#000000" transform="matrix(1.00, 0.00, -0.00, -1.00, 481.5, 315.5)">n</text><text xml:space="preserve" font-family="Palatino-Roman,Palatino" font-size="38.0" fill="#000000" transform="matrix(1.00, 0.00, -0.00, -1.00, 503.6, 315.5)">s</text><text xml:space="preserve" font-family="Palatino-Roman,Palatino" font-size="38.0" fill="#000000" transform="matrix(1.00, 0.00, -0.00, -1.00, 519.7, 315.5)"> </text><text xml:space="preserve" font-family="Palatino-Roman,Palatino" font-size="38.0" fill="#000000" transform="matrix(1.00, 0.00, -0.00, -1.00, 529.2, 315.5)">e</text><text xml:space="preserve" font-family="Palatino-Roman,Palatino" font-size="38.0" fill="#000000" transform="matrix(1.00, 0.00, -0.00, -1.00, 547.4, 315.5)">t</text><text xml:space="preserve" font-family="Palatino-Roman,Palatino" font-size="38.0" fill="#000000" transform="matrix(1.00, 0.00, -0.00, -1.00, 559.8, 315.5)">c</text><text xml:space="preserve" font-family="Palatino-Roman,Palatino" font-size="38.0" fill="#000000" transform="matrix(1.00, 0.00, -0.00, -1.00, 576.6, 315.5)">.</text><text xml:space="preserve" font-family="ZapfDingbatsITC,Zapf Dingbats" font-size="26.6" fill="#5B86B8" transform="matrix(1.00, 0.00, -0.00, -1.00, 32.0, 227.2)">✤</text><text xml:space="preserve" font-family="Palatino-Roman,Palatino" font-size="38.0" fill="#000000" transform="matrix(1.00, 0.00, -0.00, -1.00, 72.0, 223.5)">I</text><text xml:space="preserve" font-family="Palatino-Roman,Palatino" font-size="38.0" fill="#000000" transform="matrix(1.00, 0.00, -0.00, -1.00, 84.8, 223.5)">n</text><text xml:space="preserve" font-family="Palatino-Roman,Palatino" font-size="38.0" fill="#000000" transform="matrix(1.00, 0.00, -0.00, -1.00, 106.9, 223.5)">t</text><text xml:space="preserve" font-family="Palatino-Roman,Palatino" font-size="38.0" fill="#000000" transform="matrix(1.00, 0.00, -0.00, -1.00, 119.3, 223.5)">r</text><text xml:space="preserve" font-family="Palatino-Roman,Palatino" font-size="38.0" fill="#000000" transform="matrix(1.00, 0.00, -0.00, -1.00, 133.7, 223.5)">o</text><text xml:space="preserve" font-family="Palatino-Roman,Palatino" font-size="38.0" fill="#000000" transform="matrix(1.00, 0.00, -0.00, -1.00, 154.4, 223.5)">d</text><text xml:space="preserve" font-family="Palatino-Roman,Palatino" font-size="38.0" fill="#000000" transform="matrix(1.00, 0.00, -0.00, -1.00, 177.6, 223.5)">u</text><text xml:space="preserve" font-family="Palatino-Roman,Palatino" font-size="38.0" fill="#000000" transform="matrix(1.00, 0.00, -0.00, -1.00, 200.5, 223.5)">c</text><text xml:space="preserve" font-family="Palatino-Roman,Palatino" font-size="38.0" fill="#000000" transform="matrix(1.00, 0.00, -0.00, -1.00, 217.4, 223.5)">e</text><text xml:space="preserve" font-family="Palatino-Roman,Palatino" font-size="38.0" fill="#000000" transform="matrix(1.00, 0.00, -0.00, -1.00, 235.6, 223.5)">d</text><text xml:space="preserve" font-family="Palatino-Roman,Palatino" font-size="38.0" fill="#000000" transform="matrix(1.00, 0.00, -0.00, -1.00, 258.8, 223.5)"> </text><text xml:space="preserve" font-family="Palatino-Roman,Palatino" font-size="38.0" fill="#000000" transform="matrix(1.00, 0.00, -0.00, -1.00, 268.3, 223.5)">t</text><text xml:space="preserve" font-family="Palatino-Roman,Palatino" font-size="38.0" fill="#000000" transform="matrix(1.00, 0.00, -0.00, -1.00, 280.7, 223.5)">o</text><text xml:space="preserve" font-family="Palatino-Roman,Palatino" font-size="38.0" fill="#000000" transform="matrix(1.00, 0.00, -0.00, -1.00, 301.4, 223.5)"> </text><text xml:space="preserve" font-family="Palatino-Roman,Palatino" font-size="38.0" fill="#000000" transform="matrix(1.00, 0.00, -0.00, -1.00, 310.9, 223.5)">P</text><text xml:space="preserve" font-family="Palatino-Roman,Palatino" font-size="38.0" fill="#000000" transform="matrix(1.00, 0.00, -0.00, -1.00, 333.9, 223.5)">y</text><text xml:space="preserve" font-family="Palatino-Roman,Palatino" font-size="38.0" fill="#000000" transform="matrix(1.00, 0.00, -0.00, -1.00, 355.0, 223.5)">t</text><text xml:space="preserve" font-family="Palatino-Roman,Palatino" font-size="38.0" fill="#000000" transform="matrix(1.00, 0.00, -0.00, -1.00, 367.4, 223.5)">h</text><text xml:space="preserve" font-family="Palatino-Roman,Palatino" font-size="38.0" fill="#000000" transform="matrix(1.00, 0.00, -0.00, -1.00, 389.5, 223.5)">o</text><text xml:space="preserve" font-family="Palatino-Roman,Palatino" font-size="38.0" fill="#000000" transform="matrix(1.00, 0.00, -0.00, -1.00, 410.3, 223.5)">n</text><text xml:space="preserve" font-family="Palatino-Roman,Palatino" font-size="38.0" fill="#000000" transform="matrix(1.00, 0.00, -0.00, -1.00, 432.4, 223.5)"> </text><text xml:space="preserve" font-family="Palatino-Roman,Palatino" font-size="38.0" fill="#000000" transform="matrix(1.00, 0.00, -0.00, -1.00, 441.9, 223.5)">t</text><text xml:space="preserve" font-family="Palatino-Roman,Palatino" font-size="38.0" fill="#000000" transform="matrix(1.00, 0.00, -0.00, -1.00, 454.3, 223.5)">w</text><text xml:space="preserve" font-family="Palatino-Roman,Palatino" font-size="38.0" fill="#000000" transform="matrix(1.00, 0.00, -0.00, -1.00, 486.0, 223.5)">o</text><text xml:space="preserve" font-family="Palatino-Roman,Palatino" font-size="38.0" fill="#000000" transform="matrix(1.00, 0.00, -0.00, -1.00, 506.7, 223.5)"> </text><text xml:space="preserve" font-family="Palatino-Roman,Palatino" font-size="38.0" fill="#000000" transform="matrix(1.00, 0.00, -0.00, -1.00, 516.2, 223.5)">y</text><text xml:space="preserve" font-family="Palatino-Roman,Palatino" font-size="38.0" fill="#000000" transform="matrix(1.00, 0.00, -0.00, -1.00, 537.4, 223.5)">e</text><text xml:space="preserve" font-family="Palatino-Roman,Palatino" font-size="38.0" fill="#000000" transform="matrix(1.00, 0.00, -0.00, -1.00, 555.6, 223.5)">a</text><text xml:space="preserve" font-family="Palatino-Roman,Palatino" font-size="38.0" fill="#000000" transform="matrix(1.00, 0.00, -0.00, -1.00, 574.6, 223.5)">r</text><text xml:space="preserve" font-family="Palatino-Roman,Palatino" font-size="38.0" fill="#000000" transform="matrix(1.00, 0.00, -0.00, -1.00, 589.6, 223.5)">s</text><text xml:space="preserve" font-family="Palatino-Roman,Palatino" font-size="38.0" fill="#000000" transform="matrix(1.00, 0.00, -0.00, -1.00, 605.7, 223.5)"> </text><text xml:space="preserve" font-family="Palatino-Roman,Palatino" font-size="38.0" fill="#000000" transform="matrix(1.00, 0.00, -0.00, -1.00, 615.2, 223.5)">a</text><text xml:space="preserve" font-family="Palatino-Roman,Palatino" font-size="38.0" fill="#000000" transform="matrix(1.00, 0.00, -0.00, -1.00, 634.2, 223.5)">g</text><text xml:space="preserve" font-family="Palatino-Roman,Palatino" font-size="38.0" fill="#000000" transform="matrix(1.00, 0.00, -0.00, -1.00, 655.3, 223.5)">o</text><text xml:space="preserve" font-family="ZapfDingbatsITC,Zapf Dingbats" font-size="26.6" fill="#5B86B8" transform="matrix(1.00, 0.00, -0.00, -1.00, 32.0, 135.2)">✤</text><text xml:space="preserve" font-family="Palatino-Roman,Palatino" font-size="38.0" fill="#000000" transform="matrix(1.00, 0.00, -0.00, -1.00, 72.0, 131.5)">D</text><text xml:space="preserve" font-family="Palatino-Roman,Palatino" font-size="38.0" fill="#000000" transform="matrix(1.00, 0.00, -0.00, -1.00, 101.4, 131.5)">i</text><text xml:space="preserve" font-family="Palatino-Roman,Palatino" font-size="38.0" fill="#000000" transform="matrix(1.00, 0.00, -0.00, -1.00, 112.5, 131.5)">s</text><text xml:space="preserve" font-family="Palatino-Roman,Palatino" font-size="38.0" fill="#000000" transform="matrix(1.00, 0.00, -0.00, -1.00, 128.6, 131.5)">c</text><text xml:space="preserve" font-family="Palatino-Roman,Palatino" font-size="38.0" fill="#000000" transform="matrix(1.00, 0.00, -0.00, -1.00, 145.4, 131.5)">o</text><text xml:space="preserve" font-family="Palatino-Roman,Palatino" font-size="38.0" fill="#000000" transform="matrix(1.00, 0.00, -0.00, -1.00, 166.2, 131.5)">v</text><text xml:space="preserve" font-family="Palatino-Roman,Palatino" font-size="38.0" fill="#000000" transform="matrix(1.00, 0.00, -0.00, -1.00, 187.6, 131.5)">e</text><text xml:space="preserve" font-family="Palatino-Roman,Palatino" font-size="38.0" fill="#000000" transform="matrix(1.00, 0.00, -0.00, -1.00, 205.8, 131.5)">r</text><text xml:space="preserve" font-family="Palatino-Roman,Palatino" font-size="38.0" fill="#000000" transform="matrix(1.00, 0.00, -0.00, -1.00, 220.2, 131.5)">e</text><text xml:space="preserve" font-family="Palatino-Roman,Palatino" font-size="38.0" fill="#000000" transform="matrix(1.00, 0.00, -0.00, -1.00, 238.4, 131.5)">d</text><text xml:space="preserve" font-family="Palatino-Roman,Palatino" font-size="38.0" fill="#000000" transform="matrix(1.00, 0.00, -0.00, -1.00, 261.6, 131.5)"> </text><text xml:space="preserve" font-family="Palatino-Roman,Palatino" font-size="38.0" fill="#000000" transform="matrix(1.00, 0.00, -0.00, -1.00, 271.1, 131.5)">p</text><text xml:space="preserve" font-family="Palatino-Roman,Palatino" font-size="38.0" fill="#000000" transform="matrix(1.00, 0.00, -0.00, -1.00, 293.9, 131.5)">a</text><text xml:space="preserve" font-family="Palatino-Roman,Palatino" font-size="38.0" fill="#000000" transform="matrix(1.00, 0.00, -0.00, -1.00, 312.9, 131.5)">n</text><text xml:space="preserve" font-family="Palatino-Roman,Palatino" font-size="38.0" fill="#000000" transform="matrix(1.00, 0.00, -0.00, -1.00, 335.0, 131.5)">d</text><text xml:space="preserve" font-family="Palatino-Roman,Palatino" font-size="38.0" fill="#000000" transform="matrix(1.00, 0.00, -0.00, -1.00, 358.2, 131.5)">a</text><text xml:space="preserve" font-family="Palatino-Roman,Palatino" font-size="38.0" fill="#000000" transform="matrix(1.00, 0.00, -0.00, -1.00, 377.2, 131.5)">s</text><text xml:space="preserve" font-family="Palatino-Roman,Palatino" font-size="38.0" fill="#000000" transform="matrix(1.00, 0.00, -0.00, -1.00, 393.3, 131.5)"> </text><text xml:space="preserve" font-family="Palatino-Roman,Palatino" font-size="38.0" fill="#000000" transform="matrix(1.00, 0.00, -0.00, -1.00, 402.8, 131.5)">t</text><text xml:space="preserve" font-family="Palatino-Roman,Palatino" font-size="38.0" fill="#000000" transform="matrix(1.00, 0.00, -0.00, -1.00, 415.2, 131.5)">e</text><text xml:space="preserve" font-family="Palatino-Roman,Palatino" font-size="38.0" fill="#000000" transform="matrix(1.00, 0.00, -0.00, -1.00, 433.4, 131.5)">n</text><text xml:space="preserve" font-family="Palatino-Roman,Palatino" font-size="38.0" fill="#000000" transform="matrix(1.00, 0.00, -0.00, -1.00, 455.6, 131.5)"> </text><text xml:space="preserve" font-family="Palatino-Roman,Palatino" font-size="38.0" fill="#000000" transform="matrix(1.00, 0.00, -0.00, -1.00, 465.1, 131.5)">m</text><text xml:space="preserve" font-family="Palatino-Roman,Palatino" font-size="38.0" fill="#000000" transform="matrix(1.00, 0.00, -0.00, -1.00, 498.6, 131.5)">o</text><text xml:space="preserve" font-family="Palatino-Roman,Palatino" font-size="38.0" fill="#000000" transform="matrix(1.00, 0.00, -0.00, -1.00, 519.3, 131.5)">n</text><text xml:space="preserve" font-family="Palatino-Roman,Palatino" font-size="38.0" fill="#000000" transform="matrix(1.00, 0.00, -0.00, -1.00, 541.5, 131.5)">t</text><text xml:space="preserve" font-family="Palatino-Roman,Palatino" font-size="38.0" fill="#000000" transform="matrix(1.00, 0.00, -0.00, -1.00, 553.9, 131.5)">h</text><text xml:space="preserve" font-family="Palatino-Roman,Palatino" font-size="38.0" fill="#000000" transform="matrix(1.00, 0.00, -0.00, -1.00, 576.0, 131.5)">s</text><text xml:space="preserve" font-family="Palatino-Roman,Palatino" font-size="38.0" fill="#000000" transform="matrix(1.00, 0.00, -0.00, -1.00, 592.1, 131.5)"> </text><text xml:space="preserve" font-family="Palatino-Roman,Palatino" font-size="38.0" fill="#000000" transform="matrix(1.00, 0.00, -0.00, -1.00, 601.6, 131.5)">a</text><text xml:space="preserve" font-family="Palatino-Roman,Palatino" font-size="38.0" fill="#000000" transform="matrix(1.00, 0.00, -0.00, -1.00, 620.6, 131.5)">g</text><text xml:space="preserve" font-family="Palatino-Roman,Palatino" font-size="38.0" fill="#000000" transform="matrix(1.00, 0.00, -0.00, -1.00, 641.7, 131.5)">o</text></g></svg>